<ttFont>
    <TTGlyph name=".notdef" xMin="102" yMin="0" xMax="922" yMax="1092">
      <contour>
        <pt x="102" y="0" on="1"/>
        <pt x="102" y="1092" on="1"/>
        <pt x="922" y="1092" on="1"/>
        <pt x="922" y="0" on="1"/>
      </contour>
      <contour>
        <pt x="204" y="102" on="1"/>
        <pt x="820" y="102" on="1"/>
        <pt x="820" y="990" on="1"/>
        <pt x="204" y="990" on="1"/>
      </contour>
    </TTGlyph>
    <TTGlyph name="A" xMin="40" yMin="0" xMax="1214" yMax="1171">
      <contour>
        <pt x="425" y="475" on="1"/>
        <pt x="845" y="475" on="1"/>
        <pt x="646" y="1072" on="1"/>
      </contour>
      <contour>
        <pt x="90" y="0" on="1"/>
        <pt x="66" y="0" on="0"/>
        <pt x="40" y="25" on="0"/>
        <pt x="40" y="43" on="1"/>
        <pt x="40" y="60" on="0"/>
        <pt x="66" y="86" on="0"/>
        <pt x="89" y="86" on="1"/>
        <pt x="174" y="86" on="1"/>
        <pt x="559" y="1085" on="1"/>
        <pt x="342" y="1085" on="1"/>
        <pt x="318" y="1085" on="0"/>
        <pt x="292" y="1110" on="0"/>
        <pt x="292" y="1128" on="1"/>
        <pt x="292" y="1145" on="0"/>
        <pt x="318" y="1171" on="0"/>
        <pt x="341" y="1171" on="1"/>
        <pt x="644" y="1171" on="1"/>
        <pt x="702" y="1171" on="0"/>
        <pt x="725" y="1106" on="1"/>
        <pt x="1087" y="86" on="1"/>
        <pt x="1166" y="86" on="1"/>
        <pt x="1189" y="86" on="0"/>
        <pt x="1214" y="61" on="0"/>
        <pt x="1214" y="44" on="1"/>
        <pt x="1214" y="26" on="0"/>
        <pt x="1187" y="0" on="0"/>
        <pt x="1164" y="0" on="1"/>
        <pt x="798" y="0" on="1"/>
        <pt x="774" y="0" on="0"/>
        <pt x="747" y="26" on="0"/>
        <pt x="747" y="44" on="1"/>
        <pt x="747" y="61" on="0"/>
        <pt x="773" y="86" on="0"/>
        <pt x="796" y="86" on="1"/>
        <pt x="982" y="86" on="1"/>
        <pt x="875" y="392" on="1"/>
        <pt x="392" y="392" on="1"/>
        <pt x="280" y="86" on="1"/>
        <pt x="439" y="86" on="1"/>
        <pt x="462" y="86" on="0"/>
        <pt x="489" y="60" on="0"/>
        <pt x="489" y="43" on="1"/>
        <pt x="489" y="25" on="0"/>
        <pt x="462" y="0" on="0"/>
        <pt x="438" y="0" on="1"/>
      </contour>
    </TTGlyph>
    <TTGlyph name="AE" xMin="38" yMin="0" xMax="1115" yMax="1171">
      <contour>
        <pt x="642" y="475" on="1"/>
        <pt x="642" y="1085" on="1"/>
        <pt x="545" y="1085" on="1"/>
        <pt x="354" y="475" on="1"/>
      </contour>
      <contour>
        <pt x="88" y="0" on="1"/>
        <pt x="64" y="0" on="0"/>
        <pt x="38" y="25" on="0"/>
        <pt x="38" y="43" on="1"/>
        <pt x="38" y="60" on="0"/>
        <pt x="64" y="86" on="0"/>
        <pt x="87" y="86" on="1"/>
        <pt x="138" y="86" on="1"/>
        <pt x="463" y="1085" on="1"/>
        <pt x="301" y="1085" on="1"/>
        <pt x="277" y="1085" on="0"/>
        <pt x="251" y="1110" on="0"/>
        <pt x="251" y="1128" on="1"/>
        <pt x="251" y="1145" on="0"/>
        <pt x="277" y="1171" on="0"/>
        <pt x="300" y="1171" on="1"/>
        <pt x="1050" y="1171" on="1"/>
        <pt x="1075" y="1171" on="0"/>
        <pt x="1106" y="1142" on="0"/>
        <pt x="1106" y="1117" on="1"/>
        <pt x="1106" y="893" on="1"/>
        <pt x="1106" y="872" on="0"/>
        <pt x="1082" y="849" on="0"/>
        <pt x="1050" y="849" on="0"/>
        <pt x="1028" y="869" on="0"/>
        <pt x="1027" y="887" on="1"/>
        <pt x="1013" y="1085" on="1"/>
        <pt x="729" y="1085" on="1"/>
        <pt x="729" y="637" on="1"/>
        <pt x="871" y="637" on="1"/>
        <pt x="884" y="740" on="1"/>
        <pt x="886" y="761" on="0"/>
        <pt x="909" y="785" on="0"/>
        <pt x="924" y="785" on="1"/>
        <pt x="940" y="785" on="0"/>
        <pt x="962" y="758" on="0"/>
        <pt x="962" y="732" on="1"/>
        <pt x="962" y="460" on="1"/>
        <pt x="962" y="435" on="0"/>
        <pt x="940" y="409" on="0"/>
        <pt x="924" y="409" on="1"/>
        <pt x="909" y="409" on="0"/>
        <pt x="885" y="432" on="0"/>
        <pt x="884" y="452" on="1"/>
        <pt x="871" y="560" on="1"/>
        <pt x="729" y="560" on="1"/>
        <pt x="729" y="85" on="1"/>
        <pt x="1016" y="85" on="1"/>
        <pt x="1032" y="296" on="1"/>
        <pt x="1033" y="313" on="0"/>
        <pt x="1057" y="335" on="0"/>
        <pt x="1073" y="335" on="1"/>
        <pt x="1090" y="335" on="0"/>
        <pt x="1115" y="308" on="0"/>
        <pt x="1115" y="283" on="1"/>
        <pt x="1115" y="53" on="1"/>
        <pt x="1115" y="28" on="0"/>
        <pt x="1084" y="0" on="0"/>
        <pt x="1059" y="0" on="1"/>
        <pt x="613" y="0" on="1"/>
        <pt x="589" y="0" on="0"/>
        <pt x="562" y="26" on="0"/>
        <pt x="562" y="60" on="0"/>
        <pt x="589" y="85" on="0"/>
        <pt x="612" y="85" on="1"/>
        <pt x="642" y="85" on="1"/>
        <pt x="642" y="392" on="1"/>
        <pt x="327" y="392" on="1"/>
        <pt x="231" y="86" on="1"/>
        <pt x="398" y="86" on="1"/>
        <pt x="421" y="86" on="0"/>
        <pt x="448" y="60" on="0"/>
        <pt x="448" y="43" on="1"/>
        <pt x="448" y="25" on="0"/>
        <pt x="421" y="0" on="0"/>
        <pt x="397" y="0" on="1"/>
      </contour>
    </TTGlyph>
    <TTGlyph name="Aacute" xMin="40" yMin="0" xMax="1214" yMax="1677">
      <component glyphName="acute" x="-60" y="372" flags="0x1004"/>
      <component glyphName="A" x="0" y="0" flags="0x1204"/>
    </TTGlyph>
    <TTGlyph name="Abreve" xMin="40" yMin="0" xMax="1214" yMax="1528">
      <component glyphName="breve" x="-70" y="380" flags="0x1004"/>
      <component glyphName="A" x="0" y="0" flags="0x1204"/>
    </TTGlyph>
    <TTGlyph name="Acircumflex" xMin="40" yMin="0" xMax="1214" yMax="1691">
      <component glyphName="circumflex" x="-72" y="371" flags="0x1004"/>
      <component glyphName="A" x="0" y="0" flags="0x1204"/>
    </TTGlyph>
    <TTGlyph name="Adieresis" xMin="40" yMin="0" xMax="1214" yMax="1474">
      <component glyphName="dieresis" x="-72" y="331" flags="0x1004"/>
      <component glyphName="A" x="0" y="0" flags="0x1204"/>
    </TTGlyph>
    <TTGlyph name="Agrave" xMin="40" yMin="0" xMax="1214" yMax="1652">
      <component glyphName="grave" x="419" y="375" flags="0x1004"/>
      <component glyphName="A" x="0" y="0" flags="0x1204"/>
    </TTGlyph>
    <TTGlyph name="Amacron" xMin="40" yMin="0" xMax="1214" yMax="1436">
      <component glyphName="macron" x="-73" y="317" flags="0x1004"/>
      <component glyphName="A" x="0" y="0" flags="0x1204"/>
    </TTGlyph>
    <TTGlyph name="Aogonek" xMin="40" yMin="-413" xMax="1214" yMax="1171">
      <component glyphName="ogonek" x="348" y="-6" flags="0x1004"/>
      <component glyphName="A" x="0" y="0" flags="0x1004"/>
    </TTGlyph>
    <TTGlyph name="Aring" xMin="40" yMin="0" xMax="1214" yMax="1516">
      <component glyphName="ring" x="-72" y="167" flags="0x1004"/>
      <component glyphName="A" x="0" y="0" flags="0x1204"/>
    </TTGlyph>
    <TTGlyph name="Atilde" xMin="40" yMin="0" xMax="1214" yMax="1528">
      <component glyphName="tilde" x="-33" y="373" flags="0x1004"/>
      <component glyphName="A" x="0" y="0" flags="0x1204"/>
    </TTGlyph>
    <TTGlyph name="B" xMin="188" yMin="0" xMax="1104" yMax="1171">
      <contour>
        <pt x="1104" y="348" on="1"/>
        <pt x="1104" y="257" on="0"/>
        <pt x="1027" y="121" on="0"/>
        <pt x="888" y="40" on="0"/>
        <pt x="710" y="0" on="0"/>
        <pt x="602" y="0" on="1"/>
        <pt x="244" y="0" on="1"/>
        <pt x="220" y="0" on="0"/>
        <pt x="193" y="25" on="0"/>
        <pt x="193" y="43" on="1"/>
        <pt x="193" y="60" on="0"/>
        <pt x="220" y="86" on="0"/>
        <pt x="243" y="86" on="1"/>
        <pt x="403" y="86" on="1"/>
        <pt x="403" y="1085" on="1"/>
        <pt x="237" y="1085" on="1"/>
        <pt x="214" y="1085" on="0"/>
        <pt x="188" y="1111" on="0"/>
        <pt x="188" y="1129" on="1"/>
        <pt x="188" y="1146" on="0"/>
        <pt x="213" y="1171" on="0"/>
        <pt x="236" y="1171" on="1"/>
        <pt x="592" y="1171" on="1"/>
        <pt x="1007" y="1171" on="0"/>
        <pt x="1007" y="889" on="1"/>
        <pt x="1007" y="801" on="0"/>
        <pt x="914" y="681" on="0"/>
        <pt x="843" y="660" on="1"/>
        <pt x="959" y="643" on="0"/>
        <pt x="1104" y="489" on="0"/>
      </contour>
      <contour>
        <pt x="1008" y="363" on="1"/>
        <pt x="1008" y="415" on="0"/>
        <pt x="981" y="493" on="0"/>
        <pt x="925" y="543" on="0"/>
        <pt x="861" y="576" on="0"/>
        <pt x="768" y="591" on="0"/>
        <pt x="685" y="597" on="0"/>
        <pt x="629" y="597" on="1"/>
        <pt x="499" y="597" on="1"/>
        <pt x="499" y="86" on="1"/>
        <pt x="605" y="86" on="1"/>
        <pt x="697" y="86" on="0"/>
        <pt x="839" y="114" on="0"/>
        <pt x="950" y="177" on="0"/>
        <pt x="1008" y="286" on="0"/>
      </contour>
      <contour>
        <pt x="921" y="885" on="1"/>
        <pt x="921" y="993" on="0"/>
        <pt x="756" y="1085" on="0"/>
        <pt x="605" y="1085" on="1"/>
        <pt x="499" y="1085" on="1"/>
        <pt x="499" y="673" on="1"/>
        <pt x="629" y="673" on="1"/>
        <pt x="751" y="673" on="0"/>
        <pt x="921" y="779" on="0"/>
      </contour>
    </TTGlyph>
    <TTGlyph name="C" xMin="132" yMin="-17" xMax="1146" yMax="1187">
      <contour>
        <pt x="1145" y="336" on="1"/>
        <pt x="1130" y="270" on="0"/>
        <pt x="1059" y="149" on="0"/>
        <pt x="946" y="45" on="0"/>
        <pt x="773" y="-17" on="0"/>
        <pt x="669" y="-17" on="1"/>
        <pt x="434" y="-17" on="0"/>
        <pt x="132" y="325" on="0"/>
        <pt x="132" y="607" on="1"/>
        <pt x="132" y="865" on="0"/>
        <pt x="435" y="1187" on="0"/>
        <pt x="668" y="1187" on="1"/>
        <pt x="785" y="1187" on="0"/>
        <pt x="981" y="1090" on="0"/>
        <pt x="1022" y="1015" on="1"/>
        <pt x="1022" y="1121" on="1"/>
        <pt x="1022" y="1144" on="0"/>
        <pt x="1051" y="1171" on="0"/>
        <pt x="1091" y="1171" on="0"/>
        <pt x="1120" y="1144" on="0"/>
        <pt x="1120" y="1120" on="1"/>
        <pt x="1120" y="827" on="1"/>
        <pt x="1120" y="804" on="0"/>
        <pt x="1093" y="780" on="0"/>
        <pt x="1074" y="780" on="1"/>
        <pt x="1034" y="780" on="0"/>
        <pt x="1026" y="827" on="1"/>
        <pt x="1003" y="950" on="0"/>
        <pt x="806" y="1101" on="0"/>
        <pt x="671" y="1101" on="1"/>
        <pt x="468" y="1101" on="0"/>
        <pt x="228" y="821" on="0"/>
        <pt x="228" y="600" on="1"/>
        <pt x="228" y="477" on="0"/>
        <pt x="300" y="274" on="0"/>
        <pt x="422" y="141" on="0"/>
        <pt x="581" y="69" on="0"/>
        <pt x="670" y="69" on="1"/>
        <pt x="812" y="69" on="0"/>
        <pt x="1008" y="223" on="0"/>
        <pt x="1049" y="359" on="1"/>
        <pt x="1059" y="387" on="0"/>
        <pt x="1089" y="387" on="1"/>
        <pt x="1110" y="387" on="0"/>
        <pt x="1146" y="360" on="0"/>
        <pt x="1146" y="343" on="1"/>
        <pt x="1146" y="338" on="0"/>
      </contour>
    </TTGlyph>
    <TTGlyph name="Cacute" xMin="132" yMin="-17" xMax="1146" yMax="1677">
      <component glyphName="acute" x="-48" y="372" flags="0x1004"/>
      <component glyphName="C" x="0" y="0" flags="0x1204"/>
    </TTGlyph>
    <TTGlyph name="Ccaron" xMin="132" yMin="-17" xMax="1146" yMax="1691">
      <component glyphName="caron" x="-60" y="371" flags="0x1004"/>
      <component glyphName="C" x="0" y="0" flags="0x1204"/>
    </TTGlyph>
    <TTGlyph name="Ccedilla" xMin="132" yMin="-405" xMax="1146" yMax="1187">
      <component glyphName="cedilla" x="478" y="-4" flags="0x1004"/>
      <component glyphName="C" x="0" y="0" flags="0x1204"/>
    </TTGlyph>
    <TTGlyph name="Ccircumflex" xMin="132" yMin="-17" xMax="1146" yMax="1691">
      <component glyphName="circumflex" x="-60" y="371" flags="0x1004"/>
      <component glyphName="C" x="0" y="0" flags="0x1204"/>
    </TTGlyph>
    <TTGlyph name="Cdotaccent" xMin="132" yMin="-17" xMax="1146" yMax="1474">
      <component glyphName="uni0307" x="-4" y="661" flags="0x1004"/>
      <component glyphName="C" x="0" y="0" flags="0x1204"/>
    </TTGlyph>
    <TTGlyph name="D" xMin="101" yMin="0" xMax="1084" yMax="1171">
      <contour>
        <pt x="988" y="591" on="1"/>
        <pt x="988" y="829" on="0"/>
        <pt x="753" y="1085" on="0"/>
        <pt x="534" y="1085" on="1"/>
        <pt x="410" y="1085" on="1"/>
        <pt x="410" y="86" on="1"/>
        <pt x="520" y="86" on="1"/>
        <pt x="764" y="86" on="0"/>
        <pt x="988" y="335" on="0"/>
      </contour>
      <contour>
        <pt x="1084" y="591" on="1"/>
        <pt x="1084" y="283" on="0"/>
        <pt x="793" y="0" on="0"/>
        <pt x="513" y="0" on="1"/>
        <pt x="152" y="0" on="1"/>
        <pt x="128" y="0" on="0"/>
        <pt x="101" y="25" on="0"/>
        <pt x="101" y="43" on="1"/>
        <pt x="101" y="60" on="0"/>
        <pt x="128" y="86" on="0"/>
        <pt x="151" y="86" on="1"/>
        <pt x="314" y="86" on="1"/>
        <pt x="314" y="1085" on="1"/>
        <pt x="155" y="1085" on="1"/>
        <pt x="132" y="1085" on="0"/>
        <pt x="107" y="1110" on="0"/>
        <pt x="107" y="1127" on="1"/>
        <pt x="107" y="1145" on="0"/>
        <pt x="134" y="1171" on="0"/>
        <pt x="157" y="1171" on="1"/>
        <pt x="515" y="1171" on="1"/>
        <pt x="782" y="1171" on="0"/>
        <pt x="1084" y="883" on="0"/>
      </contour>
    </TTGlyph>
    <TTGlyph name="Dcaron" xMin="101" yMin="0" xMax="1084" yMax="1691">
      <component glyphName="caron" x="-107" y="371" flags="0x1004"/>
      <component glyphName="D" x="0" y="0" flags="0x1204"/>
    </TTGlyph>
    <TTGlyph name="Dcroat" xMin="101" yMin="0" xMax="1084" yMax="1171">
      <contour>
        <pt x="978" y="591" on="1"/>
        <pt x="978" y="830" on="0"/>
        <pt x="752" y="1085" on="0"/>
        <pt x="534" y="1085" on="1"/>
        <pt x="420" y="1085" on="1"/>
        <pt x="420" y="648" on="1"/>
        <pt x="607" y="648" on="1"/>
        <pt x="646" y="648" on="0"/>
        <pt x="646" y="611" on="1"/>
        <pt x="646" y="572" on="0"/>
        <pt x="605" y="572" on="1"/>
        <pt x="420" y="572" on="1"/>
        <pt x="420" y="86" on="1"/>
        <pt x="520" y="86" on="1"/>
        <pt x="763" y="86" on="0"/>
        <pt x="978" y="334" on="0"/>
      </contour>
      <contour>
        <pt x="172" y="572" on="1"/>
        <pt x="126" y="572" on="0"/>
        <pt x="126" y="611" on="1"/>
        <pt x="126" y="648" on="0"/>
        <pt x="168" y="648" on="1"/>
        <pt x="314" y="648" on="1"/>
        <pt x="314" y="1085" on="1"/>
        <pt x="155" y="1085" on="1"/>
        <pt x="132" y="1085" on="0"/>
        <pt x="107" y="1110" on="0"/>
        <pt x="107" y="1127" on="1"/>
        <pt x="107" y="1145" on="0"/>
        <pt x="134" y="1171" on="0"/>
        <pt x="157" y="1171" on="1"/>
        <pt x="515" y="1171" on="1"/>
        <pt x="782" y="1171" on="0"/>
        <pt x="1084" y="883" on="0"/>
        <pt x="1084" y="591" on="1"/>
        <pt x="1084" y="283" on="0"/>
        <pt x="793" y="0" on="0"/>
        <pt x="513" y="0" on="1"/>
        <pt x="152" y="0" on="1"/>
        <pt x="128" y="0" on="0"/>
        <pt x="101" y="25" on="0"/>
        <pt x="101" y="43" on="1"/>
        <pt x="101" y="60" on="0"/>
        <pt x="128" y="86" on="0"/>
        <pt x="151" y="86" on="1"/>
        <pt x="314" y="86" on="1"/>
        <pt x="314" y="572" on="1"/>
      </contour>
    </TTGlyph>
    <TTGlyph name="E" xMin="104" yMin="0" xMax="1137" yMax="1171">
      <contour>
        <pt x="837" y="437" on="1"/>
        <pt x="837" y="412" on="0"/>
        <pt x="815" y="386" on="0"/>
        <pt x="799" y="386" on="1"/>
        <pt x="784" y="386" on="0"/>
        <pt x="760" y="409" on="0"/>
        <pt x="759" y="429" on="1"/>
        <pt x="746" y="577" on="1"/>
        <pt x="420" y="577" on="1"/>
        <pt x="420" y="85" on="1"/>
        <pt x="1035" y="85" on="1"/>
        <pt x="1051" y="336" on="1"/>
        <pt x="1052" y="353" on="0"/>
        <pt x="1078" y="375" on="0"/>
        <pt x="1112" y="375" on="0"/>
        <pt x="1137" y="348" on="0"/>
        <pt x="1137" y="323" on="1"/>
        <pt x="1137" y="53" on="1"/>
        <pt x="1137" y="28" on="0"/>
        <pt x="1106" y="0" on="0"/>
        <pt x="1081" y="0" on="1"/>
        <pt x="155" y="0" on="1"/>
        <pt x="131" y="0" on="0"/>
        <pt x="104" y="26" on="0"/>
        <pt x="104" y="60" on="0"/>
        <pt x="131" y="85" on="0"/>
        <pt x="154" y="85" on="1"/>
        <pt x="324" y="85" on="1"/>
        <pt x="324" y="1085" on="1"/>
        <pt x="189" y="1085" on="1"/>
        <pt x="166" y="1085" on="0"/>
        <pt x="141" y="1110" on="0"/>
        <pt x="141" y="1127" on="1"/>
        <pt x="141" y="1145" on="0"/>
        <pt x="168" y="1171" on="0"/>
        <pt x="191" y="1171" on="1"/>
        <pt x="1069" y="1171" on="1"/>
        <pt x="1094" y="1171" on="0"/>
        <pt x="1125" y="1142" on="0"/>
        <pt x="1125" y="1117" on="1"/>
        <pt x="1125" y="847" on="1"/>
        <pt x="1125" y="826" on="0"/>
        <pt x="1101" y="803" on="0"/>
        <pt x="1069" y="803" on="0"/>
        <pt x="1044" y="823" on="0"/>
        <pt x="1043" y="841" on="1"/>
        <pt x="1029" y="1085" on="1"/>
        <pt x="420" y="1085" on="1"/>
        <pt x="420" y="654" on="1"/>
        <pt x="746" y="654" on="1"/>
        <pt x="759" y="787" on="1"/>
        <pt x="761" y="808" on="0"/>
        <pt x="784" y="832" on="0"/>
        <pt x="799" y="832" on="1"/>
        <pt x="815" y="832" on="0"/>
        <pt x="837" y="805" on="0"/>
        <pt x="837" y="779" on="1"/>
      </contour>
    </TTGlyph>
    <TTGlyph name="Eacute" xMin="104" yMin="0" xMax="1137" yMax="1677">
      <component glyphName="acute" x="-66" y="372" flags="0x1004"/>
      <component glyphName="E" x="0" y="0" flags="0x1204"/>
    </TTGlyph>
    <TTGlyph name="Ebreve" xMin="104" yMin="0" xMax="1137" yMax="1528">
      <component glyphName="breve" x="-76" y="380" flags="0x1004"/>
      <component glyphName="E" x="0" y="0" flags="0x1204"/>
    </TTGlyph>
    <TTGlyph name="Ecaron" xMin="104" yMin="0" xMax="1137" yMax="1691">
      <component glyphName="caron" x="-79" y="371" flags="0x1004"/>
      <component glyphName="E" x="0" y="0" flags="0x1204"/>
    </TTGlyph>
    <TTGlyph name="Ecircumflex" xMin="104" yMin="0" xMax="1137" yMax="1691">
      <component glyphName="circumflex" x="-79" y="371" flags="0x1004"/>
      <component glyphName="E" x="0" y="0" flags="0x1204"/>
    </TTGlyph>
    <TTGlyph name="Edieresis" xMin="104" yMin="0" xMax="1137" yMax="1474">
      <component glyphName="dieresis" x="-78" y="331" flags="0x1004"/>
      <component glyphName="E" x="0" y="0" flags="0x1204"/>
    </TTGlyph>
    <TTGlyph name="Edotaccent" xMin="104" yMin="0" xMax="1137" yMax="1474">
      <component glyphName="uni0307" x="-23" y="661" flags="0x1004"/>
      <component glyphName="E" x="0" y="0" flags="0x1204"/>
    </TTGlyph>
    <TTGlyph name="Egrave" xMin="104" yMin="0" xMax="1137" yMax="1652">
      <component glyphName="grave" x="412" y="375" flags="0x1004"/>
      <component glyphName="E" x="0" y="0" flags="0x1204"/>
    </TTGlyph>
    <TTGlyph name="Emacron" xMin="104" yMin="0" xMax="1137" yMax="1436">
      <component glyphName="macron" x="-80" y="317" flags="0x1004"/>
      <component glyphName="E" x="0" y="0" flags="0x1204"/>
    </TTGlyph>
    <TTGlyph name="Eng" xMin="80" yMin="-401" xMax="1183" yMax="1171">
      <contour>
        <pt x="629" y="-401" on="1"/>
        <pt x="610" y="-401" on="0"/>
        <pt x="589" y="-376" on="0"/>
        <pt x="589" y="-359" on="1"/>
        <pt x="589" y="-343" on="0"/>
        <pt x="610" y="-320" on="0"/>
        <pt x="630" y="-320" on="1"/>
        <pt x="687" y="-320" on="0"/>
        <pt x="799" y="-280" on="0"/>
        <pt x="888" y="-207" on="0"/>
        <pt x="943" y="-97" on="0"/>
        <pt x="943" y="-32" on="1"/>
        <pt x="943" y="52" on="1"/>
        <pt x="931" y="73" on="0"/>
        <pt x="678" y="534" on="0"/>
        <pt x="437" y="977" on="0"/>
        <pt x="381" y="1084" on="1"/>
        <pt x="381" y="86" on="1"/>
        <pt x="519" y="86" on="1"/>
        <pt x="542" y="86" on="0"/>
        <pt x="568" y="60" on="0"/>
        <pt x="568" y="43" on="1"/>
        <pt x="568" y="25" on="0"/>
        <pt x="542" y="0" on="0"/>
        <pt x="518" y="0" on="1"/>
        <pt x="160" y="0" on="1"/>
        <pt x="136" y="0" on="0"/>
        <pt x="110" y="25" on="0"/>
        <pt x="110" y="43" on="1"/>
        <pt x="110" y="60" on="0"/>
        <pt x="136" y="86" on="0"/>
        <pt x="159" y="86" on="1"/>
        <pt x="285" y="86" on="1"/>
        <pt x="285" y="1085" on="1"/>
        <pt x="129" y="1085" on="1"/>
        <pt x="106" y="1085" on="0"/>
        <pt x="80" y="1110" on="0"/>
        <pt x="80" y="1127" on="1"/>
        <pt x="80" y="1145" on="0"/>
        <pt x="107" y="1171" on="0"/>
        <pt x="130" y="1171" on="1"/>
        <pt x="407" y="1171" on="1"/>
        <pt x="435" y="1171" on="0"/>
        <pt x="447" y="1147" on="1"/>
        <pt x="943" y="224" on="1"/>
        <pt x="943" y="1085" on="1"/>
        <pt x="794" y="1085" on="1"/>
        <pt x="771" y="1085" on="0"/>
        <pt x="745" y="1110" on="0"/>
        <pt x="745" y="1127" on="1"/>
        <pt x="745" y="1145" on="0"/>
        <pt x="772" y="1171" on="0"/>
        <pt x="796" y="1171" on="1"/>
        <pt x="1133" y="1171" on="1"/>
        <pt x="1156" y="1171" on="0"/>
        <pt x="1183" y="1145" on="0"/>
        <pt x="1183" y="1127" on="1"/>
        <pt x="1183" y="1110" on="0"/>
        <pt x="1158" y="1085" on="0"/>
        <pt x="1135" y="1085" on="1"/>
        <pt x="1039" y="1085" on="1"/>
        <pt x="1039" y="-19" on="1"/>
        <pt x="1039" y="-132" on="0"/>
        <pt x="922" y="-309" on="0"/>
        <pt x="736" y="-401" on="0"/>
      </contour>
    </TTGlyph>
    <TTGlyph name="Eogonek" xMin="104" yMin="-413" xMax="1137" yMax="1171">
      <component glyphName="ogonek" x="60" y="-6" flags="0x1004"/>
      <component glyphName="E" x="0" y="0" flags="0x1004"/>
    </TTGlyph>
    <TTGlyph name="Eth" xMin="101" yMin="0" xMax="1084" yMax="1171">
      <contour>
        <pt x="978" y="591" on="1"/>
        <pt x="978" y="830" on="0"/>
        <pt x="752" y="1085" on="0"/>
        <pt x="534" y="1085" on="1"/>
        <pt x="420" y="1085" on="1"/>
        <pt x="420" y="648" on="1"/>
        <pt x="607" y="648" on="1"/>
        <pt x="646" y="648" on="0"/>
        <pt x="646" y="611" on="1"/>
        <pt x="646" y="572" on="0"/>
        <pt x="605" y="572" on="1"/>
        <pt x="420" y="572" on="1"/>
        <pt x="420" y="86" on="1"/>
        <pt x="520" y="86" on="1"/>
        <pt x="763" y="86" on="0"/>
        <pt x="978" y="334" on="0"/>
      </contour>
      <contour>
        <pt x="172" y="572" on="1"/>
        <pt x="126" y="572" on="0"/>
        <pt x="126" y="611" on="1"/>
        <pt x="126" y="648" on="0"/>
        <pt x="168" y="648" on="1"/>
        <pt x="314" y="648" on="1"/>
        <pt x="314" y="1085" on="1"/>
        <pt x="155" y="1085" on="1"/>
        <pt x="132" y="1085" on="0"/>
        <pt x="107" y="1110" on="0"/>
        <pt x="107" y="1127" on="1"/>
        <pt x="107" y="1145" on="0"/>
        <pt x="134" y="1171" on="0"/>
        <pt x="157" y="1171" on="1"/>
        <pt x="515" y="1171" on="1"/>
        <pt x="782" y="1171" on="0"/>
        <pt x="1084" y="883" on="0"/>
        <pt x="1084" y="591" on="1"/>
        <pt x="1084" y="283" on="0"/>
        <pt x="793" y="0" on="0"/>
        <pt x="513" y="0" on="1"/>
        <pt x="152" y="0" on="1"/>
        <pt x="128" y="0" on="0"/>
        <pt x="101" y="25" on="0"/>
        <pt x="101" y="43" on="1"/>
        <pt x="101" y="60" on="0"/>
        <pt x="128" y="86" on="0"/>
        <pt x="151" y="86" on="1"/>
        <pt x="314" y="86" on="1"/>
        <pt x="314" y="572" on="1"/>
      </contour>
    </TTGlyph>
    <TTGlyph name="Euro" xMin="60" yMin="-17" xMax="1097" yMax="1187">
      <contour>
        <pt x="659" y="-17" on="1"/>
        <pt x="469" y="-17" on="0"/>
        <pt x="231" y="217" on="0"/>
        <pt x="196" y="429" on="1"/>
        <pt x="117" y="429" on="1"/>
        <pt x="60" y="429" on="0"/>
        <pt x="60" y="466" on="1"/>
        <pt x="60" y="505" on="0"/>
        <pt x="117" y="505" on="1"/>
        <pt x="186" y="505" on="1"/>
        <pt x="182" y="549" on="0"/>
        <pt x="182" y="607" on="1"/>
        <pt x="182" y="643" on="0"/>
        <pt x="183" y="661" on="1"/>
        <pt x="117" y="661" on="1"/>
        <pt x="60" y="661" on="0"/>
        <pt x="60" y="739" on="0"/>
        <pt x="117" y="739" on="1"/>
        <pt x="191" y="739" on="1"/>
        <pt x="222" y="947" on="0"/>
        <pt x="471" y="1187" on="0"/>
        <pt x="668" y="1187" on="1"/>
        <pt x="877" y="1187" on="0"/>
        <pt x="972" y="1015" on="1"/>
        <pt x="972" y="1121" on="1"/>
        <pt x="972" y="1144" on="0"/>
        <pt x="1001" y="1171" on="0"/>
        <pt x="1041" y="1171" on="0"/>
        <pt x="1070" y="1144" on="0"/>
        <pt x="1070" y="1120" on="1"/>
        <pt x="1070" y="827" on="1"/>
        <pt x="1070" y="804" on="0"/>
        <pt x="1043" y="780" on="0"/>
        <pt x="1024" y="780" on="1"/>
        <pt x="988" y="780" on="0"/>
        <pt x="980" y="827" on="1"/>
        <pt x="956" y="955" on="0"/>
        <pt x="801" y="1101" on="0"/>
        <pt x="671" y="1101" on="1"/>
        <pt x="505" y="1101" on="0"/>
        <pt x="315" y="908" on="0"/>
        <pt x="288" y="739" on="1"/>
        <pt x="489" y="739" on="1"/>
        <pt x="544" y="739" on="0"/>
        <pt x="544" y="661" on="0"/>
        <pt x="489" y="661" on="1"/>
        <pt x="280" y="661" on="1"/>
        <pt x="278" y="621" on="0"/>
        <pt x="278" y="600" on="1"/>
        <pt x="278" y="545" on="0"/>
        <pt x="282" y="505" on="1"/>
        <pt x="489" y="505" on="1"/>
        <pt x="544" y="505" on="0"/>
        <pt x="544" y="466" on="1"/>
        <pt x="544" y="429" on="0"/>
        <pt x="489" y="429" on="1"/>
        <pt x="293" y="429" on="1"/>
        <pt x="324" y="256" on="0"/>
        <pt x="516" y="69" on="0"/>
        <pt x="660" y="69" on="1"/>
        <pt x="801" y="69" on="0"/>
        <pt x="965" y="207" on="0"/>
        <pt x="1016" y="356" on="1"/>
        <pt x="1026" y="384" on="0"/>
        <pt x="1054" y="384" on="1"/>
        <pt x="1071" y="384" on="0"/>
        <pt x="1097" y="362" on="0"/>
        <pt x="1097" y="347" on="1"/>
        <pt x="1097" y="344" on="0"/>
        <pt x="1095" y="336" on="1"/>
        <pt x="1076" y="279" on="0"/>
        <pt x="1037" y="193" on="0"/>
        <pt x="965" y="92" on="0"/>
        <pt x="878" y="27" on="0"/>
        <pt x="743" y="-17" on="0"/>
      </contour>
    </TTGlyph>
    <TTGlyph name="F" xMin="104" yMin="0" xMax="1138" yMax="1171">
      <contour>
        <pt x="848" y="437" on="1"/>
        <pt x="848" y="412" on="0"/>
        <pt x="826" y="386" on="0"/>
        <pt x="810" y="386" on="1"/>
        <pt x="795" y="386" on="0"/>
        <pt x="771" y="409" on="0"/>
        <pt x="770" y="429" on="1"/>
        <pt x="757" y="577" on="1"/>
        <pt x="420" y="577" on="1"/>
        <pt x="420" y="85" on="1"/>
        <pt x="770" y="85" on="1"/>
        <pt x="792" y="85" on="0"/>
        <pt x="816" y="60" on="0"/>
        <pt x="816" y="43" on="1"/>
        <pt x="816" y="25" on="0"/>
        <pt x="792" y="0" on="0"/>
        <pt x="771" y="0" on="1"/>
        <pt x="155" y="0" on="1"/>
        <pt x="131" y="0" on="0"/>
        <pt x="104" y="26" on="0"/>
        <pt x="104" y="60" on="0"/>
        <pt x="131" y="85" on="0"/>
        <pt x="154" y="85" on="1"/>
        <pt x="324" y="85" on="1"/>
        <pt x="324" y="1085" on="1"/>
        <pt x="189" y="1085" on="1"/>
        <pt x="166" y="1085" on="0"/>
        <pt x="141" y="1110" on="0"/>
        <pt x="141" y="1127" on="1"/>
        <pt x="141" y="1145" on="0"/>
        <pt x="168" y="1171" on="0"/>
        <pt x="191" y="1171" on="1"/>
        <pt x="1082" y="1171" on="1"/>
        <pt x="1107" y="1171" on="0"/>
        <pt x="1138" y="1142" on="0"/>
        <pt x="1138" y="1117" on="1"/>
        <pt x="1138" y="847" on="1"/>
        <pt x="1138" y="826" on="0"/>
        <pt x="1114" y="803" on="0"/>
        <pt x="1082" y="803" on="0"/>
        <pt x="1057" y="823" on="0"/>
        <pt x="1056" y="841" on="1"/>
        <pt x="1042" y="1085" on="1"/>
        <pt x="420" y="1085" on="1"/>
        <pt x="420" y="654" on="1"/>
        <pt x="757" y="654" on="1"/>
        <pt x="770" y="787" on="1"/>
        <pt x="772" y="808" on="0"/>
        <pt x="795" y="832" on="0"/>
        <pt x="810" y="832" on="1"/>
        <pt x="826" y="832" on="0"/>
        <pt x="848" y="805" on="0"/>
        <pt x="848" y="779" on="1"/>
      </contour>
    </TTGlyph>
    <TTGlyph name="G" xMin="89" yMin="-17" xMax="1195" yMax="1187">
      <contour>
        <pt x="1083" y="510" on="1"/>
        <pt x="1083" y="49" on="1"/>
        <pt x="1083" y="22" on="0"/>
        <pt x="1055" y="-8" on="0"/>
        <pt x="1036" y="-8" on="1"/>
        <pt x="1016" y="-8" on="0"/>
        <pt x="987" y="23" on="0"/>
        <pt x="987" y="51" on="1"/>
        <pt x="987" y="175" on="1"/>
        <pt x="949" y="90" on="0"/>
        <pt x="739" y="-17" on="0"/>
        <pt x="606" y="-17" on="1"/>
        <pt x="373" y="-17" on="0"/>
        <pt x="89" y="322" on="0"/>
        <pt x="89" y="607" on="1"/>
        <pt x="89" y="867" on="0"/>
        <pt x="374" y="1187" on="0"/>
        <pt x="605" y="1187" on="1"/>
        <pt x="722" y="1187" on="0"/>
        <pt x="918" y="1090" on="0"/>
        <pt x="959" y="1015" on="1"/>
        <pt x="959" y="1121" on="1"/>
        <pt x="959" y="1144" on="0"/>
        <pt x="988" y="1171" on="0"/>
        <pt x="1028" y="1171" on="0"/>
        <pt x="1057" y="1144" on="0"/>
        <pt x="1057" y="1120" on="1"/>
        <pt x="1057" y="827" on="1"/>
        <pt x="1057" y="804" on="0"/>
        <pt x="1030" y="780" on="0"/>
        <pt x="1011" y="780" on="1"/>
        <pt x="971" y="780" on="0"/>
        <pt x="963" y="827" on="1"/>
        <pt x="940" y="950" on="0"/>
        <pt x="743" y="1101" on="0"/>
        <pt x="608" y="1101" on="1"/>
        <pt x="407" y="1101" on="0"/>
        <pt x="185" y="824" on="0"/>
        <pt x="185" y="600" on="1"/>
        <pt x="185" y="354" on="0"/>
        <pt x="425" y="69" on="0"/>
        <pt x="607" y="69" on="1"/>
        <pt x="756" y="69" on="0"/>
        <pt x="949" y="213" on="0"/>
        <pt x="987" y="332" on="1"/>
        <pt x="987" y="510" on="1"/>
        <pt x="863" y="510" on="1"/>
        <pt x="840" y="510" on="0"/>
        <pt x="813" y="536" on="0"/>
        <pt x="813" y="554" on="1"/>
        <pt x="813" y="571" on="0"/>
        <pt x="839" y="596" on="0"/>
        <pt x="862" y="596" on="1"/>
        <pt x="1146" y="596" on="1"/>
        <pt x="1169" y="596" on="0"/>
        <pt x="1195" y="571" on="0"/>
        <pt x="1195" y="554" on="1"/>
        <pt x="1195" y="536" on="0"/>
        <pt x="1168" y="510" on="0"/>
        <pt x="1144" y="510" on="1"/>
      </contour>
    </TTGlyph>
    <TTGlyph name="Gbreve" xMin="89" yMin="-17" xMax="1195" yMax="1528">
      <component glyphName="breve" x="-55" y="380" flags="0x1004"/>
      <component glyphName="G" x="0" y="0" flags="0x1204"/>
    </TTGlyph>
    <TTGlyph name="Gcircumflex" xMin="89" yMin="-17" xMax="1195" yMax="1691">
      <component glyphName="circumflex" x="-58" y="371" flags="0x1004"/>
      <component glyphName="G" x="0" y="0" flags="0x1204"/>
    </TTGlyph>
    <TTGlyph name="Gcommaaccent" xMin="89" yMin="-558" xMax="1195" yMax="1187">
      <component glyphName="uni0326" x="-8" y="-348" flags="0x1004"/>
      <component glyphName="G" x="0" y="0" flags="0x1204"/>
    </TTGlyph>
    <TTGlyph name="Gdotaccent" xMin="89" yMin="-17" xMax="1195" yMax="1474">
      <component glyphName="uni0307" x="-2" y="661" flags="0x1004"/>
      <component glyphName="G" x="0" y="0" flags="0x1204"/>
    </TTGlyph>
    <TTGlyph name="H" xMin="93" yMin="0" xMax="1147" yMax="1171">
      <contour>
        <pt x="143" y="0" on="1"/>
        <pt x="120" y="0" on="0"/>
        <pt x="93" y="26" on="0"/>
        <pt x="93" y="44" on="1"/>
        <pt x="93" y="61" on="0"/>
        <pt x="118" y="86" on="0"/>
        <pt x="141" y="86" on="1"/>
        <pt x="265" y="86" on="1"/>
        <pt x="265" y="1085" on="1"/>
        <pt x="157" y="1085" on="1"/>
        <pt x="133" y="1085" on="0"/>
        <pt x="107" y="1110" on="0"/>
        <pt x="107" y="1128" on="1"/>
        <pt x="107" y="1145" on="0"/>
        <pt x="134" y="1171" on="0"/>
        <pt x="157" y="1171" on="1"/>
        <pt x="459" y="1171" on="1"/>
        <pt x="482" y="1171" on="0"/>
        <pt x="509" y="1145" on="0"/>
        <pt x="509" y="1127" on="1"/>
        <pt x="509" y="1110" on="0"/>
        <pt x="484" y="1085" on="0"/>
        <pt x="461" y="1085" on="1"/>
        <pt x="361" y="1085" on="1"/>
        <pt x="361" y="638" on="1"/>
        <pt x="901" y="638" on="1"/>
        <pt x="901" y="1085" on="1"/>
        <pt x="801" y="1085" on="1"/>
        <pt x="778" y="1085" on="0"/>
        <pt x="753" y="1110" on="0"/>
        <pt x="753" y="1127" on="1"/>
        <pt x="753" y="1145" on="0"/>
        <pt x="780" y="1171" on="0"/>
        <pt x="803" y="1171" on="1"/>
        <pt x="1097" y="1171" on="1"/>
        <pt x="1120" y="1171" on="0"/>
        <pt x="1147" y="1146" on="0"/>
        <pt x="1147" y="1130" on="1"/>
        <pt x="1147" y="1112" on="0"/>
        <pt x="1120" y="1085" on="0"/>
        <pt x="1097" y="1085" on="1"/>
        <pt x="997" y="1085" on="1"/>
        <pt x="997" y="86" on="1"/>
        <pt x="1097" y="86" on="1"/>
        <pt x="1121" y="86" on="0"/>
        <pt x="1147" y="61" on="0"/>
        <pt x="1147" y="43" on="1"/>
        <pt x="1147" y="26" on="0"/>
        <pt x="1120" y="0" on="0"/>
        <pt x="1097" y="0" on="1"/>
        <pt x="803" y="0" on="1"/>
        <pt x="780" y="0" on="0"/>
        <pt x="753" y="26" on="0"/>
        <pt x="753" y="44" on="1"/>
        <pt x="753" y="61" on="0"/>
        <pt x="778" y="86" on="0"/>
        <pt x="801" y="86" on="1"/>
        <pt x="901" y="86" on="1"/>
        <pt x="901" y="558" on="1"/>
        <pt x="361" y="558" on="1"/>
        <pt x="361" y="86" on="1"/>
        <pt x="461" y="86" on="1"/>
        <pt x="484" y="86" on="0"/>
        <pt x="509" y="62" on="0"/>
        <pt x="509" y="46" on="1"/>
        <pt x="509" y="27" on="0"/>
        <pt x="482" y="0" on="0"/>
        <pt x="459" y="0" on="1"/>
      </contour>
    </TTGlyph>
    <TTGlyph name="Hbar" xMin="93" yMin="0" xMax="1147" yMax="1171">
      <contour>
        <pt x="143" y="0" on="1"/>
        <pt x="120" y="0" on="0"/>
        <pt x="93" y="26" on="0"/>
        <pt x="93" y="44" on="1"/>
        <pt x="93" y="61" on="0"/>
        <pt x="118" y="86" on="0"/>
        <pt x="141" y="86" on="1"/>
        <pt x="265" y="86" on="1"/>
        <pt x="265" y="855" on="1"/>
        <pt x="153" y="855" on="1"/>
        <pt x="107" y="855" on="0"/>
        <pt x="107" y="894" on="1"/>
        <pt x="107" y="931" on="0"/>
        <pt x="149" y="931" on="1"/>
        <pt x="265" y="931" on="1"/>
        <pt x="265" y="1085" on="1"/>
        <pt x="157" y="1085" on="1"/>
        <pt x="133" y="1085" on="0"/>
        <pt x="107" y="1110" on="0"/>
        <pt x="107" y="1128" on="1"/>
        <pt x="107" y="1145" on="0"/>
        <pt x="134" y="1171" on="0"/>
        <pt x="157" y="1171" on="1"/>
        <pt x="459" y="1171" on="1"/>
        <pt x="482" y="1171" on="0"/>
        <pt x="509" y="1145" on="0"/>
        <pt x="509" y="1127" on="1"/>
        <pt x="509" y="1110" on="0"/>
        <pt x="484" y="1085" on="0"/>
        <pt x="461" y="1085" on="1"/>
        <pt x="361" y="1085" on="1"/>
        <pt x="361" y="931" on="1"/>
        <pt x="901" y="931" on="1"/>
        <pt x="901" y="1085" on="1"/>
        <pt x="801" y="1085" on="1"/>
        <pt x="778" y="1085" on="0"/>
        <pt x="753" y="1110" on="0"/>
        <pt x="753" y="1127" on="1"/>
        <pt x="753" y="1145" on="0"/>
        <pt x="780" y="1171" on="0"/>
        <pt x="803" y="1171" on="1"/>
        <pt x="1097" y="1171" on="1"/>
        <pt x="1120" y="1171" on="0"/>
        <pt x="1147" y="1146" on="0"/>
        <pt x="1147" y="1130" on="1"/>
        <pt x="1147" y="1112" on="0"/>
        <pt x="1120" y="1085" on="0"/>
        <pt x="1097" y="1085" on="1"/>
        <pt x="997" y="1085" on="1"/>
        <pt x="997" y="931" on="1"/>
        <pt x="1108" y="931" on="1"/>
        <pt x="1147" y="931" on="0"/>
        <pt x="1147" y="894" on="1"/>
        <pt x="1147" y="855" on="0"/>
        <pt x="1106" y="855" on="1"/>
        <pt x="997" y="855" on="1"/>
        <pt x="997" y="86" on="1"/>
        <pt x="1097" y="86" on="1"/>
        <pt x="1121" y="86" on="0"/>
        <pt x="1147" y="61" on="0"/>
        <pt x="1147" y="43" on="1"/>
        <pt x="1147" y="26" on="0"/>
        <pt x="1120" y="0" on="0"/>
        <pt x="1097" y="0" on="1"/>
        <pt x="803" y="0" on="1"/>
        <pt x="780" y="0" on="0"/>
        <pt x="753" y="26" on="0"/>
        <pt x="753" y="44" on="1"/>
        <pt x="753" y="61" on="0"/>
        <pt x="778" y="86" on="0"/>
        <pt x="801" y="86" on="1"/>
        <pt x="901" y="86" on="1"/>
        <pt x="901" y="558" on="1"/>
        <pt x="361" y="558" on="1"/>
        <pt x="361" y="86" on="1"/>
        <pt x="461" y="86" on="1"/>
        <pt x="484" y="86" on="0"/>
        <pt x="509" y="62" on="0"/>
        <pt x="509" y="46" on="1"/>
        <pt x="509" y="27" on="0"/>
        <pt x="482" y="0" on="0"/>
        <pt x="459" y="0" on="1"/>
      </contour>
      <contour>
        <pt x="361" y="855" on="1"/>
        <pt x="361" y="638" on="1"/>
        <pt x="901" y="638" on="1"/>
        <pt x="901" y="855" on="1"/>
      </contour>
    </TTGlyph>
    <TTGlyph name="Hcircumflex" xMin="93" yMin="0" xMax="1147" yMax="1691">
      <component glyphName="circumflex" x="-80" y="371" flags="0x1004"/>
      <component glyphName="H" x="0" y="0" flags="0x1204"/>
    </TTGlyph>
    <TTGlyph name="I" xMin="259" yMin="0" xMax="1045" yMax="1171">
      <contour>
        <pt x="310" y="0" on="1"/>
        <pt x="286" y="0" on="0"/>
        <pt x="259" y="25" on="0"/>
        <pt x="259" y="43" on="1"/>
        <pt x="259" y="60" on="0"/>
        <pt x="286" y="86" on="0"/>
        <pt x="309" y="86" on="1"/>
        <pt x="614" y="86" on="1"/>
        <pt x="614" y="1085" on="1"/>
        <pt x="309" y="1085" on="1"/>
        <pt x="286" y="1085" on="0"/>
        <pt x="259" y="1110" on="0"/>
        <pt x="259" y="1127" on="1"/>
        <pt x="259" y="1145" on="0"/>
        <pt x="286" y="1171" on="0"/>
        <pt x="310" y="1171" on="1"/>
        <pt x="995" y="1171" on="1"/>
        <pt x="1018" y="1171" on="0"/>
        <pt x="1045" y="1145" on="0"/>
        <pt x="1045" y="1127" on="1"/>
        <pt x="1045" y="1110" on="0"/>
        <pt x="1019" y="1085" on="0"/>
        <pt x="996" y="1085" on="1"/>
        <pt x="710" y="1085" on="1"/>
        <pt x="710" y="86" on="1"/>
        <pt x="996" y="86" on="1"/>
        <pt x="1019" y="86" on="0"/>
        <pt x="1045" y="60" on="0"/>
        <pt x="1045" y="43" on="1"/>
        <pt x="1045" y="25" on="0"/>
        <pt x="1019" y="0" on="0"/>
        <pt x="995" y="0" on="1"/>
      </contour>
    </TTGlyph>
    <TTGlyph name="IJ" xMin="47" yMin="0" xMax="1192" yMax="1171">
      <contour>
        <pt x="1040" y="307" on="1"/>
        <pt x="1040" y="187" on="0"/>
        <pt x="977" y="58" on="0"/>
        <pt x="821" y="0" on="0"/>
        <pt x="676" y="0" on="1"/>
        <pt x="661" y="0" on="0"/>
        <pt x="644" y="24" on="0"/>
        <pt x="644" y="41" on="1"/>
        <pt x="644" y="57" on="0"/>
        <pt x="660" y="81" on="0"/>
        <pt x="676" y="81" on="1"/>
        <pt x="738" y="81" on="0"/>
        <pt x="822" y="88" on="0"/>
        <pt x="884" y="111" on="0"/>
        <pt x="918" y="139" on="0"/>
        <pt x="938" y="195" on="0"/>
        <pt x="944" y="255" on="0"/>
        <pt x="944" y="304" on="1"/>
        <pt x="944" y="1085" on="1"/>
        <pt x="348" y="1085" on="1"/>
        <pt x="348" y="86" on="1"/>
        <pt x="479" y="86" on="1"/>
        <pt x="502" y="86" on="0"/>
        <pt x="528" y="60" on="0"/>
        <pt x="528" y="43" on="1"/>
        <pt x="528" y="25" on="0"/>
        <pt x="502" y="0" on="0"/>
        <pt x="478" y="0" on="1"/>
        <pt x="118" y="0" on="1"/>
        <pt x="94" y="0" on="0"/>
        <pt x="67" y="25" on="0"/>
        <pt x="67" y="43" on="1"/>
        <pt x="67" y="60" on="0"/>
        <pt x="94" y="86" on="0"/>
        <pt x="117" y="86" on="1"/>
        <pt x="252" y="86" on="1"/>
        <pt x="252" y="1085" on="1"/>
        <pt x="97" y="1085" on="1"/>
        <pt x="74" y="1085" on="0"/>
        <pt x="47" y="1110" on="0"/>
        <pt x="47" y="1127" on="1"/>
        <pt x="47" y="1145" on="0"/>
        <pt x="74" y="1171" on="0"/>
        <pt x="98" y="1171" on="1"/>
        <pt x="1142" y="1171" on="1"/>
        <pt x="1166" y="1171" on="0"/>
        <pt x="1192" y="1146" on="0"/>
        <pt x="1192" y="1128" on="1"/>
        <pt x="1192" y="1111" on="0"/>
        <pt x="1166" y="1085" on="0"/>
        <pt x="1143" y="1085" on="1"/>
        <pt x="1040" y="1085" on="1"/>
      </contour>
    </TTGlyph>
    <TTGlyph name="Iacute" xMin="259" yMin="0" xMax="1045" yMax="1677">
      <component glyphName="acute" x="-35" y="372" flags="0x1004"/>
      <component glyphName="I" x="0" y="0" flags="0x1204"/>
    </TTGlyph>
    <TTGlyph name="Ibreve" xMin="259" yMin="0" xMax="1045" yMax="1528">
      <component glyphName="breve" x="-45" y="380" flags="0x1004"/>
      <component glyphName="I" x="0" y="0" flags="0x1204"/>
    </TTGlyph>
    <TTGlyph name="Icircumflex" xMin="259" yMin="0" xMax="1045" yMax="1691">
      <component glyphName="circumflex" x="-48" y="371" flags="0x1004"/>
      <component glyphName="I" x="0" y="0" flags="0x1204"/>
    </TTGlyph>
    <TTGlyph name="Idieresis" xMin="259" yMin="0" xMax="1045" yMax="1474">
      <component glyphName="dieresis" x="-47" y="331" flags="0x1004"/>
      <component glyphName="I" x="0" y="0" flags="0x1204"/>
    </TTGlyph>
    <TTGlyph name="Idotaccent" xMin="259" yMin="0" xMax="1045" yMax="1474">
      <component glyphName="uni0307" x="8" y="661" flags="0x1004"/>
      <component glyphName="I" x="0" y="0" flags="0x1204"/>
    </TTGlyph>
    <TTGlyph name="Igrave" xMin="259" yMin="0" xMax="1045" yMax="1652">
      <component glyphName="grave" x="444" y="375" flags="0x1004"/>
      <component glyphName="I" x="0" y="0" flags="0x1204"/>
    </TTGlyph>
    <TTGlyph name="Imacron" xMin="259" yMin="0" xMax="1045" yMax="1436">
      <component glyphName="macron" x="-48" y="317" flags="0x1004"/>
      <component glyphName="I" x="0" y="0" flags="0x1204"/>
    </TTGlyph>
    <TTGlyph name="Iogonek" xMin="259" yMin="-413" xMax="1045" yMax="1171">
      <component glyphName="ogonek" x="-46" y="-6" flags="0x1004"/>
      <component glyphName="I" x="0" y="0" flags="0x1204"/>
    </TTGlyph>
    <TTGlyph name="Itilde" xMin="259" yMin="0" xMax="1045" yMax="1528">
      <component glyphName="tilde" x="-8" y="373" flags="0x1004"/>
      <component glyphName="I" x="0" y="0" flags="0x1204"/>
    </TTGlyph>
    <TTGlyph name="J" xMin="138" yMin="-13" xMax="1075" yMax="1171">
      <contour>
        <pt x="855" y="317" on="1"/>
        <pt x="855" y="249" on="0"/>
        <pt x="808" y="138" on="0"/>
        <pt x="729" y="62" on="0"/>
        <pt x="624" y="10" on="0"/>
        <pt x="511" y="-13" on="0"/>
        <pt x="451" y="-13" on="1"/>
        <pt x="323" y="-13" on="0"/>
        <pt x="138" y="88" on="0"/>
        <pt x="138" y="171" on="1"/>
        <pt x="138" y="283" on="1"/>
        <pt x="138" y="304" on="0"/>
        <pt x="168" y="328" on="0"/>
        <pt x="206" y="328" on="0"/>
        <pt x="234" y="304" on="0"/>
        <pt x="234" y="283" on="1"/>
        <pt x="234" y="182" on="1"/>
        <pt x="234" y="132" on="0"/>
        <pt x="369" y="68" on="0"/>
        <pt x="460" y="68" on="1"/>
        <pt x="516" y="68" on="0"/>
        <pt x="618" y="95" on="0"/>
        <pt x="706" y="151" on="0"/>
        <pt x="759" y="250" on="0"/>
        <pt x="759" y="314" on="1"/>
        <pt x="759" y="1085" on="1"/>
        <pt x="409" y="1085" on="1"/>
        <pt x="386" y="1085" on="0"/>
        <pt x="361" y="1110" on="0"/>
        <pt x="361" y="1127" on="1"/>
        <pt x="361" y="1145" on="0"/>
        <pt x="387" y="1171" on="0"/>
        <pt x="410" y="1171" on="1"/>
        <pt x="1025" y="1171" on="1"/>
        <pt x="1049" y="1171" on="0"/>
        <pt x="1075" y="1146" on="0"/>
        <pt x="1075" y="1128" on="1"/>
        <pt x="1075" y="1111" on="0"/>
        <pt x="1049" y="1085" on="0"/>
        <pt x="1026" y="1085" on="1"/>
        <pt x="855" y="1085" on="1"/>
      </contour>
    </TTGlyph>
    <TTGlyph name="Jcircumflex" xMin="138" yMin="-13" xMax="1075" yMax="1691">
      <component glyphName="circumflex" x="-93" y="371" flags="0x1004"/>
      <component glyphName="J" x="0" y="0" flags="0x1204"/>
    </TTGlyph>
    <TTGlyph name="K" xMin="33" yMin="0" xMax="1307" yMax="1171">
      <contour>
        <pt x="84" y="0" on="1"/>
        <pt x="60" y="0" on="0"/>
        <pt x="33" y="25" on="0"/>
        <pt x="33" y="43" on="1"/>
        <pt x="33" y="60" on="0"/>
        <pt x="60" y="86" on="0"/>
        <pt x="83" y="86" on="1"/>
        <pt x="242" y="86" on="1"/>
        <pt x="242" y="1084" on="1"/>
        <pt x="83" y="1084" on="1"/>
        <pt x="59" y="1084" on="0"/>
        <pt x="33" y="1109" on="0"/>
        <pt x="33" y="1145" on="0"/>
        <pt x="60" y="1171" on="0"/>
        <pt x="84" y="1171" on="1"/>
        <pt x="529" y="1171" on="1"/>
        <pt x="552" y="1171" on="0"/>
        <pt x="579" y="1144" on="0"/>
        <pt x="579" y="1126" on="1"/>
        <pt x="579" y="1109" on="0"/>
        <pt x="554" y="1084" on="0"/>
        <pt x="531" y="1084" on="1"/>
        <pt x="338" y="1084" on="1"/>
        <pt x="338" y="558" on="1"/>
        <pt x="914" y="1078" on="1"/>
        <pt x="921" y="1085" on="0"/>
        <pt x="921" y="1088" on="1"/>
        <pt x="921" y="1094" on="0"/>
        <pt x="902" y="1094" on="1"/>
        <pt x="813" y="1094" on="1"/>
        <pt x="790" y="1094" on="0"/>
        <pt x="764" y="1116" on="0"/>
        <pt x="764" y="1131" on="1"/>
        <pt x="764" y="1147" on="0"/>
        <pt x="791" y="1171" on="0"/>
        <pt x="814" y="1171" on="1"/>
        <pt x="1176" y="1171" on="1"/>
        <pt x="1199" y="1171" on="0"/>
        <pt x="1225" y="1145" on="0"/>
        <pt x="1225" y="1109" on="0"/>
        <pt x="1200" y="1084" on="0"/>
        <pt x="1177" y="1084" on="1"/>
        <pt x="1039" y="1084" on="1"/>
        <pt x="601" y="676" on="1"/>
        <pt x="1122" y="86" on="1"/>
        <pt x="1259" y="86" on="1"/>
        <pt x="1282" y="86" on="0"/>
        <pt x="1307" y="60" on="0"/>
        <pt x="1307" y="43" on="1"/>
        <pt x="1307" y="25" on="0"/>
        <pt x="1281" y="0" on="0"/>
        <pt x="1258" y="0" on="1"/>
        <pt x="840" y="0" on="1"/>
        <pt x="816" y="0" on="0"/>
        <pt x="790" y="25" on="0"/>
        <pt x="790" y="43" on="1"/>
        <pt x="790" y="60" on="0"/>
        <pt x="816" y="86" on="0"/>
        <pt x="839" y="86" on="1"/>
        <pt x="1005" y="86" on="1"/>
        <pt x="527" y="621" on="1"/>
        <pt x="342" y="465" on="1"/>
        <pt x="342" y="86" on="1"/>
        <pt x="586" y="86" on="1"/>
        <pt x="609" y="86" on="0"/>
        <pt x="635" y="60" on="0"/>
        <pt x="635" y="43" on="1"/>
        <pt x="635" y="25" on="0"/>
        <pt x="609" y="0" on="0"/>
        <pt x="585" y="0" on="1"/>
      </contour>
    </TTGlyph>
    <TTGlyph name="Kcommaaccent" xMin="33" yMin="-541" xMax="1307" yMax="1171">
      <component glyphName="uni0326" x="20" y="-331" flags="0x1004"/>
      <component glyphName="K" x="0" y="0" flags="0x1204"/>
    </TTGlyph>
    <TTGlyph name="L" xMin="74" yMin="0" xMax="1122" yMax="1171">
      <contour>
        <pt x="640" y="1171" on="1"/>
        <pt x="664" y="1171" on="0"/>
        <pt x="691" y="1145" on="0"/>
        <pt x="691" y="1127" on="1"/>
        <pt x="691" y="1110" on="0"/>
        <pt x="664" y="1085" on="0"/>
        <pt x="641" y="1085" on="1"/>
        <pt x="489" y="1085" on="1"/>
        <pt x="489" y="86" on="1"/>
        <pt x="946" y="86" on="1"/>
        <pt x="959" y="87" on="0"/>
        <pt x="973" y="92" on="0"/>
        <pt x="986" y="108" on="0"/>
        <pt x="987" y="123" on="1"/>
        <pt x="1021" y="399" on="1"/>
        <pt x="1024" y="420" on="0"/>
        <pt x="1052" y="442" on="0"/>
        <pt x="1071" y="442" on="1"/>
        <pt x="1092" y="442" on="0"/>
        <pt x="1122" y="416" on="0"/>
        <pt x="1122" y="393" on="1"/>
        <pt x="1122" y="387" on="1"/>
        <pt x="1092" y="66" on="1"/>
        <pt x="1088" y="37" on="0"/>
        <pt x="1051" y="0" on="0"/>
        <pt x="1020" y="0" on="1"/>
        <pt x="125" y="0" on="1"/>
        <pt x="101" y="0" on="0"/>
        <pt x="74" y="25" on="0"/>
        <pt x="74" y="43" on="1"/>
        <pt x="74" y="60" on="0"/>
        <pt x="101" y="86" on="0"/>
        <pt x="124" y="86" on="1"/>
        <pt x="393" y="86" on="1"/>
        <pt x="393" y="1085" on="1"/>
        <pt x="166" y="1085" on="1"/>
        <pt x="143" y="1085" on="0"/>
        <pt x="117" y="1110" on="0"/>
        <pt x="117" y="1127" on="1"/>
        <pt x="117" y="1145" on="0"/>
        <pt x="144" y="1171" on="0"/>
        <pt x="167" y="1171" on="1"/>
      </contour>
    </TTGlyph>
    <TTGlyph name="Lacute" xMin="74" yMin="0" xMax="1122" yMax="1677">
      <component glyphName="acute" x="-89" y="372" flags="0x1004"/>
      <component glyphName="L" x="0" y="0" flags="0x1204"/>
    </TTGlyph>
    <TTGlyph name="Lcaron" xMin="74" yMin="0" xMax="1589" yMax="1187">
      <component glyphName="comma" x="861" y="1007" flags="0x1004"/>
      <component glyphName="L" x="0" y="0" flags="0x1004"/>
    </TTGlyph>
    <TTGlyph name="Lcommaaccent" xMin="74" yMin="-541" xMax="1122" yMax="1171">
      <component glyphName="uni0326" x="-52" y="-331" flags="0x1004"/>
      <component glyphName="L" x="0" y="0" flags="0x1204"/>
    </TTGlyph>
    <TTGlyph name="Ldot" xMin="74" yMin="0" xMax="1122" yMax="1171">
      <component glyphName="periodcentered" x="122" y="96" flags="0x1004"/>
      <component glyphName="L" x="0" y="0" flags="0x1204"/>
    </TTGlyph>
    <TTGlyph name="Lslash" xMin="74" yMin="0" xMax="1122" yMax="1171">
      <contour>
        <pt x="640" y="1171" on="1"/>
        <pt x="664" y="1171" on="0"/>
        <pt x="691" y="1145" on="0"/>
        <pt x="691" y="1127" on="1"/>
        <pt x="691" y="1110" on="0"/>
        <pt x="664" y="1085" on="0"/>
        <pt x="641" y="1085" on="1"/>
        <pt x="489" y="1085" on="1"/>
        <pt x="489" y="699" on="1"/>
        <pt x="758" y="765" on="1"/>
        <pt x="768" y="768" on="0"/>
        <pt x="777" y="768" on="1"/>
        <pt x="796" y="768" on="0"/>
        <pt x="818" y="743" on="0"/>
        <pt x="818" y="722" on="1"/>
        <pt x="818" y="695" on="0"/>
        <pt x="780" y="685" on="1"/>
        <pt x="489" y="612" on="1"/>
        <pt x="489" y="86" on="1"/>
        <pt x="946" y="86" on="1"/>
        <pt x="959" y="87" on="0"/>
        <pt x="973" y="92" on="0"/>
        <pt x="986" y="108" on="0"/>
        <pt x="987" y="123" on="1"/>
        <pt x="1021" y="399" on="1"/>
        <pt x="1024" y="420" on="0"/>
        <pt x="1052" y="442" on="0"/>
        <pt x="1071" y="442" on="1"/>
        <pt x="1092" y="442" on="0"/>
        <pt x="1122" y="416" on="0"/>
        <pt x="1122" y="393" on="1"/>
        <pt x="1122" y="387" on="1"/>
        <pt x="1092" y="66" on="1"/>
        <pt x="1088" y="37" on="0"/>
        <pt x="1051" y="0" on="0"/>
        <pt x="1020" y="0" on="1"/>
        <pt x="125" y="0" on="1"/>
        <pt x="101" y="0" on="0"/>
        <pt x="74" y="25" on="0"/>
        <pt x="74" y="43" on="1"/>
        <pt x="74" y="60" on="0"/>
        <pt x="101" y="86" on="0"/>
        <pt x="124" y="86" on="1"/>
        <pt x="393" y="86" on="1"/>
        <pt x="393" y="588" on="1"/>
        <pt x="245" y="551" on="1"/>
        <pt x="233" y="548" on="0"/>
        <pt x="223" y="548" on="1"/>
        <pt x="204" y="548" on="0"/>
        <pt x="183" y="573" on="0"/>
        <pt x="183" y="594" on="1"/>
        <pt x="183" y="624" on="0"/>
        <pt x="223" y="634" on="1"/>
        <pt x="393" y="676" on="1"/>
        <pt x="393" y="1085" on="1"/>
        <pt x="166" y="1085" on="1"/>
        <pt x="143" y="1085" on="0"/>
        <pt x="117" y="1110" on="0"/>
        <pt x="117" y="1127" on="1"/>
        <pt x="117" y="1145" on="0"/>
        <pt x="144" y="1171" on="0"/>
        <pt x="167" y="1171" on="1"/>
      </contour>
    </TTGlyph>
    <TTGlyph name="M" xMin="20" yMin="0" xMax="1220" yMax="1171">
      <contour>
        <pt x="817" y="0" on="1"/>
        <pt x="793" y="0" on="0"/>
        <pt x="766" y="26" on="0"/>
        <pt x="766" y="44" on="1"/>
        <pt x="766" y="61" on="0"/>
        <pt x="792" y="86" on="0"/>
        <pt x="815" y="86" on="1"/>
        <pt x="948" y="86" on="1"/>
        <pt x="948" y="982" on="1"/>
        <pt x="691" y="390" on="1"/>
        <pt x="670" y="342" on="0"/>
        <pt x="625" y="342" on="1"/>
        <pt x="584" y="342" on="0"/>
        <pt x="565" y="385" on="1"/>
        <pt x="298" y="978" on="1"/>
        <pt x="298" y="86" on="1"/>
        <pt x="418" y="86" on="1"/>
        <pt x="442" y="86" on="0"/>
        <pt x="468" y="61" on="0"/>
        <pt x="468" y="44" on="1"/>
        <pt x="468" y="26" on="0"/>
        <pt x="441" y="0" on="0"/>
        <pt x="417" y="0" on="1"/>
        <pt x="70" y="0" on="1"/>
        <pt x="46" y="0" on="0"/>
        <pt x="20" y="25" on="0"/>
        <pt x="20" y="43" on="1"/>
        <pt x="20" y="60" on="0"/>
        <pt x="46" y="86" on="0"/>
        <pt x="69" y="86" on="1"/>
        <pt x="202" y="86" on="1"/>
        <pt x="202" y="1085" on="1"/>
        <pt x="83" y="1085" on="1"/>
        <pt x="60" y="1085" on="0"/>
        <pt x="34" y="1110" on="0"/>
        <pt x="34" y="1127" on="1"/>
        <pt x="34" y="1145" on="0"/>
        <pt x="61" y="1171" on="0"/>
        <pt x="84" y="1171" on="1"/>
        <pt x="282" y="1171" on="1"/>
        <pt x="312" y="1171" on="0"/>
        <pt x="328" y="1136" on="1"/>
        <pt x="629" y="473" on="1"/>
        <pt x="919" y="1141" on="1"/>
        <pt x="931" y="1171" on="0"/>
        <pt x="964" y="1171" on="1"/>
        <pt x="1156" y="1171" on="1"/>
        <pt x="1180" y="1171" on="0"/>
        <pt x="1207" y="1145" on="0"/>
        <pt x="1207" y="1127" on="1"/>
        <pt x="1207" y="1110" on="0"/>
        <pt x="1180" y="1085" on="0"/>
        <pt x="1157" y="1085" on="1"/>
        <pt x="1044" y="1085" on="1"/>
        <pt x="1044" y="86" on="1"/>
        <pt x="1172" y="86" on="1"/>
        <pt x="1195" y="86" on="0"/>
        <pt x="1220" y="61" on="0"/>
        <pt x="1220" y="44" on="1"/>
        <pt x="1220" y="26" on="0"/>
        <pt x="1193" y="0" on="0"/>
        <pt x="1170" y="0" on="1"/>
      </contour>
    </TTGlyph>
    <TTGlyph name="N" xMin="80" yMin="-16" xMax="1183" yMax="1171">
      <contour>
        <pt x="129" y="1085" on="1"/>
        <pt x="106" y="1085" on="0"/>
        <pt x="80" y="1110" on="0"/>
        <pt x="80" y="1127" on="1"/>
        <pt x="80" y="1145" on="0"/>
        <pt x="107" y="1171" on="0"/>
        <pt x="130" y="1171" on="1"/>
        <pt x="417" y="1171" on="1"/>
        <pt x="445" y="1171" on="0"/>
        <pt x="457" y="1147" on="1"/>
        <pt x="943" y="194" on="1"/>
        <pt x="943" y="1085" on="1"/>
        <pt x="794" y="1085" on="1"/>
        <pt x="771" y="1085" on="0"/>
        <pt x="745" y="1110" on="0"/>
        <pt x="745" y="1127" on="1"/>
        <pt x="745" y="1145" on="0"/>
        <pt x="772" y="1171" on="0"/>
        <pt x="796" y="1171" on="1"/>
        <pt x="1133" y="1171" on="1"/>
        <pt x="1156" y="1171" on="0"/>
        <pt x="1183" y="1145" on="0"/>
        <pt x="1183" y="1127" on="1"/>
        <pt x="1183" y="1110" on="0"/>
        <pt x="1158" y="1085" on="0"/>
        <pt x="1135" y="1085" on="1"/>
        <pt x="1039" y="1085" on="1"/>
        <pt x="1039" y="47" on="1"/>
        <pt x="1039" y="16" on="0"/>
        <pt x="1011" y="-16" on="0"/>
        <pt x="990" y="-16" on="1"/>
        <pt x="954" y="-16" on="0"/>
        <pt x="934" y="22" on="1"/>
        <pt x="381" y="1084" on="1"/>
        <pt x="381" y="86" on="1"/>
        <pt x="519" y="86" on="1"/>
        <pt x="542" y="86" on="0"/>
        <pt x="568" y="60" on="0"/>
        <pt x="568" y="43" on="1"/>
        <pt x="568" y="25" on="0"/>
        <pt x="542" y="0" on="0"/>
        <pt x="518" y="0" on="1"/>
        <pt x="160" y="0" on="1"/>
        <pt x="136" y="0" on="0"/>
        <pt x="110" y="25" on="0"/>
        <pt x="110" y="43" on="1"/>
        <pt x="110" y="60" on="0"/>
        <pt x="136" y="86" on="0"/>
        <pt x="159" y="86" on="1"/>
        <pt x="285" y="86" on="1"/>
        <pt x="285" y="1085" on="1"/>
      </contour>
    </TTGlyph>
    <TTGlyph name="Nacute" xMin="80" yMin="-16" xMax="1183" yMax="1677">
      <component glyphName="acute" x="-55" y="372" flags="0x1004"/>
      <component glyphName="N" x="0" y="0" flags="0x1204"/>
    </TTGlyph>
    <TTGlyph name="Ncaron" xMin="80" yMin="-16" xMax="1183" yMax="1691">
      <component glyphName="caron" x="-68" y="371" flags="0x1004"/>
      <component glyphName="N" x="0" y="0" flags="0x1204"/>
    </TTGlyph>
    <TTGlyph name="Ncommaaccent" xMin="80" yMin="-557" xMax="1183" yMax="1171">
      <component glyphName="uni0326" x="-18" y="-347" flags="0x1004"/>
      <component glyphName="N" x="0" y="0" flags="0x1204"/>
    </TTGlyph>
    <TTGlyph name="Ntilde" xMin="80" yMin="-16" xMax="1183" yMax="1528">
      <component glyphName="tilde" x="-29" y="373" flags="0x1004"/>
      <component glyphName="N" x="0" y="0" flags="0x1204"/>
    </TTGlyph>
    <TTGlyph name="O" xMin="108" yMin="-17" xMax="1132" yMax="1187">
      <contour>
        <pt x="700" y="1101" on="0"/>
        <pt x="540" y="1101" on="0"/>
        <pt x="402" y="1043" on="0"/>
        <pt x="306" y="943" on="0"/>
        <pt x="237" y="811" on="0"/>
        <pt x="204" y="661" on="0"/>
        <pt x="204" y="582" on="1"/>
        <pt x="204" y="484" on="0"/>
        <pt x="257" y="303" on="0"/>
        <pt x="356" y="157" on="0"/>
        <pt x="519" y="69" on="0"/>
        <pt x="721" y="69" on="0"/>
        <pt x="884" y="157" on="0"/>
        <pt x="983" y="303" on="0"/>
        <pt x="1036" y="484" on="0"/>
        <pt x="1036" y="582" on="1"/>
        <pt x="1036" y="661" on="0"/>
        <pt x="1003" y="811" on="0"/>
        <pt x="934" y="943" on="0"/>
        <pt x="838" y="1043" on="0"/>
      </contour>
      <contour>
        <pt x="743" y="-17" on="0"/>
        <pt x="497" y="-17" on="0"/>
        <pt x="297" y="85" on="0"/>
        <pt x="174" y="255" on="0"/>
        <pt x="108" y="467" on="0"/>
        <pt x="108" y="697" on="0"/>
        <pt x="174" y="911" on="0"/>
        <pt x="297" y="1083" on="0"/>
        <pt x="497" y="1187" on="0"/>
        <pt x="743" y="1187" on="0"/>
        <pt x="943" y="1083" on="0"/>
        <pt x="1066" y="911" on="0"/>
        <pt x="1132" y="697" on="0"/>
        <pt x="1132" y="467" on="0"/>
        <pt x="1066" y="255" on="0"/>
        <pt x="943" y="85" on="0"/>
      </contour>
    </TTGlyph>
    <TTGlyph name="OE" xMin="118" yMin="0" xMax="1114" yMax="1172">
      <contour>
        <pt x="214" y="582" on="1"/>
        <pt x="214" y="465" on="0"/>
        <pt x="273" y="272" on="0"/>
        <pt x="372" y="149" on="0"/>
        <pt x="495" y="82" on="0"/>
        <pt x="561" y="82" on="1"/>
        <pt x="579" y="82" on="1"/>
        <pt x="579" y="1084" on="1"/>
        <pt x="564" y="1084" on="1"/>
        <pt x="497" y="1084" on="0"/>
        <pt x="373" y="1019" on="0"/>
        <pt x="274" y="897" on="0"/>
        <pt x="214" y="702" on="0"/>
      </contour>
      <contour>
        <pt x="924" y="437" on="1"/>
        <pt x="924" y="412" on="0"/>
        <pt x="902" y="386" on="0"/>
        <pt x="886" y="386" on="1"/>
        <pt x="871" y="386" on="0"/>
        <pt x="847" y="409" on="0"/>
        <pt x="846" y="429" on="1"/>
        <pt x="833" y="577" on="1"/>
        <pt x="677" y="577" on="1"/>
        <pt x="677" y="85" on="1"/>
        <pt x="1012" y="85" on="1"/>
        <pt x="1028" y="336" on="1"/>
        <pt x="1029" y="353" on="0"/>
        <pt x="1055" y="375" on="0"/>
        <pt x="1089" y="375" on="0"/>
        <pt x="1114" y="348" on="0"/>
        <pt x="1114" y="323" on="1"/>
        <pt x="1114" y="53" on="1"/>
        <pt x="1114" y="28" on="0"/>
        <pt x="1083" y="0" on="0"/>
        <pt x="1058" y="0" on="1"/>
        <pt x="564" y="0" on="1"/>
        <pt x="563" y="0" on="1"/>
        <pt x="478" y="0" on="0"/>
        <pt x="320" y="76" on="0"/>
        <pt x="194" y="218" on="0"/>
        <pt x="118" y="444" on="0"/>
        <pt x="118" y="582" on="1"/>
        <pt x="118" y="721" on="0"/>
        <pt x="195" y="949" on="0"/>
        <pt x="322" y="1094" on="0"/>
        <pt x="481" y="1172" on="0"/>
        <pt x="566" y="1172" on="1"/>
        <pt x="646" y="1172" on="0"/>
        <pt x="966" y="1171" on="0"/>
        <pt x="1046" y="1171" on="1"/>
        <pt x="1071" y="1171" on="0"/>
        <pt x="1102" y="1142" on="0"/>
        <pt x="1102" y="1117" on="1"/>
        <pt x="1102" y="847" on="1"/>
        <pt x="1102" y="826" on="0"/>
        <pt x="1078" y="803" on="0"/>
        <pt x="1046" y="803" on="0"/>
        <pt x="1021" y="823" on="0"/>
        <pt x="1020" y="841" on="1"/>
        <pt x="1006" y="1084" on="1"/>
        <pt x="677" y="1084" on="1"/>
        <pt x="677" y="654" on="1"/>
        <pt x="833" y="654" on="1"/>
        <pt x="846" y="787" on="1"/>
        <pt x="848" y="808" on="0"/>
        <pt x="871" y="832" on="0"/>
        <pt x="886" y="832" on="1"/>
        <pt x="902" y="832" on="0"/>
        <pt x="924" y="805" on="0"/>
        <pt x="924" y="779" on="1"/>
      </contour>
    </TTGlyph>
    <TTGlyph name="Oacute" xMin="108" yMin="-17" xMax="1132" yMax="1677">
      <component glyphName="acute" x="-67" y="372" flags="0x1004"/>
      <component glyphName="O" x="0" y="0" flags="0x1204"/>
    </TTGlyph>
    <TTGlyph name="Obreve" xMin="108" yMin="-17" xMax="1132" yMax="1528">
      <component glyphName="breve" x="-77" y="380" flags="0x1004"/>
      <component glyphName="O" x="0" y="0" flags="0x1204"/>
    </TTGlyph>
    <TTGlyph name="Ocircumflex" xMin="108" yMin="-17" xMax="1132" yMax="1691">
      <component glyphName="circumflex" x="-80" y="371" flags="0x1004"/>
      <component glyphName="O" x="0" y="0" flags="0x1204"/>
    </TTGlyph>
    <TTGlyph name="Odieresis" xMin="108" yMin="-17" xMax="1132" yMax="1515">
      <component glyphName="dieresis" x="-80" y="372" flags="0x1004"/>
      <component glyphName="O" x="0" y="0" flags="0x1204"/>
    </TTGlyph>
    <TTGlyph name="Ograve" xMin="108" yMin="-17" xMax="1132" yMax="1652">
      <component glyphName="grave" x="412" y="375" flags="0x1004"/>
      <component glyphName="O" x="0" y="0" flags="0x1204"/>
    </TTGlyph>
    <TTGlyph name="Ohungarumlaut" xMin="108" yMin="-17" xMax="1132" yMax="1697">
      <component glyphName="hungarumlaut" x="0" y="444" flags="0x1004"/>
      <component glyphName="O" x="0" y="0" flags="0x1204"/>
    </TTGlyph>
    <TTGlyph name="Omacron" xMin="108" yMin="-17" xMax="1132" yMax="1436">
      <component glyphName="macron" x="-80" y="317" flags="0x1004"/>
      <component glyphName="O" x="0" y="0" flags="0x1204"/>
    </TTGlyph>
    <TTGlyph name="Oslash" xMin="108" yMin="-192" xMax="1132" yMax="1321">
      <contour>
        <pt x="700" y="1101" on="0"/>
        <pt x="540" y="1101" on="0"/>
        <pt x="402" y="1043" on="0"/>
        <pt x="306" y="943" on="0"/>
        <pt x="237" y="811" on="0"/>
        <pt x="204" y="661" on="0"/>
        <pt x="204" y="582" on="1"/>
        <pt x="204" y="484" on="0"/>
        <pt x="230" y="394" on="1"/>
        <pt x="256" y="303" on="0"/>
        <pt x="306" y="230" on="1"/>
        <pt x="337" y="184" on="0"/>
        <pt x="381" y="150" on="1"/>
        <pt x="835" y="1037" on="1"/>
        <pt x="805" y="1058" on="0"/>
        <pt x="769" y="1072" on="1"/>
      </contour>
      <contour>
        <pt x="295" y="-172" on="1"/>
        <pt x="286" y="-192" on="0"/>
        <pt x="265" y="-192" on="1"/>
        <pt x="250" y="-192" on="0"/>
        <pt x="226" y="-171" on="0"/>
        <pt x="226" y="-158" on="1"/>
        <pt x="226" y="-152" on="0"/>
        <pt x="229" y="-146" on="1"/>
        <pt x="339" y="69" on="1"/>
        <pt x="278" y="112" on="0"/>
        <pt x="236" y="170" on="1"/>
        <pt x="174" y="255" on="0"/>
        <pt x="108" y="467" on="0"/>
        <pt x="108" y="697" on="0"/>
        <pt x="174" y="911" on="0"/>
        <pt x="297" y="1083" on="0"/>
        <pt x="497" y="1187" on="0"/>
        <pt x="743" y="1187" on="0"/>
        <pt x="843" y="1135" on="1"/>
        <pt x="860" y="1126" on="0"/>
        <pt x="876" y="1117" on="1"/>
        <pt x="972" y="1305" on="1"/>
        <pt x="981" y="1321" on="0"/>
        <pt x="999" y="1321" on="1"/>
        <pt x="1013" y="1321" on="0"/>
        <pt x="1037" y="1303" on="0"/>
        <pt x="1037" y="1289" on="1"/>
        <pt x="1037" y="1281" on="0"/>
        <pt x="1033" y="1274" on="1"/>
        <pt x="932" y="1076" on="1"/>
        <pt x="972" y="1041" on="0"/>
        <pt x="1004" y="997" on="1"/>
        <pt x="1066" y="911" on="0"/>
        <pt x="1132" y="697" on="0"/>
        <pt x="1132" y="467" on="0"/>
        <pt x="1066" y="255" on="0"/>
        <pt x="943" y="85" on="0"/>
        <pt x="743" y="-17" on="0"/>
        <pt x="620" y="-17" on="1"/>
        <pt x="499" y="-17" on="0"/>
        <pt x="399" y="33" on="1"/>
      </contour>
      <contour>
        <pt x="440" y="112" on="1"/>
        <pt x="521" y="69" on="0"/>
        <pt x="620" y="69" on="1"/>
        <pt x="721" y="69" on="0"/>
        <pt x="884" y="157" on="0"/>
        <pt x="983" y="303" on="0"/>
        <pt x="1036" y="484" on="0"/>
        <pt x="1036" y="582" on="1"/>
        <pt x="1036" y="661" on="0"/>
        <pt x="1020" y="736" on="1"/>
        <pt x="1002" y="811" on="0"/>
        <pt x="968" y="877" on="1"/>
        <pt x="934" y="941" on="0"/>
        <pt x="888" y="991" on="1"/>
      </contour>
    </TTGlyph>
    <TTGlyph name="Otilde" xMin="108" yMin="-17" xMax="1132" yMax="1528">
      <component glyphName="tilde" x="-40" y="373" flags="0x1004"/>
      <component glyphName="O" x="0" y="0" flags="0x1204"/>
    </TTGlyph>
    <TTGlyph name="P" xMin="123" yMin="0" xMax="1068" yMax="1171">
      <contour>
        <pt x="972" y="843" on="1"/>
        <pt x="972" y="901" on="0"/>
        <pt x="940" y="988" on="0"/>
        <pt x="868" y="1039" on="0"/>
        <pt x="802" y="1070" on="0"/>
        <pt x="685" y="1082" on="0"/>
        <pt x="616" y="1085" on="0"/>
        <pt x="552" y="1085" on="1"/>
        <pt x="442" y="1085" on="1"/>
        <pt x="442" y="607" on="1"/>
        <pt x="594" y="607" on="1"/>
        <pt x="644" y="607" on="0"/>
        <pt x="709" y="609" on="0"/>
        <pt x="797" y="619" on="0"/>
        <pt x="853" y="638" on="0"/>
        <pt x="914" y="672" on="0"/>
        <pt x="949" y="722" on="0"/>
        <pt x="972" y="796" on="0"/>
      </contour>
      <contour>
        <pt x="1068" y="847" on="1"/>
        <pt x="1068" y="797" on="0"/>
        <pt x="1049" y="714" on="0"/>
        <pt x="1018" y="652" on="0"/>
        <pt x="966" y="603" on="0"/>
        <pt x="914" y="571" on="0"/>
        <pt x="837" y="548" on="0"/>
        <pt x="772" y="535" on="0"/>
        <pt x="679" y="529" on="0"/>
        <pt x="609" y="527" on="0"/>
        <pt x="558" y="527" on="1"/>
        <pt x="442" y="527" on="1"/>
        <pt x="442" y="86" on="1"/>
        <pt x="771" y="86" on="1"/>
        <pt x="794" y="86" on="0"/>
        <pt x="820" y="60" on="0"/>
        <pt x="820" y="43" on="1"/>
        <pt x="820" y="25" on="0"/>
        <pt x="794" y="0" on="0"/>
        <pt x="770" y="0" on="1"/>
        <pt x="174" y="0" on="1"/>
        <pt x="150" y="0" on="0"/>
        <pt x="123" y="25" on="0"/>
        <pt x="123" y="43" on="1"/>
        <pt x="123" y="60" on="0"/>
        <pt x="150" y="86" on="0"/>
        <pt x="173" y="86" on="1"/>
        <pt x="346" y="86" on="1"/>
        <pt x="346" y="1085" on="1"/>
        <pt x="187" y="1085" on="1"/>
        <pt x="164" y="1085" on="0"/>
        <pt x="138" y="1110" on="0"/>
        <pt x="138" y="1127" on="1"/>
        <pt x="138" y="1145" on="0"/>
        <pt x="165" y="1171" on="0"/>
        <pt x="188" y="1171" on="1"/>
        <pt x="532" y="1171" on="1"/>
        <pt x="600" y="1171" on="0"/>
        <pt x="695" y="1168" on="0"/>
        <pt x="816" y="1153" on="0"/>
        <pt x="898" y="1127" on="0"/>
        <pt x="984" y="1079" on="0"/>
        <pt x="1035" y="1012" on="0"/>
        <pt x="1068" y="911" on="0"/>
      </contour>
    </TTGlyph>
    <TTGlyph name="Q" xMin="108" yMin="-246" xMax="1132" yMax="1187">
      <contour>
        <pt x="700" y="1101" on="0"/>
        <pt x="540" y="1101" on="0"/>
        <pt x="402" y="1043" on="0"/>
        <pt x="306" y="943" on="0"/>
        <pt x="237" y="811" on="0"/>
        <pt x="204" y="661" on="0"/>
        <pt x="204" y="582" on="1"/>
        <pt x="204" y="484" on="0"/>
        <pt x="257" y="303" on="0"/>
        <pt x="356" y="157" on="0"/>
        <pt x="519" y="69" on="0"/>
        <pt x="721" y="69" on="0"/>
        <pt x="884" y="157" on="0"/>
        <pt x="983" y="303" on="0"/>
        <pt x="1036" y="484" on="0"/>
        <pt x="1036" y="582" on="1"/>
        <pt x="1036" y="661" on="0"/>
        <pt x="1003" y="811" on="0"/>
        <pt x="934" y="943" on="0"/>
        <pt x="838" y="1043" on="0"/>
      </contour>
      <contour>
        <pt x="636" y="-17" on="1"/>
        <pt x="617" y="3" on="1"/>
        <pt x="504" y="-2" on="1"/>
        <pt x="505" y="-3" on="1"/>
        <pt x="506" y="-4" on="0"/>
        <pt x="506" y="-5" on="1"/>
        <pt x="378" y="23" on="0"/>
        <pt x="194" y="204" on="0"/>
        <pt x="108" y="445" on="0"/>
        <pt x="108" y="582" on="1"/>
        <pt x="108" y="697" on="0"/>
        <pt x="174" y="911" on="0"/>
        <pt x="297" y="1083" on="0"/>
        <pt x="497" y="1187" on="0"/>
        <pt x="743" y="1187" on="0"/>
        <pt x="943" y="1083" on="0"/>
        <pt x="1066" y="911" on="0"/>
        <pt x="1132" y="697" on="0"/>
        <pt x="1132" y="582" on="1"/>
        <pt x="1132" y="492" on="0"/>
        <pt x="1093" y="322" on="0"/>
        <pt x="1012" y="170" on="0"/>
        <pt x="896" y="55" on="0"/>
        <pt x="732" y="-14" on="0"/>
      </contour>
      <contour>
        <pt x="636" y="-17" on="1"/>
        <pt x="722" y="-108" on="1"/>
        <pt x="771" y="-162" on="0"/>
        <pt x="836" y="-162" on="1"/>
        <pt x="908" y="-162" on="0"/>
        <pt x="1008" y="-95" on="1"/>
        <pt x="1021" y="-86" on="0"/>
        <pt x="1053" y="-86" on="0"/>
        <pt x="1077" y="-113" on="0"/>
        <pt x="1077" y="-130" on="1"/>
        <pt x="1077" y="-155" on="0"/>
        <pt x="1054" y="-169" on="1"/>
        <pt x="1018" y="-203" on="0"/>
        <pt x="894" y="-246" on="0"/>
        <pt x="854" y="-246" on="1"/>
        <pt x="798" y="-246" on="0"/>
        <pt x="717" y="-224" on="0"/>
        <pt x="639" y="-162" on="0"/>
        <pt x="576" y="-92" on="0"/>
        <pt x="521" y="-24" on="1"/>
        <pt x="511" y="-11" on="0"/>
        <pt x="506" y="-5" on="1"/>
        <pt x="558" y="-17" on="0"/>
        <pt x="620" y="-17" on="1"/>
      </contour>
    </TTGlyph>
    <TTGlyph name="R" xMin="158" yMin="0" xMax="1193" yMax="1171">
      <contour>
        <pt x="429" y="619" on="1"/>
        <pt x="536" y="619" on="1"/>
        <pt x="618" y="619" on="0"/>
        <pt x="733" y="628" on="0"/>
        <pt x="844" y="656" on="0"/>
        <pt x="911" y="705" on="0"/>
        <pt x="951" y="788" on="0"/>
        <pt x="951" y="846" on="1"/>
        <pt x="951" y="907" on="0"/>
        <pt x="921" y="991" on="0"/>
        <pt x="866" y="1045" on="0"/>
        <pt x="766" y="1074" on="0"/>
        <pt x="646" y="1085" on="0"/>
        <pt x="556" y="1085" on="1"/>
        <pt x="429" y="1085" on="1"/>
      </contour>
      <contour>
        <pt x="658" y="41" on="1"/>
        <pt x="658" y="25" on="0"/>
        <pt x="632" y="0" on="0"/>
        <pt x="608" y="0" on="1"/>
        <pt x="209" y="0" on="1"/>
        <pt x="185" y="0" on="0"/>
        <pt x="158" y="25" on="0"/>
        <pt x="158" y="41" on="1"/>
        <pt x="158" y="58" on="0"/>
        <pt x="184" y="82" on="0"/>
        <pt x="208" y="82" on="1"/>
        <pt x="333" y="82" on="1"/>
        <pt x="333" y="1085" on="1"/>
        <pt x="236" y="1085" on="1"/>
        <pt x="213" y="1085" on="0"/>
        <pt x="186" y="1110" on="0"/>
        <pt x="186" y="1127" on="1"/>
        <pt x="186" y="1145" on="0"/>
        <pt x="213" y="1171" on="0"/>
        <pt x="237" y="1171" on="1"/>
        <pt x="557" y="1171" on="1"/>
        <pt x="635" y="1171" on="0"/>
        <pt x="754" y="1161" on="0"/>
        <pt x="871" y="1137" on="0"/>
        <pt x="952" y="1090" on="0"/>
        <pt x="1016" y="1022" on="0"/>
        <pt x="1047" y="920" on="0"/>
        <pt x="1047" y="853" on="1"/>
        <pt x="1047" y="746" on="0"/>
        <pt x="930" y="611" on="0"/>
        <pt x="841" y="578" on="1"/>
        <pt x="1045" y="82" on="1"/>
        <pt x="1129" y="82" on="1"/>
        <pt x="1193" y="82" on="0"/>
        <pt x="1193" y="42" on="1"/>
        <pt x="1193" y="24" on="0"/>
        <pt x="1163" y="0" on="0"/>
        <pt x="1130" y="0" on="1"/>
        <pt x="895" y="0" on="1"/>
        <pt x="871" y="0" on="0"/>
        <pt x="844" y="25" on="0"/>
        <pt x="844" y="42" on="1"/>
        <pt x="844" y="58" on="0"/>
        <pt x="870" y="82" on="0"/>
        <pt x="893" y="82" on="1"/>
        <pt x="944" y="82" on="1"/>
        <pt x="764" y="556" on="1"/>
        <pt x="753" y="552" on="0"/>
        <pt x="639" y="542" on="0"/>
        <pt x="604" y="542" on="1"/>
        <pt x="429" y="542" on="1"/>
        <pt x="429" y="82" on="1"/>
        <pt x="609" y="82" on="1"/>
        <pt x="632" y="82" on="0"/>
        <pt x="658" y="58" on="0"/>
      </contour>
    </TTGlyph>
    <TTGlyph name="Racute" xMin="158" yMin="0" xMax="1193" yMax="1677">
      <component glyphName="acute" x="-11" y="372" flags="0x1004"/>
      <component glyphName="R" x="0" y="0" flags="0x1204"/>
    </TTGlyph>
    <TTGlyph name="Rcaron" xMin="158" yMin="0" xMax="1193" yMax="1691">
      <component glyphName="caron" x="-24" y="371" flags="0x1004"/>
      <component glyphName="R" x="0" y="0" flags="0x1204"/>
    </TTGlyph>
    <TTGlyph name="Rcommaaccent" xMin="158" yMin="-541" xMax="1193" yMax="1171">
      <component glyphName="uni0326" x="26" y="-331" flags="0x1004"/>
      <component glyphName="R" x="0" y="0" flags="0x1204"/>
    </TTGlyph>
    <TTGlyph name="S" xMin="268" yMin="-17" xMax="1057" yMax="1187">
      <contour>
        <pt x="650" y="1101" on="1"/>
        <pt x="522" y="1101" on="0"/>
        <pt x="378" y="986" on="0"/>
        <pt x="378" y="886" on="1"/>
        <pt x="378" y="857" on="0"/>
        <pt x="389" y="810" on="0"/>
        <pt x="402" y="776" on="0"/>
        <pt x="441" y="743" on="0"/>
        <pt x="465" y="725" on="0"/>
        <pt x="532" y="697" on="0"/>
        <pt x="568" y="684" on="0"/>
        <pt x="615" y="668" on="1"/>
        <pt x="751" y="621" on="1"/>
        <pt x="829" y="594" on="0"/>
        <pt x="934" y="541" on="0"/>
        <pt x="1018" y="467" on="0"/>
        <pt x="1057" y="371" on="0"/>
        <pt x="1057" y="308" on="1"/>
        <pt x="1057" y="222" on="0"/>
        <pt x="997" y="93" on="0"/>
        <pt x="892" y="19" on="0"/>
        <pt x="764" y="-17" on="0"/>
        <pt x="689" y="-17" on="1"/>
        <pt x="604" y="-17" on="0"/>
        <pt x="416" y="49" on="0"/>
        <pt x="363" y="105" on="1"/>
        <pt x="363" y="-17" on="0"/>
        <pt x="316" y="-17" on="1"/>
        <pt x="290" y="-17" on="0"/>
        <pt x="268" y="15" on="0"/>
        <pt x="268" y="57" on="1"/>
        <pt x="268" y="371" on="1"/>
        <pt x="268" y="394" on="0"/>
        <pt x="293" y="418" on="0"/>
        <pt x="331" y="418" on="0"/>
        <pt x="358" y="392" on="0"/>
        <pt x="358" y="369" on="1"/>
        <pt x="358" y="250" on="1"/>
        <pt x="358" y="185" on="0"/>
        <pt x="569" y="69" on="0"/>
        <pt x="692" y="69" on="1"/>
        <pt x="811" y="69" on="0"/>
        <pt x="961" y="183" on="0"/>
        <pt x="961" y="304" on="1"/>
        <pt x="961" y="351" on="0"/>
        <pt x="932" y="421" on="0"/>
        <pt x="868" y="473" on="0"/>
        <pt x="791" y="509" on="0"/>
        <pt x="731" y="530" on="1"/>
        <pt x="567" y="586" on="1"/>
        <pt x="512" y="605" on="0"/>
        <pt x="440" y="635" on="0"/>
        <pt x="359" y="685" on="0"/>
        <pt x="313" y="742" on="0"/>
        <pt x="282" y="827" on="0"/>
        <pt x="282" y="881" on="1"/>
        <pt x="282" y="1025" on="0"/>
        <pt x="479" y="1187" on="0"/>
        <pt x="627" y="1187" on="1"/>
        <pt x="833" y="1187" on="0"/>
        <pt x="917" y="1095" on="1"/>
        <pt x="917" y="1187" on="0"/>
        <pt x="969" y="1187" on="1"/>
        <pt x="990" y="1187" on="0"/>
        <pt x="1009" y="1155" on="0"/>
        <pt x="1009" y="1117" on="1"/>
        <pt x="1009" y="864" on="1"/>
        <pt x="1009" y="838" on="0"/>
        <pt x="983" y="811" on="0"/>
        <pt x="963" y="811" on="1"/>
        <pt x="945" y="811" on="0"/>
        <pt x="918" y="836" on="0"/>
        <pt x="918" y="858" on="1"/>
        <pt x="918" y="949" on="1"/>
        <pt x="912" y="998" on="0"/>
        <pt x="826" y="1070" on="0"/>
        <pt x="712" y="1101" on="0"/>
      </contour>
    </TTGlyph>
    <TTGlyph name="Sacute" xMin="268" yMin="-17" xMax="1057" yMax="1677">
      <component glyphName="acute" x="-24" y="372" flags="0x1004"/>
      <component glyphName="S" x="0" y="0" flags="0x1204"/>
    </TTGlyph>
    <TTGlyph name="Scaron" xMin="268" yMin="-17" xMax="1057" yMax="1691">
      <component glyphName="caron" x="-37" y="371" flags="0x1004"/>
      <component glyphName="S" x="0" y="0" flags="0x1204"/>
    </TTGlyph>
    <TTGlyph name="Scedilla" xMin="268" yMin="-405" xMax="1057" yMax="1187">
      <component glyphName="cedilla" x="501" y="-4" flags="0x1004"/>
      <component glyphName="S" x="0" y="0" flags="0x1204"/>
    </TTGlyph>
    <TTGlyph name="Scircumflex" xMin="268" yMin="-17" xMax="1057" yMax="1691">
      <component glyphName="circumflex" x="-37" y="371" flags="0x1004"/>
      <component glyphName="S" x="0" y="0" flags="0x1204"/>
    </TTGlyph>
    <TTGlyph name="Scommaaccent" xMin="268" yMin="-558" xMax="1057" yMax="1187">
      <component glyphName="uni0326" x="13" y="-348" flags="0x1004"/>
      <component glyphName="S" x="0" y="0" flags="0x1204"/>
    </TTGlyph>
    <TTGlyph name="T" xMin="120" yMin="0" xMax="1118" yMax="1171">
      <contour>
        <pt x="210" y="814" on="1"/>
        <pt x="209" y="792" on="0"/>
        <pt x="185" y="769" on="0"/>
        <pt x="169" y="769" on="1"/>
        <pt x="150" y="769" on="0"/>
        <pt x="120" y="798" on="0"/>
        <pt x="120" y="823" on="1"/>
        <pt x="120" y="1117" on="1"/>
        <pt x="120" y="1171" on="0"/>
        <pt x="162" y="1171" on="1"/>
        <pt x="1078" y="1171" on="1"/>
        <pt x="1118" y="1171" on="0"/>
        <pt x="1118" y="1117" on="1"/>
        <pt x="1118" y="823" on="1"/>
        <pt x="1118" y="798" on="0"/>
        <pt x="1091" y="771" on="0"/>
        <pt x="1072" y="771" on="1"/>
        <pt x="1055" y="771" on="0"/>
        <pt x="1029" y="794" on="0"/>
        <pt x="1028" y="814" on="1"/>
        <pt x="1018" y="1085" on="1"/>
        <pt x="666" y="1085" on="1"/>
        <pt x="666" y="86" on="1"/>
        <pt x="908" y="86" on="1"/>
        <pt x="931" y="86" on="0"/>
        <pt x="957" y="61" on="0"/>
        <pt x="957" y="44" on="1"/>
        <pt x="957" y="26" on="0"/>
        <pt x="930" y="0" on="0"/>
        <pt x="906" y="0" on="1"/>
        <pt x="330" y="0" on="1"/>
        <pt x="306" y="0" on="0"/>
        <pt x="278" y="26" on="0"/>
        <pt x="278" y="44" on="1"/>
        <pt x="278" y="61" on="0"/>
        <pt x="305" y="86" on="0"/>
        <pt x="328" y="86" on="1"/>
        <pt x="570" y="86" on="1"/>
        <pt x="570" y="1085" on="1"/>
        <pt x="222" y="1085" on="1"/>
      </contour>
    </TTGlyph>
    <TTGlyph name="Tbar" xMin="120" yMin="0" xMax="1118" yMax="1171">
      <contour>
        <pt x="210" y="814" on="1"/>
        <pt x="209" y="792" on="0"/>
        <pt x="185" y="769" on="0"/>
        <pt x="169" y="769" on="1"/>
        <pt x="150" y="769" on="0"/>
        <pt x="120" y="798" on="0"/>
        <pt x="120" y="823" on="1"/>
        <pt x="120" y="1117" on="1"/>
        <pt x="120" y="1171" on="0"/>
        <pt x="162" y="1171" on="1"/>
        <pt x="1078" y="1171" on="1"/>
        <pt x="1118" y="1171" on="0"/>
        <pt x="1118" y="1117" on="1"/>
        <pt x="1118" y="823" on="1"/>
        <pt x="1118" y="798" on="0"/>
        <pt x="1091" y="771" on="0"/>
        <pt x="1072" y="771" on="1"/>
        <pt x="1055" y="771" on="0"/>
        <pt x="1029" y="794" on="0"/>
        <pt x="1028" y="814" on="1"/>
        <pt x="1018" y="1085" on="1"/>
        <pt x="666" y="1085" on="1"/>
        <pt x="666" y="648" on="1"/>
        <pt x="839" y="648" on="1"/>
        <pt x="878" y="648" on="0"/>
        <pt x="878" y="611" on="1"/>
        <pt x="878" y="572" on="0"/>
        <pt x="837" y="572" on="1"/>
        <pt x="666" y="572" on="1"/>
        <pt x="666" y="86" on="1"/>
        <pt x="908" y="86" on="1"/>
        <pt x="931" y="86" on="0"/>
        <pt x="957" y="61" on="0"/>
        <pt x="957" y="44" on="1"/>
        <pt x="957" y="26" on="0"/>
        <pt x="930" y="0" on="0"/>
        <pt x="906" y="0" on="1"/>
        <pt x="330" y="0" on="1"/>
        <pt x="306" y="0" on="0"/>
        <pt x="278" y="26" on="0"/>
        <pt x="278" y="44" on="1"/>
        <pt x="278" y="61" on="0"/>
        <pt x="305" y="86" on="0"/>
        <pt x="328" y="86" on="1"/>
        <pt x="570" y="86" on="1"/>
        <pt x="570" y="572" on="1"/>
        <pt x="404" y="572" on="1"/>
        <pt x="358" y="572" on="0"/>
        <pt x="358" y="611" on="1"/>
        <pt x="358" y="648" on="0"/>
        <pt x="400" y="648" on="1"/>
        <pt x="570" y="648" on="1"/>
        <pt x="570" y="1085" on="1"/>
        <pt x="222" y="1085" on="1"/>
      </contour>
    </TTGlyph>
    <TTGlyph name="Tcaron" xMin="120" yMin="0" xMax="1118" yMax="1691">
      <component glyphName="caron" x="-80" y="371" flags="0x1004"/>
      <component glyphName="T" x="0" y="0" flags="0x1204"/>
    </TTGlyph>
    <TTGlyph name="Thorn" xMin="68" yMin="0" xMax="1067" yMax="1171">
      <contour>
        <pt x="1067" y="619" on="1"/>
        <pt x="1067" y="557" on="0"/>
        <pt x="1024" y="460" on="0"/>
        <pt x="963" y="398" on="0"/>
        <pt x="851" y="354" on="0"/>
        <pt x="760" y="331" on="0"/>
        <pt x="606" y="320" on="0"/>
        <pt x="512" y="318" on="0"/>
        <pt x="429" y="318" on="1"/>
        <pt x="429" y="82" on="1"/>
        <pt x="656" y="82" on="1"/>
        <pt x="695" y="82" on="0"/>
        <pt x="695" y="0" on="0"/>
        <pt x="655" y="0" on="1"/>
        <pt x="109" y="0" on="1"/>
        <pt x="68" y="0" on="0"/>
        <pt x="68" y="82" on="0"/>
        <pt x="108" y="82" on="1"/>
        <pt x="333" y="82" on="1"/>
        <pt x="333" y="1085" on="1"/>
        <pt x="121" y="1085" on="1"/>
        <pt x="82" y="1085" on="0"/>
        <pt x="82" y="1127" on="1"/>
        <pt x="82" y="1171" on="0"/>
        <pt x="123" y="1171" on="1"/>
        <pt x="600" y="1171" on="1"/>
        <pt x="631" y="1171" on="0"/>
        <pt x="631" y="1130" on="1"/>
        <pt x="631" y="1085" on="0"/>
        <pt x="592" y="1085" on="1"/>
        <pt x="429" y="1085" on="1"/>
        <pt x="429" y="928" on="1"/>
        <pt x="518" y="928" on="0"/>
        <pt x="612" y="926" on="0"/>
        <pt x="770" y="915" on="0"/>
        <pt x="857" y="892" on="0"/>
        <pt x="969" y="847" on="0"/>
        <pt x="1026" y="783" on="0"/>
        <pt x="1067" y="683" on="0"/>
      </contour>
      <contour>
        <pt x="971" y="626" on="1"/>
        <pt x="971" y="716" on="0"/>
        <pt x="876" y="811" on="0"/>
        <pt x="647" y="851" on="0"/>
        <pt x="429" y="851" on="1"/>
        <pt x="429" y="392" on="1"/>
        <pt x="740" y="392" on="0"/>
        <pt x="971" y="485" on="0"/>
      </contour>
    </TTGlyph>
    <TTGlyph name="U" xMin="55" yMin="-17" xMax="1243" yMax="1171">
      <contour>
        <pt x="654" y="-17" on="1"/>
        <pt x="472" y="-17" on="0"/>
        <pt x="249" y="213" on="0"/>
        <pt x="249" y="413" on="1"/>
        <pt x="249" y="1085" on="1"/>
        <pt x="104" y="1085" on="1"/>
        <pt x="81" y="1085" on="0"/>
        <pt x="55" y="1110" on="0"/>
        <pt x="55" y="1127" on="1"/>
        <pt x="55" y="1145" on="0"/>
        <pt x="82" y="1171" on="0"/>
        <pt x="105" y="1171" on="1"/>
        <pt x="506" y="1171" on="1"/>
        <pt x="529" y="1171" on="0"/>
        <pt x="556" y="1145" on="0"/>
        <pt x="556" y="1127" on="1"/>
        <pt x="556" y="1110" on="0"/>
        <pt x="530" y="1085" on="0"/>
        <pt x="507" y="1085" on="1"/>
        <pt x="345" y="1085" on="1"/>
        <pt x="345" y="413" on="1"/>
        <pt x="345" y="249" on="0"/>
        <pt x="505" y="69" on="0"/>
        <pt x="654" y="69" on="1"/>
        <pt x="792" y="69" on="0"/>
        <pt x="960" y="260" on="0"/>
        <pt x="960" y="411" on="1"/>
        <pt x="960" y="1085" on="1"/>
        <pt x="839" y="1085" on="1"/>
        <pt x="816" y="1085" on="0"/>
        <pt x="789" y="1110" on="0"/>
        <pt x="789" y="1127" on="1"/>
        <pt x="789" y="1145" on="0"/>
        <pt x="816" y="1171" on="0"/>
        <pt x="840" y="1171" on="1"/>
        <pt x="1173" y="1171" on="1"/>
        <pt x="1206" y="1171" on="0"/>
        <pt x="1243" y="1145" on="0"/>
        <pt x="1243" y="1127" on="1"/>
        <pt x="1243" y="1110" on="0"/>
        <pt x="1207" y="1085" on="0"/>
        <pt x="1174" y="1085" on="1"/>
        <pt x="1056" y="1085" on="1"/>
        <pt x="1056" y="411" on="1"/>
        <pt x="1056" y="220" on="0"/>
        <pt x="833" y="-17" on="0"/>
      </contour>
    </TTGlyph>
    <TTGlyph name="Uacute" xMin="55" yMin="-17" xMax="1243" yMax="1677">
      <component glyphName="acute" x="-38" y="372" flags="0x1004"/>
      <component glyphName="U" x="0" y="0" flags="0x1204"/>
    </TTGlyph>
    <TTGlyph name="Ubreve" xMin="55" yMin="-17" xMax="1243" yMax="1528">
      <component glyphName="breve" x="-48" y="380" flags="0x1004"/>
      <component glyphName="U" x="0" y="0" flags="0x1204"/>
    </TTGlyph>
    <TTGlyph name="Ucircumflex" xMin="55" yMin="-17" xMax="1243" yMax="1691">
      <component glyphName="circumflex" x="-50" y="371" flags="0x1004"/>
      <component glyphName="U" x="0" y="0" flags="0x1204"/>
    </TTGlyph>
    <TTGlyph name="Udieresis" xMin="55" yMin="-17" xMax="1243" yMax="1474">
      <component glyphName="dieresis" x="-50" y="331" flags="0x1004"/>
      <component glyphName="U" x="0" y="0" flags="0x1204"/>
    </TTGlyph>
    <TTGlyph name="Ugrave" xMin="55" yMin="-17" xMax="1243" yMax="1652">
      <component glyphName="grave" x="441" y="375" flags="0x1004"/>
      <component glyphName="U" x="0" y="0" flags="0x1204"/>
    </TTGlyph>
    <TTGlyph name="Uhungarumlaut" xMin="55" yMin="-17" xMax="1243" yMax="1697">
      <component glyphName="hungarumlaut" x="29" y="444" flags="0x1004"/>
      <component glyphName="U" x="0" y="0" flags="0x1204"/>
    </TTGlyph>
    <TTGlyph name="Umacron" xMin="55" yMin="-17" xMax="1243" yMax="1436">
      <component glyphName="macron" x="-51" y="317" flags="0x1004"/>
      <component glyphName="U" x="0" y="0" flags="0x1204"/>
    </TTGlyph>
    <TTGlyph name="Uogonek" xMin="55" yMin="-430" xMax="1243" yMax="1171">
      <component glyphName="ogonek" x="-9" y="-23" flags="0x1004"/>
      <component glyphName="U" x="0" y="0" flags="0x1204"/>
    </TTGlyph>
    <TTGlyph name="Uring" xMin="55" yMin="-17" xMax="1243" yMax="1690">
      <component glyphName="ring" x="-50" y="341" flags="0x1004"/>
      <component glyphName="U" x="0" y="0" flags="0x1204"/>
    </TTGlyph>
    <TTGlyph name="Utilde" xMin="55" yMin="-17" xMax="1243" yMax="1528">
      <component glyphName="tilde" x="-11" y="373" flags="0x1004"/>
      <component glyphName="U" x="0" y="0" flags="0x1204"/>
    </TTGlyph>
    <TTGlyph name="V" xMin="108" yMin="-36" xMax="1181" yMax="1171">
      <contour>
        <pt x="1131" y="1171" on="1"/>
        <pt x="1155" y="1171" on="0"/>
        <pt x="1181" y="1146" on="0"/>
        <pt x="1181" y="1128" on="1"/>
        <pt x="1181" y="1111" on="0"/>
        <pt x="1155" y="1085" on="0"/>
        <pt x="1132" y="1085" on="1"/>
        <pt x="1046" y="1085" on="1"/>
        <pt x="730" y="20" on="1"/>
        <pt x="716" y="-11" on="0"/>
        <pt x="691" y="-36" on="0"/>
        <pt x="666" y="-36" on="1"/>
        <pt x="621" y="-36" on="0"/>
        <pt x="602" y="20" on="1"/>
        <pt x="260" y="1085" on="1"/>
        <pt x="156" y="1085" on="1"/>
        <pt x="133" y="1085" on="0"/>
        <pt x="108" y="1110" on="0"/>
        <pt x="108" y="1127" on="1"/>
        <pt x="108" y="1145" on="0"/>
        <pt x="135" y="1171" on="0"/>
        <pt x="158" y="1171" on="1"/>
        <pt x="498" y="1171" on="1"/>
        <pt x="522" y="1171" on="0"/>
        <pt x="548" y="1146" on="0"/>
        <pt x="548" y="1128" on="1"/>
        <pt x="548" y="1111" on="0"/>
        <pt x="522" y="1085" on="0"/>
        <pt x="499" y="1085" on="1"/>
        <pt x="368" y="1085" on="1"/>
        <pt x="671" y="119" on="1"/>
        <pt x="946" y="1085" on="1"/>
        <pt x="826" y="1085" on="1"/>
        <pt x="803" y="1085" on="0"/>
        <pt x="776" y="1111" on="0"/>
        <pt x="776" y="1128" on="1"/>
        <pt x="776" y="1146" on="0"/>
        <pt x="803" y="1171" on="0"/>
        <pt x="827" y="1171" on="1"/>
      </contour>
    </TTGlyph>
    <TTGlyph name="W" xMin="51" yMin="-17" xMax="1201" yMax="1171">
      <contour>
        <pt x="873" y="1085" on="1"/>
        <pt x="850" y="1085" on="0"/>
        <pt x="823" y="1111" on="0"/>
        <pt x="823" y="1129" on="1"/>
        <pt x="823" y="1146" on="0"/>
        <pt x="849" y="1171" on="0"/>
        <pt x="872" y="1171" on="1"/>
        <pt x="1151" y="1171" on="1"/>
        <pt x="1174" y="1171" on="0"/>
        <pt x="1201" y="1146" on="0"/>
        <pt x="1201" y="1129" on="1"/>
        <pt x="1201" y="1111" on="0"/>
        <pt x="1174" y="1085" on="0"/>
        <pt x="1150" y="1085" on="1"/>
        <pt x="1080" y="1085" on="1"/>
        <pt x="916" y="27" on="1"/>
        <pt x="909" y="-17" on="0"/>
        <pt x="864" y="-17" on="1"/>
        <pt x="847" y="-17" on="0"/>
        <pt x="817" y="11" on="0"/>
        <pt x="811" y="35" on="1"/>
        <pt x="641" y="701" on="1"/>
        <pt x="454" y="27" on="1"/>
        <pt x="442" y="-17" on="0"/>
        <pt x="403" y="-17" on="1"/>
        <pt x="384" y="-17" on="0"/>
        <pt x="354" y="11" on="0"/>
        <pt x="351" y="35" on="1"/>
        <pt x="185" y="1085" on="1"/>
        <pt x="101" y="1085" on="1"/>
        <pt x="78" y="1085" on="0"/>
        <pt x="51" y="1111" on="0"/>
        <pt x="51" y="1129" on="1"/>
        <pt x="51" y="1146" on="0"/>
        <pt x="77" y="1171" on="0"/>
        <pt x="100" y="1171" on="1"/>
        <pt x="402" y="1171" on="1"/>
        <pt x="425" y="1171" on="0"/>
        <pt x="451" y="1146" on="0"/>
        <pt x="451" y="1129" on="1"/>
        <pt x="451" y="1111" on="0"/>
        <pt x="424" y="1085" on="0"/>
        <pt x="400" y="1085" on="1"/>
        <pt x="286" y="1085" on="1"/>
        <pt x="424" y="199" on="1"/>
        <pt x="601" y="850" on="1"/>
        <pt x="610" y="886" on="0"/>
        <pt x="646" y="886" on="1"/>
        <pt x="680" y="886" on="0"/>
        <pt x="689" y="850" on="1"/>
        <pt x="858" y="196" on="1"/>
        <pt x="980" y="1085" on="1"/>
      </contour>
    </TTGlyph>
    <TTGlyph name="Wacute" xMin="51" yMin="-17" xMax="1201" yMax="1677">
      <component glyphName="acute" x="-61" y="372" flags="0x1004"/>
      <component glyphName="W" x="0" y="0" flags="0x1204"/>
    </TTGlyph>
    <TTGlyph name="Wcircumflex" xMin="51" yMin="-17" xMax="1201" yMax="1691">
      <component glyphName="circumflex" x="-74" y="371" flags="0x1004"/>
      <component glyphName="W" x="0" y="0" flags="0x1204"/>
    </TTGlyph>
    <TTGlyph name="Wdieresis" xMin="51" yMin="-17" xMax="1201" yMax="1474">
      <component glyphName="dieresis" x="-73" y="331" flags="0x1004"/>
      <component glyphName="W" x="0" y="0" flags="0x1204"/>
    </TTGlyph>
    <TTGlyph name="Wgrave" xMin="51" yMin="-17" xMax="1201" yMax="1652">
      <component glyphName="grave" x="418" y="375" flags="0x1004"/>
      <component glyphName="W" x="0" y="0" flags="0x1204"/>
    </TTGlyph>
    <TTGlyph name="X" xMin="102" yMin="0" xMax="1139" yMax="1171">
      <contour>
        <pt x="1094" y="1171" on="1"/>
        <pt x="1134" y="1171" on="0"/>
        <pt x="1134" y="1127" on="1"/>
        <pt x="1134" y="1085" on="0"/>
        <pt x="1095" y="1085" on="1"/>
        <pt x="1022" y="1085" on="1"/>
        <pt x="686" y="589" on="1"/>
        <pt x="1027" y="82" on="1"/>
        <pt x="1100" y="82" on="1"/>
        <pt x="1139" y="82" on="0"/>
        <pt x="1139" y="42" on="1"/>
        <pt x="1139" y="0" on="0"/>
        <pt x="1098" y="0" on="1"/>
        <pt x="766" y="0" on="1"/>
        <pt x="742" y="0" on="0"/>
        <pt x="716" y="24" on="0"/>
        <pt x="716" y="41" on="1"/>
        <pt x="716" y="57" on="0"/>
        <pt x="742" y="82" on="0"/>
        <pt x="765" y="82" on="1"/>
        <pt x="921" y="82" on="1"/>
        <pt x="632" y="510" on="1"/>
        <pt x="342" y="82" on="1"/>
        <pt x="491" y="82" on="1"/>
        <pt x="530" y="82" on="0"/>
        <pt x="530" y="0" on="0"/>
        <pt x="490" y="0" on="1"/>
        <pt x="142" y="0" on="1"/>
        <pt x="102" y="0" on="0"/>
        <pt x="102" y="82" on="0"/>
        <pt x="141" y="82" on="1"/>
        <pt x="226" y="82" on="1"/>
        <pt x="574" y="596" on="1"/>
        <pt x="245" y="1085" on="1"/>
        <pt x="163" y="1085" on="1"/>
        <pt x="124" y="1085" on="0"/>
        <pt x="124" y="1127" on="1"/>
        <pt x="124" y="1171" on="0"/>
        <pt x="164" y="1171" on="1"/>
        <pt x="500" y="1171" on="1"/>
        <pt x="540" y="1171" on="0"/>
        <pt x="540" y="1127" on="1"/>
        <pt x="540" y="1085" on="0"/>
        <pt x="501" y="1085" on="1"/>
        <pt x="353" y="1085" on="1"/>
        <pt x="628" y="676" on="1"/>
        <pt x="905" y="1085" on="1"/>
        <pt x="804" y="1085" on="1"/>
        <pt x="765" y="1085" on="0"/>
        <pt x="765" y="1127" on="1"/>
        <pt x="765" y="1171" on="0"/>
        <pt x="805" y="1171" on="1"/>
      </contour>
    </TTGlyph>
    <TTGlyph name="Y" xMin="124" yMin="0" xMax="1116" yMax="1171">
      <contour>
        <pt x="1065" y="1171" on="1"/>
        <pt x="1089" y="1171" on="0"/>
        <pt x="1116" y="1148" on="0"/>
        <pt x="1116" y="1132" on="1"/>
        <pt x="1116" y="1117" on="0"/>
        <pt x="1090" y="1095" on="0"/>
        <pt x="1067" y="1095" on="1"/>
        <pt x="1012" y="1095" on="1"/>
        <pt x="689" y="548" on="1"/>
        <pt x="689" y="86" on="1"/>
        <pt x="921" y="86" on="1"/>
        <pt x="944" y="86" on="0"/>
        <pt x="969" y="61" on="0"/>
        <pt x="969" y="44" on="1"/>
        <pt x="969" y="26" on="0"/>
        <pt x="942" y="0" on="0"/>
        <pt x="919" y="0" on="1"/>
        <pt x="334" y="0" on="1"/>
        <pt x="310" y="0" on="0"/>
        <pt x="282" y="26" on="0"/>
        <pt x="282" y="44" on="1"/>
        <pt x="282" y="61" on="0"/>
        <pt x="309" y="86" on="0"/>
        <pt x="332" y="86" on="1"/>
        <pt x="593" y="86" on="1"/>
        <pt x="593" y="553" on="1"/>
        <pt x="258" y="1095" on="1"/>
        <pt x="174" y="1095" on="1"/>
        <pt x="151" y="1095" on="0"/>
        <pt x="124" y="1118" on="0"/>
        <pt x="124" y="1148" on="0"/>
        <pt x="152" y="1171" on="0"/>
        <pt x="175" y="1171" on="1"/>
        <pt x="505" y="1171" on="1"/>
        <pt x="529" y="1171" on="0"/>
        <pt x="556" y="1148" on="0"/>
        <pt x="556" y="1118" on="0"/>
        <pt x="529" y="1095" on="0"/>
        <pt x="506" y="1095" on="1"/>
        <pt x="370" y="1095" on="1"/>
        <pt x="646" y="633" on="1"/>
        <pt x="914" y="1095" on="1"/>
        <pt x="803" y="1095" on="1"/>
        <pt x="780" y="1095" on="0"/>
        <pt x="753" y="1118" on="0"/>
        <pt x="753" y="1148" on="0"/>
        <pt x="780" y="1171" on="0"/>
        <pt x="804" y="1171" on="1"/>
      </contour>
    </TTGlyph>
    <TTGlyph name="Yacute" xMin="124" yMin="0" xMax="1116" yMax="1677">
      <component glyphName="acute" x="-67" y="372" flags="0x1004"/>
      <component glyphName="Y" x="0" y="0" flags="0x1204"/>
    </TTGlyph>
    <TTGlyph name="Ycircumflex" xMin="124" yMin="0" xMax="1116" yMax="1691">
      <component glyphName="circumflex" x="-80" y="371" flags="0x1004"/>
      <component glyphName="Y" x="0" y="0" flags="0x1204"/>
    </TTGlyph>
    <TTGlyph name="Ydieresis" xMin="124" yMin="0" xMax="1116" yMax="1474">
      <component glyphName="dieresis" x="-79" y="331" flags="0x1004"/>
      <component glyphName="Y" x="0" y="0" flags="0x1204"/>
    </TTGlyph>
    <TTGlyph name="Ygrave" xMin="124" yMin="0" xMax="1116" yMax="1652">
      <component glyphName="grave" x="412" y="375" flags="0x1004"/>
      <component glyphName="Y" x="0" y="0" flags="0x1204"/>
    </TTGlyph>
    <TTGlyph name="Z" xMin="219" yMin="0" xMax="1044" yMax="1171">
      <contour>
        <pt x="254" y="806" on="1"/>
        <pt x="254" y="1116" on="1"/>
        <pt x="256" y="1171" on="0"/>
        <pt x="322" y="1171" on="1"/>
        <pt x="952" y="1171" on="1"/>
        <pt x="975" y="1171" on="0"/>
        <pt x="1001" y="1138" on="0"/>
        <pt x="1001" y="1116" on="1"/>
        <pt x="1001" y="1097" on="0"/>
        <pt x="991" y="1081" on="1"/>
        <pt x="369" y="86" on="1"/>
        <pt x="942" y="86" on="1"/>
        <pt x="942" y="384" on="1"/>
        <pt x="943" y="407" on="0"/>
        <pt x="974" y="435" on="0"/>
        <pt x="993" y="435" on="1"/>
        <pt x="1010" y="435" on="0"/>
        <pt x="1034" y="410" on="0"/>
        <pt x="1034" y="385" on="1"/>
        <pt x="1044" y="53" on="1"/>
        <pt x="1045" y="28" on="0"/>
        <pt x="1016" y="0" on="0"/>
        <pt x="993" y="0" on="1"/>
        <pt x="271" y="0" on="1"/>
        <pt x="219" y="0" on="0"/>
        <pt x="219" y="31" on="1"/>
        <pt x="219" y="46" on="0"/>
        <pt x="247" y="95" on="1"/>
        <pt x="880" y="1085" on="1"/>
        <pt x="366" y="1085" on="1"/>
        <pt x="350" y="797" on="1"/>
        <pt x="349" y="778" on="0"/>
        <pt x="323" y="757" on="0"/>
        <pt x="305" y="757" on="1"/>
        <pt x="285" y="757" on="0"/>
        <pt x="254" y="783" on="0"/>
      </contour>
    </TTGlyph>
    <TTGlyph name="Zacute" xMin="219" yMin="0" xMax="1044" yMax="1677">
      <component glyphName="acute" x="-55" y="372" flags="0x1004"/>
      <component glyphName="Z" x="0" y="0" flags="0x1204"/>
    </TTGlyph>
    <TTGlyph name="Zcaron" xMin="219" yMin="0" xMax="1044" yMax="1691">
      <component glyphName="caron" x="-68" y="371" flags="0x1004"/>
      <component glyphName="Z" x="0" y="0" flags="0x1204"/>
    </TTGlyph>
    <TTGlyph name="Zdotaccent" xMin="219" yMin="0" xMax="1044" yMax="1474">
      <component glyphName="uni0307" x="-12" y="661" flags="0x1004"/>
      <component glyphName="Z" x="0" y="0" flags="0x1204"/>
    </TTGlyph>
    <TTGlyph name="a" xMin="253" yMin="-16" xMax="1124" yMax="813">
      <contour>
        <pt x="611" y="731" on="1"/>
        <pt x="490" y="731" on="0"/>
        <pt x="390" y="686" on="1"/>
        <pt x="386" y="609" on="0"/>
        <pt x="358" y="531" on="0"/>
        <pt x="324" y="531" on="1"/>
        <pt x="295" y="531" on="0"/>
        <pt x="264" y="571" on="0"/>
        <pt x="264" y="603" on="1"/>
        <pt x="264" y="695" on="0"/>
        <pt x="458" y="813" on="0"/>
        <pt x="612" y="813" on="1"/>
        <pt x="699" y="813" on="0"/>
        <pt x="817" y="764" on="0"/>
        <pt x="883" y="664" on="0"/>
        <pt x="910" y="535" on="0"/>
        <pt x="910" y="444" on="1"/>
        <pt x="910" y="132" on="1"/>
        <pt x="910" y="97" on="0"/>
        <pt x="938" y="72" on="0"/>
        <pt x="962" y="72" on="1"/>
        <pt x="988" y="72" on="0"/>
        <pt x="1046" y="103" on="0"/>
        <pt x="1063" y="121" on="1"/>
        <pt x="1074" y="133" on="0"/>
        <pt x="1087" y="133" on="1"/>
        <pt x="1102" y="133" on="0"/>
        <pt x="1124" y="107" on="0"/>
        <pt x="1124" y="91" on="1"/>
        <pt x="1124" y="76" on="0"/>
        <pt x="1114" y="66" on="1"/>
        <pt x="1044" y="-7" on="0"/>
        <pt x="954" y="-7" on="1"/>
        <pt x="903" y="-7" on="0"/>
        <pt x="833" y="42" on="0"/>
        <pt x="821" y="113" on="1"/>
        <pt x="772" y="58" on="0"/>
        <pt x="595" y="-16" on="0"/>
        <pt x="491" y="-16" on="1"/>
        <pt x="379" y="-16" on="0"/>
        <pt x="253" y="107" on="0"/>
        <pt x="253" y="210" on="1"/>
        <pt x="253" y="246" on="0"/>
        <pt x="272" y="307" on="0"/>
        <pt x="300" y="353" on="0"/>
        <pt x="352" y="390" on="0"/>
        <pt x="398" y="415" on="0"/>
        <pt x="477" y="436" on="0"/>
        <pt x="533" y="447" on="0"/>
        <pt x="629" y="457" on="0"/>
        <pt x="689" y="462" on="0"/>
        <pt x="741" y="465" on="1"/>
        <pt x="790" y="468" on="0"/>
        <pt x="814" y="470" on="1"/>
        <pt x="814" y="490" on="1"/>
        <pt x="814" y="607" on="0"/>
        <pt x="723" y="731" on="0"/>
      </contour>
      <contour>
        <pt x="814" y="401" on="1"/>
        <pt x="581" y="378" on="0"/>
        <pt x="516" y="364" on="1"/>
        <pt x="389" y="336" on="0"/>
        <pt x="361" y="268" on="1"/>
        <pt x="350" y="243" on="0"/>
        <pt x="350" y="210" on="1"/>
        <pt x="350" y="134" on="0"/>
        <pt x="433" y="65" on="0"/>
        <pt x="502" y="65" on="1"/>
        <pt x="591" y="65" on="0"/>
        <pt x="760" y="132" on="0"/>
        <pt x="814" y="189" on="1"/>
      </contour>
    </TTGlyph>
    <TTGlyph name="aacute" xMin="253" yMin="-16" xMax="1124" yMax="1303">
      <component glyphName="acute" x="12" y="-2" flags="0x1004"/>
      <component glyphName="a" x="0" y="0" flags="0x1204"/>
    </TTGlyph>
    <TTGlyph name="abreve" xMin="253" yMin="-16" xMax="1124" yMax="1154">
      <component glyphName="breve" x="2" y="6" flags="0x1004"/>
      <component glyphName="a" x="0" y="0" flags="0x1204"/>
    </TTGlyph>
    <TTGlyph name="acircumflex" xMin="253" yMin="-16" xMax="1124" yMax="1317">
      <component glyphName="circumflex" x="-1" y="-3" flags="0x1004"/>
      <component glyphName="a" x="0" y="0" flags="0x1204"/>
    </TTGlyph>
    <TTGlyph name="acute" xMin="501" yMin="978" xMax="872" yMax="1305">
      <contour>
        <pt x="858" y="1216" on="1"/>
        <pt x="536" y="982" on="1"/>
        <pt x="532" y="978" on="0"/>
        <pt x="525" y="978" on="1"/>
        <pt x="516" y="978" on="0"/>
        <pt x="501" y="991" on="0"/>
        <pt x="501" y="1000" on="1"/>
        <pt x="501" y="1008" on="0"/>
        <pt x="508" y="1015" on="1"/>
        <pt x="779" y="1291" on="1"/>
        <pt x="793" y="1305" on="0"/>
        <pt x="810" y="1305" on="1"/>
        <pt x="833" y="1305" on="0"/>
        <pt x="872" y="1265" on="0"/>
        <pt x="872" y="1244" on="1"/>
        <pt x="872" y="1226" on="0"/>
      </contour>
    </TTGlyph>
    <TTGlyph name="adieresis" xMin="253" yMin="-16" xMax="1124" yMax="1100">
      <component glyphName="dieresis" x="-10" y="-43" flags="0x1004"/>
      <component glyphName="a" x="0" y="0" flags="0x1204"/>
    </TTGlyph>
    <TTGlyph name="ae" xMin="119" yMin="-17" xMax="1122" yMax="813">
      <contour>
        <pt x="628" y="129" on="1"/>
        <pt x="589" y="60" on="0"/>
        <pt x="430" y="-17" on="0"/>
        <pt x="335" y="-17" on="1"/>
        <pt x="249" y="-17" on="0"/>
        <pt x="119" y="106" on="0"/>
        <pt x="119" y="203" on="1"/>
        <pt x="119" y="259" on="0"/>
        <pt x="146" y="342" on="0"/>
        <pt x="213" y="395" on="0"/>
        <pt x="276" y="428" on="0"/>
        <pt x="402" y="447" on="0"/>
        <pt x="488" y="455" on="0"/>
        <pt x="572" y="459" on="1"/>
        <pt x="572" y="496" on="1"/>
        <pt x="572" y="611" on="0"/>
        <pt x="503" y="731" on="0"/>
        <pt x="405" y="731" on="1"/>
        <pt x="316" y="731" on="0"/>
        <pt x="247" y="701" on="1"/>
        <pt x="243" y="620" on="0"/>
        <pt x="216" y="531" on="0"/>
        <pt x="185" y="531" on="1"/>
        <pt x="158" y="531" on="0"/>
        <pt x="129" y="571" on="0"/>
        <pt x="129" y="603" on="1"/>
        <pt x="129" y="699" on="0"/>
        <pt x="267" y="813" on="0"/>
        <pt x="406" y="813" on="1"/>
        <pt x="492" y="813" on="0"/>
        <pt x="611" y="720" on="0"/>
        <pt x="624" y="642" on="1"/>
        <pt x="658" y="722" on="0"/>
        <pt x="786" y="813" on="0"/>
        <pt x="869" y="813" on="1"/>
        <pt x="975" y="813" on="0"/>
        <pt x="1112" y="645" on="0"/>
        <pt x="1112" y="488" on="1"/>
        <pt x="1112" y="451" on="0"/>
        <pt x="1073" y="408" on="0"/>
        <pt x="1040" y="408" on="1"/>
        <pt x="655" y="394" on="1"/>
        <pt x="666" y="61" on="0"/>
        <pt x="884" y="61" on="1"/>
        <pt x="936" y="61" on="0"/>
        <pt x="993" y="91" on="0"/>
        <pt x="1048" y="146" on="1"/>
        <pt x="1068" y="163" on="0"/>
        <pt x="1086" y="163" on="1"/>
        <pt x="1122" y="163" on="0"/>
        <pt x="1122" y="127" on="1"/>
        <pt x="1122" y="104" on="0"/>
        <pt x="1106" y="85" on="1"/>
        <pt x="1017" y="-17" on="0"/>
        <pt x="876" y="-17" on="1"/>
        <pt x="793" y="-17" on="0"/>
        <pt x="664" y="63" on="0"/>
      </contour>
      <contour>
        <pt x="658" y="461" on="1"/>
        <pt x="1033" y="474" on="1"/>
        <pt x="1017" y="731" on="0"/>
        <pt x="870" y="731" on="1"/>
        <pt x="818" y="731" on="0"/>
        <pt x="740" y="693" on="0"/>
        <pt x="698" y="641" on="0"/>
        <pt x="670" y="560" on="0"/>
        <pt x="661" y="501" on="0"/>
      </contour>
      <contour>
        <pt x="352" y="60" on="1"/>
        <pt x="430" y="60" on="0"/>
        <pt x="571" y="129" on="0"/>
        <pt x="603" y="193" on="1"/>
        <pt x="574" y="282" on="0"/>
        <pt x="573" y="391" on="1"/>
        <pt x="496" y="387" on="0"/>
        <pt x="400" y="378" on="0"/>
        <pt x="309" y="360" on="0"/>
        <pt x="261" y="336" on="0"/>
        <pt x="223" y="296" on="0"/>
        <pt x="210" y="242" on="0"/>
        <pt x="210" y="203" on="1"/>
        <pt x="210" y="139" on="0"/>
        <pt x="291" y="60" on="0"/>
      </contour>
    </TTGlyph>
    <TTGlyph name="agrave" xMin="253" yMin="-16" xMax="1124" yMax="1278">
      <component glyphName="grave" x="490" y="1" flags="0x1004"/>
      <component glyphName="a" x="0" y="0" flags="0x1204"/>
    </TTGlyph>
    <TTGlyph name="amacron" xMin="253" yMin="-16" xMax="1124" yMax="1062">
      <component glyphName="macron" x="-2" y="-57" flags="0x1004"/>
      <component glyphName="a" x="0" y="0" flags="0x1204"/>
    </TTGlyph>
    <TTGlyph name="ampersand" xMin="186" yMin="-32" xMax="1153" yMax="1189">
      <contour>
        <pt x="847" y="135" on="1"/>
        <pt x="781" y="62" on="0"/>
        <pt x="618" y="-16" on="0"/>
        <pt x="506" y="-16" on="1"/>
        <pt x="359" y="-16" on="0"/>
        <pt x="186" y="135" on="0"/>
        <pt x="186" y="272" on="1"/>
        <pt x="186" y="292" on="0"/>
        <pt x="187" y="303" on="1"/>
        <pt x="190" y="346" on="0"/>
        <pt x="234" y="439" on="0"/>
        <pt x="278" y="502" on="0"/>
        <pt x="360" y="583" on="0"/>
        <pt x="387" y="605" on="0"/>
        <pt x="419" y="632" on="1"/>
        <pt x="378" y="686" on="0"/>
        <pt x="328" y="761" on="0"/>
        <pt x="275" y="885" on="0"/>
        <pt x="275" y="936" on="1"/>
        <pt x="275" y="1049" on="0"/>
        <pt x="403" y="1189" on="0"/>
        <pt x="511" y="1189" on="1"/>
        <pt x="625" y="1189" on="0"/>
        <pt x="760" y="1047" on="0"/>
        <pt x="760" y="933" on="1"/>
        <pt x="760" y="908" on="0"/>
        <pt x="752" y="861" on="0"/>
        <pt x="731" y="815" on="0"/>
        <pt x="714" y="780" on="0"/>
        <pt x="676" y="737" on="0"/>
        <pt x="657" y="714" on="0"/>
        <pt x="608" y="672" on="0"/>
        <pt x="592" y="658" on="0"/>
        <pt x="538" y="615" on="0"/>
        <pt x="534" y="612" on="1"/>
        <pt x="594" y="525" on="0"/>
        <pt x="784" y="307" on="0"/>
        <pt x="849" y="254" on="1"/>
        <pt x="893" y="297" on="0"/>
        <pt x="974" y="477" on="0"/>
        <pt x="978" y="544" on="1"/>
        <pt x="846" y="544" on="1"/>
        <pt x="830" y="544" on="0"/>
        <pt x="812" y="570" on="0"/>
        <pt x="812" y="587" on="1"/>
        <pt x="812" y="603" on="0"/>
        <pt x="828" y="626" on="0"/>
        <pt x="844" y="626" on="1"/>
        <pt x="1118" y="626" on="1"/>
        <pt x="1134" y="626" on="0"/>
        <pt x="1153" y="601" on="0"/>
        <pt x="1153" y="585" on="1"/>
        <pt x="1153" y="568" on="0"/>
        <pt x="1134" y="544" on="0"/>
        <pt x="1116" y="544" on="1"/>
        <pt x="1057" y="544" on="1"/>
        <pt x="1055" y="499" on="0"/>
        <pt x="1026" y="403" on="0"/>
        <pt x="973" y="307" on="0"/>
        <pt x="935" y="246" on="0"/>
        <pt x="905" y="203" on="1"/>
        <pt x="1032" y="93" on="0"/>
        <pt x="1092" y="51" on="1"/>
        <pt x="1116" y="35" on="0"/>
        <pt x="1116" y="12" on="1"/>
        <pt x="1116" y="-5" on="0"/>
        <pt x="1088" y="-32" on="0"/>
        <pt x="1070" y="-32" on="1"/>
        <pt x="1061" y="-32" on="0"/>
        <pt x="1051" y="-27" on="1"/>
        <pt x="1029" y="-15" on="0"/>
        <pt x="965" y="35" on="0"/>
        <pt x="866" y="119" on="0"/>
      </contour>
      <contour>
        <pt x="283" y="311" on="1"/>
        <pt x="282" y="301" on="0"/>
        <pt x="282" y="282" on="1"/>
        <pt x="282" y="171" on="0"/>
        <pt x="414" y="65" on="0"/>
        <pt x="517" y="65" on="1"/>
        <pt x="600" y="65" on="0"/>
        <pt x="750" y="136" on="0"/>
        <pt x="797" y="192" on="1"/>
        <pt x="728" y="248" on="0"/>
        <pt x="524" y="489" on="0"/>
        <pt x="469" y="564" on="1"/>
        <pt x="410" y="518" on="0"/>
        <pt x="288" y="372" on="0"/>
      </contour>
      <contour>
        <pt x="673" y="931" on="1"/>
        <pt x="673" y="1021" on="0"/>
        <pt x="583" y="1107" on="0"/>
        <pt x="521" y="1107" on="1"/>
        <pt x="462" y="1107" on="0"/>
        <pt x="371" y="1026" on="0"/>
        <pt x="371" y="944" on="1"/>
        <pt x="371" y="833" on="0"/>
        <pt x="487" y="678" on="1"/>
        <pt x="673" y="812" on="0"/>
      </contour>
    </TTGlyph>
    <TTGlyph name="aogonek" xMin="253" yMin="-429" xMax="1124" yMax="813">
      <component glyphName="ogonek" x="273" y="-22" flags="0x1004"/>
      <component glyphName="a" x="0" y="0" flags="0x1004"/>
    </TTGlyph>
    <TTGlyph name="approxequal" xMin="304" yMin="527" xMax="936" yMax="920">
      <contour>
        <pt x="870" y="891" on="1"/>
        <pt x="875" y="900" on="0"/>
        <pt x="887" y="900" on="1"/>
        <pt x="902" y="900" on="0"/>
        <pt x="936" y="876" on="0"/>
        <pt x="936" y="865" on="1"/>
        <pt x="936" y="862" on="0"/>
        <pt x="935" y="861" on="1"/>
        <pt x="865" y="739" on="0"/>
        <pt x="764" y="739" on="1"/>
        <pt x="709" y="739" on="0"/>
        <pt x="505" y="831" on="0"/>
        <pt x="464" y="831" on="1"/>
        <pt x="403" y="831" on="0"/>
        <pt x="366" y="766" on="1"/>
        <pt x="360" y="756" on="0"/>
        <pt x="347" y="756" on="1"/>
        <pt x="333" y="756" on="0"/>
        <pt x="304" y="776" on="0"/>
        <pt x="304" y="786" on="1"/>
        <pt x="304" y="790" on="0"/>
        <pt x="305" y="791" on="1"/>
        <pt x="363" y="920" on="0"/>
        <pt x="468" y="920" on="1"/>
        <pt x="523" y="920" on="0"/>
        <pt x="737" y="831" on="0"/>
        <pt x="779" y="831" on="1"/>
        <pt x="839" y="831" on="0"/>
      </contour>
      <contour>
        <pt x="870" y="678" on="1"/>
        <pt x="875" y="687" on="0"/>
        <pt x="887" y="687" on="1"/>
        <pt x="902" y="687" on="0"/>
        <pt x="936" y="663" on="0"/>
        <pt x="936" y="652" on="1"/>
        <pt x="936" y="649" on="0"/>
        <pt x="935" y="648" on="1"/>
        <pt x="865" y="527" on="0"/>
        <pt x="764" y="527" on="1"/>
        <pt x="709" y="527" on="0"/>
        <pt x="505" y="618" on="0"/>
        <pt x="464" y="618" on="1"/>
        <pt x="403" y="618" on="0"/>
        <pt x="366" y="553" on="1"/>
        <pt x="360" y="543" on="0"/>
        <pt x="347" y="543" on="1"/>
        <pt x="333" y="543" on="0"/>
        <pt x="304" y="563" on="0"/>
        <pt x="304" y="573" on="1"/>
        <pt x="304" y="577" on="0"/>
        <pt x="305" y="578" on="1"/>
        <pt x="363" y="707" on="0"/>
        <pt x="468" y="707" on="1"/>
        <pt x="523" y="707" on="0"/>
        <pt x="737" y="619" on="0"/>
        <pt x="779" y="619" on="1"/>
        <pt x="839" y="619" on="0"/>
      </contour>
    </TTGlyph>
    <TTGlyph name="aring" xMin="253" yMin="-16" xMax="1124" yMax="1316">
      <component glyphName="ring" x="-1" y="-33" flags="0x1004"/>
      <component glyphName="a" x="0" y="0" flags="0x1204"/>
    </TTGlyph>
    <TTGlyph name="asciicircum" xMin="316" yMin="391" xMax="924" yMax="1018">
      <contour>
        <pt x="924" y="436" on="1"/>
        <pt x="924" y="418" on="0"/>
        <pt x="895" y="391" on="0"/>
        <pt x="876" y="391" on="1"/>
        <pt x="846" y="391" on="0"/>
        <pt x="831" y="422" on="1"/>
        <pt x="627" y="859" on="1"/>
        <pt x="405" y="426" on="1"/>
        <pt x="388" y="391" on="0"/>
        <pt x="356" y="391" on="1"/>
        <pt x="339" y="391" on="0"/>
        <pt x="316" y="416" on="0"/>
        <pt x="316" y="436" on="1"/>
        <pt x="316" y="458" on="0"/>
        <pt x="326" y="477" on="1"/>
        <pt x="566" y="964" on="1"/>
        <pt x="592" y="1018" on="0"/>
        <pt x="625" y="1018" on="1"/>
        <pt x="657" y="1018" on="0"/>
        <pt x="680" y="969" on="1"/>
        <pt x="918" y="460" on="1"/>
        <pt x="924" y="444" on="0"/>
      </contour>
    </TTGlyph>
    <TTGlyph name="asciitilde" xMin="350" yMin="678" xMax="1048" yMax="922">
      <contour>
        <pt x="350" y="727" on="1"/>
        <pt x="350" y="811" on="0"/>
        <pt x="438" y="922" on="0"/>
        <pt x="501" y="922" on="1"/>
        <pt x="557" y="922" on="0"/>
        <pt x="674" y="883" on="0"/>
        <pt x="752" y="837" on="0"/>
        <pt x="827" y="798" on="0"/>
        <pt x="846" y="798" on="1"/>
        <pt x="873" y="798" on="0"/>
        <pt x="914" y="821" on="0"/>
        <pt x="939" y="853" on="0"/>
        <pt x="960" y="885" on="0"/>
        <pt x="984" y="908" on="0"/>
        <pt x="998" y="908" on="1"/>
        <pt x="1048" y="908" on="0"/>
        <pt x="1048" y="872" on="1"/>
        <pt x="1048" y="788" on="0"/>
        <pt x="946" y="678" on="0"/>
        <pt x="872" y="678" on="1"/>
        <pt x="815" y="678" on="0"/>
        <pt x="677" y="740" on="0"/>
        <pt x="556" y="801" on="0"/>
        <pt x="521" y="801" on="1"/>
        <pt x="494" y="801" on="0"/>
        <pt x="454" y="767" on="0"/>
        <pt x="436" y="725" on="0"/>
        <pt x="413" y="691" on="0"/>
        <pt x="400" y="691" on="1"/>
        <pt x="379" y="691" on="0"/>
        <pt x="350" y="709" on="0"/>
      </contour>
    </TTGlyph>
    <TTGlyph name="asterisk" xMin="292" yMin="470" xMax="1024" yMax="1113">
      <contour>
        <pt x="975" y="856" on="1"/>
        <pt x="998" y="856" on="0"/>
        <pt x="1024" y="817" on="0"/>
        <pt x="1024" y="765" on="0"/>
        <pt x="998" y="727" on="0"/>
        <pt x="975" y="727" on="1"/>
        <pt x="777" y="750" on="1"/>
        <pt x="758" y="751" on="0"/>
        <pt x="736" y="774" on="0"/>
        <pt x="736" y="791" on="1"/>
        <pt x="736" y="829" on="0"/>
        <pt x="777" y="834" on="1"/>
      </contour>
      <contour>
        <pt x="342" y="727" on="1"/>
        <pt x="319" y="727" on="0"/>
        <pt x="292" y="766" on="0"/>
        <pt x="292" y="791" on="1"/>
        <pt x="292" y="817" on="0"/>
        <pt x="319" y="856" on="0"/>
        <pt x="342" y="856" on="1"/>
        <pt x="540" y="834" on="1"/>
        <pt x="581" y="829" on="0"/>
        <pt x="581" y="791" on="1"/>
        <pt x="581" y="774" on="0"/>
        <pt x="559" y="751" on="0"/>
        <pt x="540" y="750" on="1"/>
      </contour>
      <contour>
        <pt x="879" y="536" on="1"/>
        <pt x="879" y="509" on="0"/>
        <pt x="827" y="470" on="0"/>
        <pt x="798" y="470" on="1"/>
        <pt x="767" y="470" on="0"/>
        <pt x="758" y="492" on="1"/>
        <pt x="680" y="672" on="1"/>
        <pt x="675" y="687" on="0"/>
        <pt x="675" y="692" on="1"/>
        <pt x="675" y="709" on="0"/>
        <pt x="700" y="731" on="0"/>
        <pt x="718" y="731" on="1"/>
        <pt x="740" y="731" on="0"/>
        <pt x="755" y="712" on="1"/>
        <pt x="873" y="556" on="1"/>
        <pt x="879" y="544" on="0"/>
      </contour>
      <contour>
        <pt x="642" y="891" on="1"/>
        <pt x="642" y="874" on="0"/>
        <pt x="616" y="851" on="0"/>
        <pt x="598" y="851" on="1"/>
        <pt x="578" y="851" on="0"/>
        <pt x="563" y="872" on="1"/>
        <pt x="444" y="1027" on="1"/>
        <pt x="438" y="1039" on="0"/>
        <pt x="438" y="1048" on="1"/>
        <pt x="438" y="1075" on="0"/>
        <pt x="489" y="1113" on="0"/>
        <pt x="519" y="1113" on="1"/>
        <pt x="547" y="1113" on="0"/>
        <pt x="559" y="1092" on="1"/>
        <pt x="637" y="912" on="1"/>
        <pt x="642" y="900" on="0"/>
      </contour>
      <contour>
        <pt x="518" y="470" on="1"/>
        <pt x="488" y="470" on="0"/>
        <pt x="437" y="509" on="0"/>
        <pt x="437" y="536" on="1"/>
        <pt x="437" y="544" on="0"/>
        <pt x="443" y="556" on="1"/>
        <pt x="562" y="712" on="1"/>
        <pt x="575" y="731" on="0"/>
        <pt x="597" y="731" on="1"/>
        <pt x="615" y="731" on="0"/>
        <pt x="641" y="709" on="0"/>
        <pt x="641" y="692" on="1"/>
        <pt x="641" y="684" on="0"/>
        <pt x="637" y="672" on="1"/>
        <pt x="559" y="492" on="1"/>
        <pt x="546" y="470" on="0"/>
      </contour>
      <contour>
        <pt x="766" y="1113" on="0"/>
        <pt x="826" y="1113" on="0"/>
        <pt x="877" y="1074" on="0"/>
        <pt x="877" y="1048" on="1"/>
        <pt x="877" y="1037" on="0"/>
        <pt x="872" y="1027" on="1"/>
        <pt x="753" y="872" on="1"/>
        <pt x="738" y="851" on="0"/>
        <pt x="717" y="851" on="1"/>
        <pt x="699" y="851" on="0"/>
        <pt x="674" y="874" on="0"/>
        <pt x="674" y="891" on="1"/>
        <pt x="674" y="898" on="0"/>
        <pt x="678" y="912" on="1"/>
        <pt x="756" y="1092" on="1"/>
      </contour>
    </TTGlyph>
    <TTGlyph name="at" xMin="83" yMin="-116" xMax="1205" yMax="1099">
      <contour>
        <pt x="795" y="550" on="1"/>
        <pt x="795" y="631" on="0"/>
        <pt x="738" y="700" on="0"/>
        <pt x="652" y="700" on="1"/>
        <pt x="574" y="700" on="0"/>
        <pt x="500" y="564" on="0"/>
        <pt x="500" y="460" on="1"/>
        <pt x="500" y="376" on="0"/>
        <pt x="569" y="263" on="0"/>
        <pt x="631" y="263" on="1"/>
        <pt x="632" y="263" on="1"/>
        <pt x="679" y="263" on="0"/>
        <pt x="744" y="303" on="0"/>
        <pt x="780" y="382" on="0"/>
        <pt x="795" y="482" on="0"/>
      </contour>
      <contour>
        <pt x="189" y="436" on="1"/>
        <pt x="189" y="344" on="0"/>
        <pt x="248" y="177" on="0"/>
        <pt x="359" y="45" on="0"/>
        <pt x="537" y="-33" on="0"/>
        <pt x="648" y="-33" on="1"/>
        <pt x="792" y="-33" on="0"/>
        <pt x="938" y="40" on="1"/>
        <pt x="948" y="45" on="0"/>
        <pt x="961" y="45" on="1"/>
        <pt x="977" y="45" on="0"/>
        <pt x="997" y="22" on="0"/>
        <pt x="997" y="7" on="1"/>
        <pt x="997" y="-14" on="0"/>
        <pt x="978" y="-26" on="1"/>
        <pt x="896" y="-77" on="0"/>
        <pt x="744" y="-116" on="0"/>
        <pt x="651" y="-116" on="1"/>
        <pt x="649" y="-116" on="1"/>
        <pt x="513" y="-116" on="0"/>
        <pt x="293" y="-23" on="0"/>
        <pt x="156" y="133" on="0"/>
        <pt x="83" y="330" on="0"/>
        <pt x="83" y="439" on="1"/>
        <pt x="83" y="560" on="0"/>
        <pt x="170" y="795" on="0"/>
        <pt x="323" y="983" on="0"/>
        <pt x="558" y="1099" on="0"/>
        <pt x="695" y="1099" on="1"/>
        <pt x="920" y="1099" on="0"/>
        <pt x="1205" y="822" on="0"/>
        <pt x="1205" y="585" on="1"/>
        <pt x="1205" y="502" on="0"/>
        <pt x="1175" y="366" on="0"/>
        <pt x="1111" y="256" on="0"/>
        <pt x="999" y="194" on="0"/>
        <pt x="923" y="194" on="1"/>
        <pt x="873" y="194" on="0"/>
        <pt x="814" y="247" on="0"/>
        <pt x="799" y="304" on="1"/>
        <pt x="765" y="247" on="0"/>
        <pt x="672" y="189" on="0"/>
        <pt x="622" y="189" on="1"/>
        <pt x="537" y="189" on="0"/>
        <pt x="414" y="340" on="0"/>
        <pt x="414" y="466" on="1"/>
        <pt x="414" y="610" on="0"/>
        <pt x="540" y="776" on="0"/>
        <pt x="647" y="776" on="1"/>
        <pt x="686" y="776" on="0"/>
        <pt x="758" y="753" on="0"/>
        <pt x="802" y="729" on="0"/>
        <pt x="850" y="681" on="0"/>
        <pt x="864" y="663" on="0"/>
        <pt x="880" y="642" on="1"/>
        <pt x="851" y="342" on="1"/>
        <pt x="850" y="337" on="0"/>
        <pt x="850" y="327" on="1"/>
        <pt x="856" y="269" on="0"/>
        <pt x="926" y="269" on="1"/>
        <pt x="1107" y="269" on="0"/>
        <pt x="1107" y="618" on="1"/>
        <pt x="1107" y="798" on="0"/>
        <pt x="875" y="1012" on="0"/>
        <pt x="699" y="1012" on="1"/>
        <pt x="585" y="1012" on="0"/>
        <pt x="389" y="910" on="0"/>
        <pt x="261" y="746" on="0"/>
        <pt x="189" y="541" on="0"/>
      </contour>
    </TTGlyph>
    <TTGlyph name="atilde" xMin="253" yMin="-16" xMax="1124" yMax="1154">
      <component glyphName="tilde" x="38" y="-1" flags="0x1004"/>
      <component glyphName="a" x="0" y="0" flags="0x1204"/>
    </TTGlyph>
    <TTGlyph name="b" xMin="103" yMin="-17" xMax="1048" yMax="1180">
      <contour>
        <pt x="952" y="398" on="1"/>
        <pt x="952" y="539" on="0"/>
        <pt x="801" y="731" on="0"/>
        <pt x="664" y="731" on="1"/>
        <pt x="489" y="731" on="0"/>
        <pt x="386" y="602" on="1"/>
        <pt x="386" y="210" on="1"/>
        <pt x="487" y="65" on="0"/>
        <pt x="672" y="65" on="1"/>
        <pt x="805" y="65" on="0"/>
        <pt x="952" y="256" on="0"/>
      </contour>
      <contour>
        <pt x="386" y="1141" on="1"/>
        <pt x="386" y="707" on="1"/>
        <pt x="446" y="759" on="0"/>
        <pt x="579" y="813" on="0"/>
        <pt x="670" y="813" on="1"/>
        <pt x="842" y="813" on="0"/>
        <pt x="1048" y="580" on="0"/>
        <pt x="1048" y="398" on="1"/>
        <pt x="1048" y="213" on="0"/>
        <pt x="847" y="-17" on="0"/>
        <pt x="674" y="-17" on="1"/>
        <pt x="584" y="-17" on="0"/>
        <pt x="434" y="49" on="0"/>
        <pt x="382" y="102" on="1"/>
        <pt x="382" y="54" on="0"/>
        <pt x="365" y="5" on="0"/>
        <pt x="347" y="-4" on="0"/>
        <pt x="331" y="-4" on="1"/>
        <pt x="290" y="-4" on="0"/>
        <pt x="290" y="74" on="1"/>
        <pt x="290" y="1091" on="1"/>
        <pt x="162" y="1083" on="1"/>
        <pt x="161" y="1083" on="0"/>
        <pt x="146" y="1080" on="0"/>
        <pt x="142" y="1080" on="1"/>
        <pt x="125" y="1080" on="0"/>
        <pt x="103" y="1102" on="0"/>
        <pt x="103" y="1118" on="1"/>
        <pt x="103" y="1152" on="0"/>
        <pt x="136" y="1159" on="1"/>
        <pt x="325" y="1178" on="1"/>
        <pt x="341" y="1180" on="0"/>
        <pt x="345" y="1180" on="1"/>
        <pt x="386" y="1180" on="0"/>
      </contour>
    </TTGlyph>
    <TTGlyph name="backslash" xMin="242" yMin="-237" xMax="995" yMax="1173">
      <contour>
        <pt x="991" y="-178" on="1"/>
        <pt x="995" y="-186" on="0"/>
        <pt x="995" y="-195" on="1"/>
        <pt x="995" y="-212" on="0"/>
        <pt x="967" y="-237" on="0"/>
        <pt x="949" y="-237" on="1"/>
        <pt x="924" y="-237" on="0"/>
        <pt x="911" y="-213" on="1"/>
        <pt x="247" y="1113" on="1"/>
        <pt x="242" y="1123" on="0"/>
        <pt x="242" y="1134" on="1"/>
        <pt x="242" y="1151" on="0"/>
        <pt x="270" y="1173" on="0"/>
        <pt x="288" y="1173" on="1"/>
        <pt x="314" y="1173" on="0"/>
        <pt x="324" y="1152" on="1"/>
      </contour>
    </TTGlyph>
    <TTGlyph name="bar" xMin="639" yMin="-112" xMax="759" yMax="1257">
      <contour>
        <pt x="701" y="1257" on="1"/>
        <pt x="754" y="1257" on="0"/>
        <pt x="759" y="1208" on="1"/>
        <pt x="759" y="-67" on="1"/>
        <pt x="759" y="-87" on="0"/>
        <pt x="721" y="-112" on="0"/>
        <pt x="699" y="-112" on="1"/>
        <pt x="639" y="-112" on="0"/>
        <pt x="639" y="-56" on="1"/>
        <pt x="639" y="1208" on="1"/>
        <pt x="639" y="1231" on="0"/>
        <pt x="676" y="1257" on="0"/>
      </contour>
    </TTGlyph>
    <TTGlyph name="braceleft" xMin="394" yMin="-227" xMax="888" yMax="1270">
      <contour>
        <pt x="657" y="658" on="1"/>
        <pt x="657" y="634" on="0"/>
        <pt x="656" y="609" on="0"/>
        <pt x="646" y="572" on="0"/>
        <pt x="628" y="551" on="0"/>
        <pt x="594" y="531" on="0"/>
        <pt x="568" y="526" on="1"/>
        <pt x="599" y="519" on="0"/>
        <pt x="638" y="492" on="0"/>
        <pt x="653" y="448" on="0"/>
        <pt x="657" y="415" on="0"/>
        <pt x="657" y="385" on="1"/>
        <pt x="657" y="319" on="0"/>
        <pt x="597" y="43" on="0"/>
        <pt x="597" y="-15" on="1"/>
        <pt x="597" y="-88" on="0"/>
        <pt x="711" y="-143" on="0"/>
        <pt x="860" y="-143" on="1"/>
        <pt x="873" y="-143" on="0"/>
        <pt x="888" y="-168" on="0"/>
        <pt x="888" y="-202" on="0"/>
        <pt x="873" y="-227" on="0"/>
        <pt x="860" y="-227" on="1"/>
        <pt x="780" y="-227" on="0"/>
        <pt x="663" y="-215" on="0"/>
        <pt x="585" y="-186" on="0"/>
        <pt x="536" y="-150" on="0"/>
        <pt x="510" y="-93" on="0"/>
        <pt x="502" y="-35" on="0"/>
        <pt x="502" y="8" on="1"/>
        <pt x="502" y="83" on="0"/>
        <pt x="564" y="330" on="0"/>
        <pt x="564" y="385" on="1"/>
        <pt x="564" y="426" on="0"/>
        <pt x="510" y="467" on="0"/>
        <pt x="441" y="467" on="1"/>
        <pt x="420" y="467" on="0"/>
        <pt x="394" y="504" on="0"/>
        <pt x="394" y="529" on="1"/>
        <pt x="394" y="552" on="0"/>
        <pt x="418" y="585" on="0"/>
        <pt x="441" y="585" on="1"/>
        <pt x="512" y="585" on="0"/>
        <pt x="564" y="618" on="0"/>
        <pt x="564" y="657" on="1"/>
        <pt x="564" y="712" on="0"/>
        <pt x="502" y="959" on="0"/>
        <pt x="502" y="1034" on="1"/>
        <pt x="502" y="1086" on="0"/>
        <pt x="515" y="1152" on="0"/>
        <pt x="556" y="1215" on="0"/>
        <pt x="634" y="1249" on="0"/>
        <pt x="765" y="1270" on="0"/>
        <pt x="860" y="1270" on="1"/>
        <pt x="873" y="1270" on="0"/>
        <pt x="888" y="1245" on="0"/>
        <pt x="888" y="1211" on="0"/>
        <pt x="873" y="1186" on="0"/>
        <pt x="860" y="1186" on="1"/>
        <pt x="711" y="1186" on="0"/>
        <pt x="597" y="1131" on="0"/>
        <pt x="597" y="1058" on="1"/>
        <pt x="597" y="1000" on="0"/>
        <pt x="657" y="724" on="0"/>
      </contour>
    </TTGlyph>
    <TTGlyph name="braceright" xMin="383" yMin="-227" xMax="877" yMax="1270">
      <contour>
        <pt x="614" y="385" on="1"/>
        <pt x="614" y="409" on="0"/>
        <pt x="615" y="434" on="0"/>
        <pt x="625" y="471" on="0"/>
        <pt x="643" y="492" on="0"/>
        <pt x="677" y="512" on="0"/>
        <pt x="703" y="517" on="1"/>
        <pt x="672" y="524" on="0"/>
        <pt x="633" y="551" on="0"/>
        <pt x="618" y="595" on="0"/>
        <pt x="614" y="628" on="0"/>
        <pt x="614" y="658" on="1"/>
        <pt x="614" y="724" on="0"/>
        <pt x="674" y="1000" on="0"/>
        <pt x="674" y="1058" on="1"/>
        <pt x="674" y="1131" on="0"/>
        <pt x="560" y="1186" on="0"/>
        <pt x="411" y="1186" on="1"/>
        <pt x="398" y="1186" on="0"/>
        <pt x="383" y="1211" on="0"/>
        <pt x="383" y="1245" on="0"/>
        <pt x="398" y="1270" on="0"/>
        <pt x="411" y="1270" on="1"/>
        <pt x="491" y="1270" on="0"/>
        <pt x="608" y="1258" on="0"/>
        <pt x="686" y="1229" on="0"/>
        <pt x="735" y="1193" on="0"/>
        <pt x="761" y="1136" on="0"/>
        <pt x="769" y="1078" on="0"/>
        <pt x="769" y="1035" on="1"/>
        <pt x="769" y="960" on="0"/>
        <pt x="707" y="713" on="0"/>
        <pt x="707" y="658" on="1"/>
        <pt x="707" y="617" on="0"/>
        <pt x="761" y="576" on="0"/>
        <pt x="830" y="576" on="1"/>
        <pt x="851" y="576" on="0"/>
        <pt x="877" y="539" on="0"/>
        <pt x="877" y="514" on="1"/>
        <pt x="877" y="491" on="0"/>
        <pt x="853" y="458" on="0"/>
        <pt x="830" y="458" on="1"/>
        <pt x="759" y="458" on="0"/>
        <pt x="707" y="425" on="0"/>
        <pt x="707" y="386" on="1"/>
        <pt x="707" y="331" on="0"/>
        <pt x="769" y="84" on="0"/>
        <pt x="769" y="9" on="1"/>
        <pt x="769" y="-43" on="0"/>
        <pt x="756" y="-109" on="0"/>
        <pt x="715" y="-172" on="0"/>
        <pt x="637" y="-206" on="0"/>
        <pt x="506" y="-227" on="0"/>
        <pt x="411" y="-227" on="1"/>
        <pt x="398" y="-227" on="0"/>
        <pt x="383" y="-202" on="0"/>
        <pt x="383" y="-168" on="0"/>
        <pt x="398" y="-143" on="0"/>
        <pt x="411" y="-143" on="1"/>
        <pt x="560" y="-143" on="0"/>
        <pt x="674" y="-88" on="0"/>
        <pt x="674" y="-15" on="1"/>
        <pt x="674" y="43" on="0"/>
        <pt x="614" y="319" on="0"/>
      </contour>
    </TTGlyph>
    <TTGlyph name="bracketleft" xMin="515" yMin="-148" xMax="830" yMax="1331">
      <contour>
        <pt x="802" y="1331" on="1"/>
        <pt x="815" y="1331" on="0"/>
        <pt x="830" y="1306" on="0"/>
        <pt x="830" y="1272" on="0"/>
        <pt x="815" y="1247" on="0"/>
        <pt x="802" y="1247" on="1"/>
        <pt x="611" y="1247" on="1"/>
        <pt x="611" y="-64" on="1"/>
        <pt x="802" y="-64" on="1"/>
        <pt x="815" y="-64" on="0"/>
        <pt x="830" y="-89" on="0"/>
        <pt x="830" y="-123" on="0"/>
        <pt x="815" y="-148" on="0"/>
        <pt x="802" y="-148" on="1"/>
        <pt x="570" y="-148" on="1"/>
        <pt x="544" y="-148" on="0"/>
        <pt x="515" y="-117" on="0"/>
        <pt x="515" y="-90" on="1"/>
        <pt x="515" y="1270" on="1"/>
        <pt x="515" y="1331" on="0"/>
        <pt x="570" y="1331" on="1"/>
      </contour>
    </TTGlyph>
    <TTGlyph name="bracketright" xMin="424" yMin="-148" xMax="739" yMax="1331">
      <contour>
        <pt x="452" y="-148" on="1"/>
        <pt x="439" y="-148" on="0"/>
        <pt x="424" y="-123" on="0"/>
        <pt x="424" y="-89" on="0"/>
        <pt x="439" y="-64" on="0"/>
        <pt x="452" y="-64" on="1"/>
        <pt x="643" y="-64" on="1"/>
        <pt x="643" y="1247" on="1"/>
        <pt x="452" y="1247" on="1"/>
        <pt x="439" y="1247" on="0"/>
        <pt x="424" y="1272" on="0"/>
        <pt x="424" y="1306" on="0"/>
        <pt x="439" y="1331" on="0"/>
        <pt x="452" y="1331" on="1"/>
        <pt x="684" y="1331" on="1"/>
        <pt x="710" y="1331" on="0"/>
        <pt x="739" y="1300" on="0"/>
        <pt x="739" y="1273" on="1"/>
        <pt x="739" y="-87" on="1"/>
        <pt x="739" y="-148" on="0"/>
        <pt x="684" y="-148" on="1"/>
      </contour>
    </TTGlyph>
    <TTGlyph name="breve" xMin="510" yMin="970" xMax="884" yMax="1148">
      <contour>
        <pt x="649" y="1028" on="0"/>
        <pt x="745" y="1028" on="0"/>
        <pt x="819" y="1083" on="0"/>
        <pt x="827" y="1132" on="1"/>
        <pt x="832" y="1148" on="0"/>
        <pt x="850" y="1148" on="1"/>
        <pt x="862" y="1148" on="0"/>
        <pt x="884" y="1133" on="0"/>
        <pt x="884" y="1124" on="1"/>
        <pt x="884" y="1080" on="0"/>
        <pt x="844" y="1015" on="0"/>
        <pt x="782" y="984" on="0"/>
        <pt x="724" y="970" on="0"/>
        <pt x="670" y="970" on="0"/>
        <pt x="612" y="984" on="0"/>
        <pt x="550" y="1015" on="0"/>
        <pt x="510" y="1080" on="0"/>
        <pt x="510" y="1124" on="1"/>
        <pt x="510" y="1133" on="0"/>
        <pt x="532" y="1148" on="0"/>
        <pt x="544" y="1148" on="1"/>
        <pt x="562" y="1148" on="0"/>
        <pt x="567" y="1132" on="1"/>
        <pt x="575" y="1083" on="0"/>
      </contour>
    </TTGlyph>
    <TTGlyph name="brokenbar" xMin="577" yMin="-81" xMax="664" yMax="1203">
      <contour>
        <pt x="664" y="-56" on="1"/>
        <pt x="664" y="-68" on="0"/>
        <pt x="638" y="-81" on="0"/>
        <pt x="621" y="-81" on="1"/>
        <pt x="603" y="-81" on="0"/>
        <pt x="577" y="-68" on="0"/>
        <pt x="577" y="-56" on="1"/>
        <pt x="577" y="412" on="1"/>
        <pt x="577" y="427" on="0"/>
        <pt x="603" y="443" on="0"/>
        <pt x="621" y="443" on="1"/>
        <pt x="638" y="443" on="0"/>
        <pt x="664" y="427" on="0"/>
        <pt x="664" y="412" on="1"/>
      </contour>
      <contour>
        <pt x="664" y="704" on="1"/>
        <pt x="664" y="693" on="0"/>
        <pt x="638" y="679" on="0"/>
        <pt x="621" y="679" on="1"/>
        <pt x="603" y="679" on="0"/>
        <pt x="577" y="693" on="0"/>
        <pt x="577" y="704" on="1"/>
        <pt x="577" y="1172" on="1"/>
        <pt x="577" y="1187" on="0"/>
        <pt x="603" y="1203" on="0"/>
        <pt x="621" y="1203" on="1"/>
        <pt x="638" y="1203" on="0"/>
        <pt x="664" y="1187" on="0"/>
        <pt x="664" y="1172" on="1"/>
      </contour>
    </TTGlyph>
    <TTGlyph name="bullet" xMin="380" yMin="197" xMax="861" yMax="681">
      <contour>
        <pt x="624" y="197" on="1"/>
        <pt x="513" y="197" on="0"/>
        <pt x="380" y="328" on="0"/>
        <pt x="380" y="550" on="0"/>
        <pt x="513" y="681" on="0"/>
        <pt x="624" y="681" on="1"/>
        <pt x="731" y="681" on="0"/>
        <pt x="861" y="547" on="0"/>
        <pt x="861" y="331" on="0"/>
        <pt x="731" y="197" on="0"/>
      </contour>
    </TTGlyph>
    <TTGlyph name="c" xMin="183" yMin="-17" xMax="979" yMax="813">
      <contour>
        <pt x="635" y="813" on="1"/>
        <pt x="793" y="813" on="0"/>
        <pt x="979" y="693" on="0"/>
        <pt x="979" y="564" on="1"/>
        <pt x="979" y="528" on="0"/>
        <pt x="948" y="484" on="0"/>
        <pt x="890" y="484" on="0"/>
        <pt x="868" y="555" on="0"/>
        <pt x="858" y="645" on="1"/>
        <pt x="855" y="672" on="0"/>
        <pt x="853" y="686" on="1"/>
        <pt x="762" y="731" on="0"/>
        <pt x="650" y="731" on="1"/>
        <pt x="475" y="731" on="0"/>
        <pt x="279" y="559" on="0"/>
        <pt x="279" y="407" on="1"/>
        <pt x="279" y="238" on="0"/>
        <pt x="466" y="65" on="0"/>
        <pt x="624" y="65" on="1"/>
        <pt x="716" y="65" on="0"/>
        <pt x="840" y="115" on="0"/>
        <pt x="902" y="172" on="1"/>
        <pt x="919" y="188" on="0"/>
        <pt x="943" y="188" on="1"/>
        <pt x="978" y="188" on="0"/>
        <pt x="978" y="147" on="1"/>
        <pt x="978" y="124" on="0"/>
        <pt x="960" y="105" on="1"/>
        <pt x="908" y="48" on="0"/>
        <pt x="717" y="-17" on="0"/>
        <pt x="632" y="-17" on="1"/>
        <pt x="429" y="-17" on="0"/>
        <pt x="183" y="210" on="0"/>
        <pt x="183" y="407" on="1"/>
        <pt x="183" y="593" on="0"/>
        <pt x="442" y="813" on="0"/>
      </contour>
    </TTGlyph>
    <TTGlyph name="cacute" xMin="183" yMin="-17" xMax="979" yMax="1303">
      <component glyphName="acute" x="-106" y="-2" flags="0x1004"/>
      <component glyphName="c" x="0" y="0" flags="0x1204"/>
    </TTGlyph>
    <TTGlyph name="caron" xMin="477" yMin="979" xMax="922" yMax="1320">
      <contour>
        <pt x="699" y="979" on="1"/>
        <pt x="675" y="979" on="0"/>
        <pt x="668" y="990" on="1"/>
        <pt x="484" y="1273" on="1"/>
        <pt x="477" y="1280" on="0"/>
        <pt x="477" y="1290" on="1"/>
        <pt x="477" y="1302" on="0"/>
        <pt x="500" y="1320" on="0"/>
        <pt x="514" y="1320" on="1"/>
        <pt x="531" y="1320" on="0"/>
        <pt x="537" y="1311" on="1"/>
        <pt x="699" y="1102" on="1"/>
        <pt x="862" y="1311" on="1"/>
        <pt x="868" y="1320" on="0"/>
        <pt x="885" y="1320" on="1"/>
        <pt x="899" y="1320" on="0"/>
        <pt x="922" y="1302" on="0"/>
        <pt x="922" y="1290" on="1"/>
        <pt x="922" y="1280" on="0"/>
        <pt x="915" y="1273" on="1"/>
        <pt x="731" y="990" on="1"/>
        <pt x="724" y="979" on="0"/>
      </contour>
    </TTGlyph>
    <TTGlyph name="ccaron" xMin="183" yMin="-17" xMax="979" yMax="1317">
      <component glyphName="caron" x="-118" y="-3" flags="0x1004"/>
      <component glyphName="c" x="0" y="0" flags="0x1204"/>
    </TTGlyph>
    <TTGlyph name="ccedilla" xMin="183" yMin="-405" xMax="979" yMax="813">
      <component glyphName="cedilla" x="420" y="-4" flags="0x1004"/>
      <component glyphName="c" x="0" y="0" flags="0x1204"/>
    </TTGlyph>
    <TTGlyph name="ccircumflex" xMin="183" yMin="-17" xMax="979" yMax="1317">
      <component glyphName="circumflex" x="-118" y="-3" flags="0x1004"/>
      <component glyphName="c" x="0" y="0" flags="0x1204"/>
    </TTGlyph>
    <TTGlyph name="cdotaccent" xMin="183" yMin="-17" xMax="979" yMax="1100">
      <component glyphName="uni0307" x="-62" y="287" flags="0x1004"/>
      <component glyphName="c" x="0" y="0" flags="0x1204"/>
    </TTGlyph>
    <TTGlyph name="cedilla" xMin="28" yMin="-401" xMax="180" yMax="0">
      <contour>
        <pt x="180" y="0" on="1"/>
        <pt x="139" y="-321" on="1"/>
        <pt x="134" y="-363" on="0"/>
        <pt x="99" y="-401" on="0"/>
        <pt x="77" y="-401" on="1"/>
        <pt x="54" y="-401" on="0"/>
        <pt x="28" y="-372" on="0"/>
        <pt x="28" y="-347" on="1"/>
        <pt x="28" y="-330" on="0"/>
        <pt x="36" y="-306" on="1"/>
        <pt x="143" y="0" on="1"/>
      </contour>
    </TTGlyph>
    <TTGlyph name="cent" xMin="183" yMin="-236" xMax="979" yMax="990">
      <contour>
        <pt x="617" y="990" on="0"/>
        <pt x="651" y="990" on="0"/>
        <pt x="660" y="975" on="0"/>
        <pt x="660" y="956" on="1"/>
        <pt x="660" y="951" on="1"/>
        <pt x="660" y="813" on="1"/>
        <pt x="800" y="809" on="0"/>
        <pt x="886" y="753" on="1"/>
        <pt x="979" y="693" on="0"/>
        <pt x="979" y="564" on="1"/>
        <pt x="979" y="528" on="0"/>
        <pt x="948" y="484" on="0"/>
        <pt x="890" y="484" on="0"/>
        <pt x="868" y="555" on="0"/>
        <pt x="858" y="645" on="1"/>
        <pt x="855" y="672" on="0"/>
        <pt x="853" y="686" on="1"/>
        <pt x="766" y="729" on="0"/>
        <pt x="660" y="731" on="1"/>
        <pt x="660" y="66" on="1"/>
        <pt x="729" y="70" on="0"/>
        <pt x="778" y="90" on="1"/>
        <pt x="840" y="115" on="0"/>
        <pt x="902" y="172" on="1"/>
        <pt x="919" y="188" on="0"/>
        <pt x="943" y="188" on="1"/>
        <pt x="978" y="188" on="0"/>
        <pt x="978" y="147" on="1"/>
        <pt x="978" y="124" on="0"/>
        <pt x="960" y="105" on="1"/>
        <pt x="908" y="48" on="0"/>
        <pt x="812" y="16" on="1"/>
        <pt x="732" y="-11" on="0"/>
        <pt x="660" y="-16" on="1"/>
        <pt x="660" y="-189" on="1"/>
        <pt x="660" y="-213" on="0"/>
        <pt x="650" y="-236" on="0"/>
        <pt x="634" y="-236" on="1"/>
        <pt x="617" y="-236" on="0"/>
        <pt x="607" y="-216" on="0"/>
        <pt x="607" y="-190" on="1"/>
        <pt x="607" y="-17" on="1"/>
        <pt x="421" y="-10" on="0"/>
        <pt x="306" y="96" on="1"/>
        <pt x="183" y="210" on="0"/>
        <pt x="183" y="407" on="1"/>
        <pt x="182" y="593" on="0"/>
        <pt x="312" y="703" on="1"/>
        <pt x="432" y="805" on="0"/>
        <pt x="607" y="812" on="1"/>
        <pt x="607" y="951" on="1"/>
        <pt x="607" y="972" on="0"/>
      </contour>
      <contour>
        <pt x="607" y="730" on="1"/>
        <pt x="463" y="721" on="0"/>
        <pt x="377" y="645" on="1"/>
        <pt x="279" y="559" on="0"/>
        <pt x="279" y="407" on="1"/>
        <pt x="278" y="238" on="0"/>
        <pt x="372" y="152" on="1"/>
        <pt x="460" y="70" on="0"/>
        <pt x="607" y="65" on="1"/>
      </contour>
    </TTGlyph>
    <TTGlyph name="circumflex" xMin="477" yMin="979" xMax="922" yMax="1320">
      <contour>
        <pt x="699" y="1320" on="1"/>
        <pt x="724" y="1320" on="0"/>
        <pt x="731" y="1308" on="1"/>
        <pt x="915" y="1025" on="1"/>
        <pt x="922" y="1018" on="0"/>
        <pt x="922" y="1008" on="1"/>
        <pt x="922" y="996" on="0"/>
        <pt x="899" y="979" on="0"/>
        <pt x="885" y="979" on="1"/>
        <pt x="868" y="979" on="0"/>
        <pt x="862" y="988" on="1"/>
        <pt x="699" y="1197" on="1"/>
        <pt x="537" y="988" on="1"/>
        <pt x="531" y="979" on="0"/>
        <pt x="514" y="979" on="1"/>
        <pt x="500" y="979" on="0"/>
        <pt x="477" y="996" on="0"/>
        <pt x="477" y="1008" on="1"/>
        <pt x="477" y="1018" on="0"/>
        <pt x="484" y="1025" on="1"/>
        <pt x="668" y="1308" on="1"/>
        <pt x="676" y="1320" on="0"/>
      </contour>
    </TTGlyph>
    <TTGlyph name="colon" xMin="539" yMin="-16" xMax="750" yMax="811">
      <contour>
        <pt x="644" y="-16" on="1"/>
        <pt x="598" y="-16" on="0"/>
        <pt x="539" y="43" on="0"/>
        <pt x="539" y="135" on="0"/>
        <pt x="599" y="195" on="0"/>
        <pt x="689" y="195" on="0"/>
        <pt x="750" y="134" on="0"/>
        <pt x="750" y="44" on="0"/>
        <pt x="689" y="-16" on="0"/>
      </contour>
      <contour>
        <pt x="644" y="600" on="1"/>
        <pt x="598" y="600" on="0"/>
        <pt x="539" y="659" on="0"/>
        <pt x="539" y="751" on="0"/>
        <pt x="599" y="811" on="0"/>
        <pt x="689" y="811" on="0"/>
        <pt x="750" y="750" on="0"/>
        <pt x="750" y="660" on="0"/>
        <pt x="689" y="600" on="0"/>
      </contour>
    </TTGlyph>
    <TTGlyph name="comma" xMin="505" yMin="-210" xMax="728" yMax="180">
      <contour>
        <pt x="616" y="180" on="1"/>
        <pt x="664" y="180" on="0"/>
        <pt x="728" y="116" on="0"/>
        <pt x="728" y="59" on="1"/>
        <pt x="728" y="-22" on="0"/>
        <pt x="612" y="-173" on="0"/>
        <pt x="543" y="-208" on="1"/>
        <pt x="540" y="-210" on="0"/>
        <pt x="533" y="-210" on="1"/>
        <pt x="522" y="-210" on="0"/>
        <pt x="505" y="-193" on="0"/>
        <pt x="505" y="-183" on="1"/>
        <pt x="505" y="-171" on="0"/>
        <pt x="517" y="-162" on="1"/>
        <pt x="626" y="-83" on="0"/>
        <pt x="626" y="-8" on="1"/>
        <pt x="579" y="-8" on="0"/>
        <pt x="518" y="39" on="0"/>
        <pt x="518" y="85" on="1"/>
        <pt x="518" y="130" on="0"/>
        <pt x="577" y="180" on="0"/>
      </contour>
    </TTGlyph>
    <TTGlyph name="copyright" xMin="48" yMin="13" xMax="1193" yMax="1158">
      <contour>
        <pt x="128" y="824" on="0"/>
        <pt x="128" y="342" on="0"/>
        <pt x="379" y="83" on="0"/>
        <pt x="861" y="83" on="0"/>
        <pt x="1113" y="343" on="0"/>
        <pt x="1113" y="583" on="1"/>
        <pt x="1113" y="825" on="0"/>
        <pt x="860" y="1089" on="0"/>
        <pt x="380" y="1089" on="0"/>
      </contour>
      <contour>
        <pt x="1193" y="581" on="1"/>
        <pt x="1193" y="310" on="0"/>
        <pt x="892" y="13" on="0"/>
        <pt x="348" y="13" on="0"/>
        <pt x="48" y="310" on="0"/>
        <pt x="48" y="581" on="1"/>
        <pt x="48" y="854" on="0"/>
        <pt x="349" y="1158" on="0"/>
        <pt x="891" y="1158" on="0"/>
        <pt x="1193" y="854" on="0"/>
      </contour>
      <contour>
        <pt x="923" y="443" on="1"/>
        <pt x="905" y="361" on="0"/>
        <pt x="744" y="232" on="0"/>
        <pt x="627" y="232" on="1"/>
        <pt x="478" y="232" on="0"/>
        <pt x="293" y="430" on="0"/>
        <pt x="293" y="596" on="1"/>
        <pt x="293" y="748" on="0"/>
        <pt x="486" y="946" on="0"/>
        <pt x="631" y="946" on="1"/>
        <pt x="702" y="946" on="0"/>
        <pt x="817" y="885" on="0"/>
        <pt x="842" y="839" on="1"/>
        <pt x="842" y="909" on="1"/>
        <pt x="842" y="922" on="0"/>
        <pt x="861" y="938" on="0"/>
        <pt x="885" y="938" on="0"/>
        <pt x="903" y="922" on="0"/>
        <pt x="903" y="908" on="1"/>
        <pt x="903" y="730" on="1"/>
        <pt x="903" y="717" on="0"/>
        <pt x="886" y="703" on="0"/>
        <pt x="875" y="703" on="1"/>
        <pt x="853" y="703" on="0"/>
        <pt x="845" y="730" on="1"/>
        <pt x="798" y="884" on="0"/>
        <pt x="631" y="884" on="1"/>
        <pt x="515" y="884" on="0"/>
        <pt x="373" y="721" on="0"/>
        <pt x="373" y="597" on="1"/>
        <pt x="373" y="457" on="0"/>
        <pt x="514" y="298" on="0"/>
        <pt x="627" y="298" on="1"/>
        <pt x="803" y="298" on="0"/>
        <pt x="866" y="456" on="1"/>
        <pt x="875" y="476" on="0"/>
        <pt x="894" y="476" on="1"/>
        <pt x="906" y="476" on="0"/>
        <pt x="924" y="461" on="0"/>
        <pt x="924" y="449" on="1"/>
        <pt x="924" y="448" on="0"/>
        <pt x="923" y="444" on="0"/>
      </contour>
    </TTGlyph>
    <TTGlyph name="currency" xMin="318" yMin="261" xMax="912" yMax="855">
      <contour>
        <pt x="459" y="358" on="1"/>
        <pt x="371" y="271" on="1"/>
        <pt x="356" y="256" on="0"/>
        <pt x="322" y="266" on="0"/>
        <pt x="314" y="297" on="0"/>
        <pt x="328" y="314" on="1"/>
        <pt x="414" y="400" on="1"/>
        <pt x="361" y="465" on="0"/>
        <pt x="361" y="558" on="1"/>
        <pt x="361" y="649" on="0"/>
        <pt x="414" y="717" on="1"/>
        <pt x="328" y="803" on="1"/>
        <pt x="313" y="818" on="0"/>
        <pt x="324" y="852" on="0"/>
        <pt x="356" y="858" on="0"/>
        <pt x="372" y="845" on="1"/>
        <pt x="457" y="760" on="1"/>
        <pt x="524" y="811" on="0"/>
        <pt x="616" y="811" on="1"/>
        <pt x="710" y="811" on="0"/>
        <pt x="774" y="760" on="1"/>
        <pt x="858" y="843" on="1"/>
        <pt x="873" y="858" on="0"/>
        <pt x="908" y="848" on="0"/>
        <pt x="915" y="816" on="0"/>
        <pt x="901" y="799" on="1"/>
        <pt x="817" y="715" on="1"/>
        <pt x="863" y="650" on="0"/>
        <pt x="863" y="563" on="1"/>
        <pt x="863" y="473" on="0"/>
        <pt x="810" y="405" on="1"/>
        <pt x="900" y="315" on="1"/>
        <pt x="915" y="300" on="0"/>
        <pt x="905" y="266" on="0"/>
        <pt x="874" y="259" on="0"/>
        <pt x="857" y="273" on="1"/>
        <pt x="768" y="362" on="1"/>
        <pt x="703" y="313" on="0"/>
        <pt x="611" y="313" on="1"/>
        <pt x="522" y="313" on="0"/>
      </contour>
      <contour>
        <pt x="616" y="368" on="1"/>
        <pt x="704" y="368" on="0"/>
        <pt x="801" y="476" on="0"/>
        <pt x="801" y="560" on="1"/>
        <pt x="801" y="645" on="0"/>
        <pt x="705" y="756" on="0"/>
        <pt x="525" y="756" on="0"/>
        <pt x="430" y="645" on="0"/>
        <pt x="430" y="560" on="1"/>
        <pt x="430" y="478" on="0"/>
        <pt x="529" y="368" on="0"/>
      </contour>
    </TTGlyph>
    <TTGlyph name="d" xMin="193" yMin="-17" xMax="1145" yMax="1180">
      <contour>
        <pt x="289" y="398" on="1"/>
        <pt x="289" y="256" on="0"/>
        <pt x="439" y="65" on="0"/>
        <pt x="573" y="65" on="1"/>
        <pt x="754" y="65" on="0"/>
        <pt x="855" y="210" on="1"/>
        <pt x="855" y="602" on="1"/>
        <pt x="752" y="731" on="0"/>
        <pt x="577" y="731" on="1"/>
        <pt x="440" y="731" on="0"/>
        <pt x="289" y="539" on="0"/>
      </contour>
      <contour>
        <pt x="867" y="47" on="1"/>
        <pt x="864" y="107" on="1"/>
        <pt x="818" y="52" on="0"/>
        <pt x="663" y="-17" on="0"/>
        <pt x="571" y="-17" on="1"/>
        <pt x="397" y="-17" on="0"/>
        <pt x="193" y="214" on="0"/>
        <pt x="193" y="398" on="1"/>
        <pt x="193" y="580" on="0"/>
        <pt x="399" y="813" on="0"/>
        <pt x="571" y="813" on="1"/>
        <pt x="662" y="813" on="0"/>
        <pt x="795" y="759" on="0"/>
        <pt x="855" y="707" on="1"/>
        <pt x="855" y="1091" on="1"/>
        <pt x="727" y="1083" on="1"/>
        <pt x="726" y="1083" on="0"/>
        <pt x="711" y="1080" on="0"/>
        <pt x="707" y="1080" on="1"/>
        <pt x="690" y="1080" on="0"/>
        <pt x="668" y="1102" on="0"/>
        <pt x="668" y="1118" on="1"/>
        <pt x="668" y="1152" on="0"/>
        <pt x="701" y="1159" on="1"/>
        <pt x="890" y="1178" on="1"/>
        <pt x="906" y="1180" on="0"/>
        <pt x="910" y="1180" on="1"/>
        <pt x="951" y="1180" on="0"/>
        <pt x="951" y="1141" on="1"/>
        <pt x="951" y="85" on="1"/>
        <pt x="1099" y="96" on="1"/>
        <pt x="1105" y="96" on="1"/>
        <pt x="1125" y="96" on="0"/>
        <pt x="1145" y="76" on="0"/>
        <pt x="1145" y="46" on="0"/>
        <pt x="1125" y="21" on="0"/>
        <pt x="1107" y="17" on="1"/>
        <pt x="921" y="-3" on="1"/>
        <pt x="914" y="-3" on="1"/>
        <pt x="870" y="-3" on="0"/>
      </contour>
    </TTGlyph>
    <TTGlyph name="dagger" xMin="296" yMin="-112" xMax="945" yMax="1217">
      <contour>
        <pt x="675" y="817" on="1"/>
        <pt x="900" y="817" on="1"/>
        <pt x="925" y="817" on="0"/>
        <pt x="945" y="804" on="0"/>
        <pt x="945" y="762" on="0"/>
        <pt x="924" y="747" on="0"/>
        <pt x="900" y="747" on="1"/>
        <pt x="675" y="747" on="1"/>
        <pt x="675" y="-67" on="1"/>
        <pt x="675" y="-88" on="0"/>
        <pt x="648" y="-112" on="0"/>
        <pt x="627" y="-112" on="1"/>
        <pt x="600" y="-112" on="0"/>
        <pt x="579" y="-87" on="0"/>
        <pt x="579" y="-56" on="1"/>
        <pt x="579" y="747" on="1"/>
        <pt x="341" y="747" on="1"/>
        <pt x="317" y="747" on="0"/>
        <pt x="296" y="762" on="0"/>
        <pt x="296" y="804" on="0"/>
        <pt x="316" y="817" on="0"/>
        <pt x="341" y="817" on="1"/>
        <pt x="579" y="817" on="1"/>
        <pt x="579" y="1168" on="1"/>
        <pt x="579" y="1217" on="0"/>
        <pt x="628" y="1217" on="1"/>
        <pt x="652" y="1217" on="0"/>
        <pt x="673" y="1193" on="0"/>
        <pt x="675" y="1168" on="1"/>
      </contour>
    </TTGlyph>
    <TTGlyph name="daggerdbl" xMin="336" yMin="-112" xMax="905" yMax="1217">
      <contour>
        <pt x="675" y="817" on="1"/>
        <pt x="860" y="817" on="1"/>
        <pt x="885" y="817" on="0"/>
        <pt x="905" y="804" on="0"/>
        <pt x="905" y="762" on="0"/>
        <pt x="884" y="747" on="0"/>
        <pt x="860" y="747" on="1"/>
        <pt x="675" y="747" on="1"/>
        <pt x="675" y="347" on="1"/>
        <pt x="860" y="347" on="1"/>
        <pt x="884" y="347" on="0"/>
        <pt x="905" y="333" on="0"/>
        <pt x="905" y="291" on="0"/>
        <pt x="884" y="277" on="0"/>
        <pt x="860" y="277" on="1"/>
        <pt x="675" y="277" on="1"/>
        <pt x="675" y="-67" on="1"/>
        <pt x="675" y="-88" on="0"/>
        <pt x="648" y="-112" on="0"/>
        <pt x="627" y="-112" on="1"/>
        <pt x="600" y="-112" on="0"/>
        <pt x="579" y="-87" on="0"/>
        <pt x="579" y="-56" on="1"/>
        <pt x="579" y="277" on="1"/>
        <pt x="381" y="277" on="1"/>
        <pt x="357" y="277" on="0"/>
        <pt x="336" y="291" on="0"/>
        <pt x="336" y="333" on="0"/>
        <pt x="357" y="347" on="0"/>
        <pt x="381" y="347" on="1"/>
        <pt x="579" y="347" on="1"/>
        <pt x="579" y="747" on="1"/>
        <pt x="381" y="747" on="1"/>
        <pt x="357" y="747" on="0"/>
        <pt x="336" y="762" on="0"/>
        <pt x="336" y="804" on="0"/>
        <pt x="356" y="817" on="0"/>
        <pt x="381" y="817" on="1"/>
        <pt x="579" y="817" on="1"/>
        <pt x="579" y="1168" on="1"/>
        <pt x="579" y="1217" on="0"/>
        <pt x="628" y="1217" on="1"/>
        <pt x="652" y="1217" on="0"/>
        <pt x="673" y="1193" on="0"/>
        <pt x="675" y="1168" on="1"/>
      </contour>
    </TTGlyph>
    <TTGlyph name="dcaron" xMin="193" yMin="-17" xMax="1612" yMax="1180">
      <component glyphName="comma" x="884" y="1000" flags="0x1004"/>
      <component glyphName="d" x="0" y="0" flags="0x1004"/>
    </TTGlyph>
    <TTGlyph name="dcroat" xMin="193" yMin="-17" xMax="1145" yMax="1180">
      <contour>
        <pt x="289" y="398" on="1"/>
        <pt x="289" y="256" on="0"/>
        <pt x="439" y="65" on="0"/>
        <pt x="573" y="65" on="1"/>
        <pt x="754" y="65" on="0"/>
        <pt x="855" y="210" on="1"/>
        <pt x="855" y="602" on="1"/>
        <pt x="752" y="731" on="0"/>
        <pt x="577" y="731" on="1"/>
        <pt x="440" y="731" on="0"/>
        <pt x="289" y="539" on="0"/>
      </contour>
      <contour>
        <pt x="867" y="47" on="1"/>
        <pt x="864" y="107" on="1"/>
        <pt x="818" y="52" on="0"/>
        <pt x="663" y="-17" on="0"/>
        <pt x="571" y="-17" on="1"/>
        <pt x="397" y="-17" on="0"/>
        <pt x="193" y="214" on="0"/>
        <pt x="193" y="398" on="1"/>
        <pt x="193" y="580" on="0"/>
        <pt x="399" y="813" on="0"/>
        <pt x="571" y="813" on="1"/>
        <pt x="662" y="813" on="0"/>
        <pt x="795" y="759" on="0"/>
        <pt x="855" y="707" on="1"/>
        <pt x="855" y="907" on="1"/>
        <pt x="661" y="907" on="1"/>
        <pt x="633" y="907" on="0"/>
        <pt x="610" y="924" on="0"/>
        <pt x="610" y="964" on="0"/>
        <pt x="634" y="979" on="0"/>
        <pt x="660" y="979" on="1"/>
        <pt x="855" y="979" on="1"/>
        <pt x="855" y="1091" on="1"/>
        <pt x="727" y="1083" on="1"/>
        <pt x="726" y="1083" on="0"/>
        <pt x="711" y="1080" on="0"/>
        <pt x="707" y="1080" on="1"/>
        <pt x="690" y="1080" on="0"/>
        <pt x="668" y="1102" on="0"/>
        <pt x="668" y="1118" on="1"/>
        <pt x="668" y="1152" on="0"/>
        <pt x="701" y="1159" on="1"/>
        <pt x="890" y="1178" on="1"/>
        <pt x="906" y="1180" on="0"/>
        <pt x="910" y="1180" on="1"/>
        <pt x="951" y="1180" on="0"/>
        <pt x="951" y="1141" on="1"/>
        <pt x="951" y="979" on="1"/>
        <pt x="1021" y="979" on="1"/>
        <pt x="1047" y="979" on="0"/>
        <pt x="1070" y="964" on="0"/>
        <pt x="1070" y="924" on="0"/>
        <pt x="1048" y="907" on="0"/>
        <pt x="1023" y="907" on="1"/>
        <pt x="951" y="907" on="1"/>
        <pt x="951" y="85" on="1"/>
        <pt x="1099" y="96" on="1"/>
        <pt x="1105" y="96" on="1"/>
        <pt x="1125" y="96" on="0"/>
        <pt x="1145" y="76" on="0"/>
        <pt x="1145" y="46" on="0"/>
        <pt x="1125" y="21" on="0"/>
        <pt x="1107" y="17" on="1"/>
        <pt x="921" y="-3" on="1"/>
        <pt x="914" y="-3" on="1"/>
        <pt x="870" y="-3" on="0"/>
      </contour>
    </TTGlyph>
    <TTGlyph name="degree" xMin="448" yMin="623" xMax="950" yMax="1121">
      <contour>
        <pt x="703" y="1121" on="1"/>
        <pt x="820" y="1121" on="0"/>
        <pt x="950" y="974" on="0"/>
        <pt x="950" y="772" on="0"/>
        <pt x="816" y="623" on="0"/>
        <pt x="580" y="623" on="0"/>
        <pt x="448" y="768" on="0"/>
        <pt x="448" y="868" on="1"/>
        <pt x="448" y="970" on="0"/>
        <pt x="584" y="1121" on="0"/>
      </contour>
      <contour>
        <pt x="640" y="719" on="0"/>
        <pt x="774" y="719" on="0"/>
        <pt x="845" y="805" on="0"/>
        <pt x="845" y="870" on="1"/>
        <pt x="845" y="936" on="0"/>
        <pt x="771" y="1024" on="0"/>
        <pt x="633" y="1024" on="0"/>
        <pt x="560" y="936" on="0"/>
        <pt x="560" y="870" on="1"/>
        <pt x="560" y="807" on="0"/>
      </contour>
    </TTGlyph>
    <TTGlyph name="dieresis" xMin="449" yMin="978" xMax="949" yMax="1143">
      <contour>
        <pt x="867" y="1143" on="1"/>
        <pt x="901" y="1143" on="0"/>
        <pt x="949" y="1095" on="0"/>
        <pt x="949" y="1060" on="1"/>
        <pt x="949" y="1026" on="0"/>
        <pt x="902" y="978" on="0"/>
        <pt x="832" y="978" on="0"/>
        <pt x="784" y="1026" on="0"/>
        <pt x="784" y="1094" on="0"/>
        <pt x="832" y="1143" on="0"/>
      </contour>
      <contour>
        <pt x="498" y="1143" on="0"/>
        <pt x="566" y="1143" on="0"/>
        <pt x="614" y="1095" on="0"/>
        <pt x="614" y="1060" on="1"/>
        <pt x="614" y="1026" on="0"/>
        <pt x="566" y="978" on="0"/>
        <pt x="532" y="978" on="1"/>
        <pt x="497" y="978" on="0"/>
        <pt x="449" y="1026" on="0"/>
        <pt x="449" y="1094" on="0"/>
      </contour>
    </TTGlyph>
    <TTGlyph name="divide" xMin="301" yMin="193" xMax="939" yMax="905">
      <contour>
        <pt x="347" y="596" on="1"/>
        <pt x="894" y="596" on="1"/>
        <pt x="915" y="596" on="0"/>
        <pt x="939" y="569" on="0"/>
        <pt x="939" y="529" on="0"/>
        <pt x="915" y="502" on="0"/>
        <pt x="894" y="502" on="1"/>
        <pt x="347" y="502" on="1"/>
        <pt x="325" y="502" on="0"/>
        <pt x="301" y="530" on="0"/>
        <pt x="301" y="551" on="1"/>
        <pt x="301" y="570" on="0"/>
        <pt x="324" y="596" on="0"/>
      </contour>
      <contour>
        <pt x="534" y="789" on="0"/>
        <pt x="534" y="857" on="0"/>
        <pt x="583" y="905" on="0"/>
        <pt x="618" y="905" on="1"/>
        <pt x="652" y="905" on="0"/>
        <pt x="700" y="858" on="0"/>
        <pt x="700" y="788" on="0"/>
        <pt x="652" y="741" on="0"/>
        <pt x="618" y="741" on="1"/>
        <pt x="583" y="741" on="0"/>
      </contour>
      <contour>
        <pt x="534" y="277" on="1"/>
        <pt x="534" y="311" on="0"/>
        <pt x="583" y="359" on="0"/>
        <pt x="618" y="359" on="1"/>
        <pt x="652" y="359" on="0"/>
        <pt x="700" y="312" on="0"/>
        <pt x="700" y="242" on="0"/>
        <pt x="652" y="193" on="0"/>
        <pt x="584" y="193" on="0"/>
        <pt x="534" y="242" on="0"/>
      </contour>
    </TTGlyph>
    <TTGlyph name="dollar" xMin="268" yMin="-167" xMax="1057" yMax="1344">
      <contour>
        <pt x="640" y="1315" on="1"/>
        <pt x="640" y="1328" on="0"/>
        <pt x="660" y="1344" on="0"/>
        <pt x="674" y="1344" on="1"/>
        <pt x="687" y="1344" on="0"/>
        <pt x="707" y="1328" on="0"/>
        <pt x="707" y="1315" on="1"/>
        <pt x="707" y="1183" on="1"/>
        <pt x="850" y="1168" on="0"/>
        <pt x="917" y="1095" on="1"/>
        <pt x="917" y="1187" on="0"/>
        <pt x="969" y="1187" on="1"/>
        <pt x="990" y="1187" on="0"/>
        <pt x="1009" y="1155" on="0"/>
        <pt x="1009" y="1117" on="1"/>
        <pt x="1009" y="864" on="1"/>
        <pt x="1009" y="838" on="0"/>
        <pt x="983" y="811" on="0"/>
        <pt x="963" y="811" on="1"/>
        <pt x="945" y="811" on="0"/>
        <pt x="918" y="836" on="0"/>
        <pt x="918" y="858" on="1"/>
        <pt x="918" y="949" on="1"/>
        <pt x="912" y="998" on="0"/>
        <pt x="826" y="1070" on="0"/>
        <pt x="769" y="1086" on="1"/>
        <pt x="739" y="1094" on="0"/>
        <pt x="707" y="1098" on="1"/>
        <pt x="707" y="636" on="1"/>
        <pt x="729" y="628" on="0"/>
        <pt x="751" y="621" on="1"/>
        <pt x="829" y="594" on="0"/>
        <pt x="934" y="541" on="0"/>
        <pt x="1018" y="467" on="0"/>
        <pt x="1057" y="371" on="0"/>
        <pt x="1057" y="308" on="1"/>
        <pt x="1057" y="222" on="0"/>
        <pt x="997" y="93" on="0"/>
        <pt x="892" y="19" on="0"/>
        <pt x="828" y="1" on="1"/>
        <pt x="772" y="-15" on="0"/>
        <pt x="707" y="-17" on="1"/>
        <pt x="707" y="-141" on="1"/>
        <pt x="707" y="-153" on="0"/>
        <pt x="687" y="-167" on="0"/>
        <pt x="674" y="-167" on="1"/>
        <pt x="660" y="-167" on="0"/>
        <pt x="640" y="-153" on="0"/>
        <pt x="640" y="-141" on="1"/>
        <pt x="640" y="-14" on="1"/>
        <pt x="577" y="-7" on="0"/>
        <pt x="510" y="16" on="1"/>
        <pt x="416" y="49" on="0"/>
        <pt x="363" y="105" on="1"/>
        <pt x="363" y="-17" on="0"/>
        <pt x="316" y="-17" on="1"/>
        <pt x="290" y="-17" on="0"/>
        <pt x="268" y="15" on="0"/>
        <pt x="268" y="57" on="1"/>
        <pt x="268" y="371" on="1"/>
        <pt x="268" y="394" on="0"/>
        <pt x="293" y="418" on="0"/>
        <pt x="331" y="418" on="0"/>
        <pt x="358" y="392" on="0"/>
        <pt x="358" y="369" on="1"/>
        <pt x="358" y="250" on="1"/>
        <pt x="358" y="185" on="0"/>
        <pt x="464" y="127" on="1"/>
        <pt x="547" y="81" on="0"/>
        <pt x="640" y="72" on="1"/>
        <pt x="640" y="561" on="1"/>
        <pt x="567" y="586" on="1"/>
        <pt x="512" y="605" on="0"/>
        <pt x="440" y="635" on="0"/>
        <pt x="359" y="685" on="0"/>
        <pt x="313" y="742" on="0"/>
        <pt x="282" y="827" on="0"/>
        <pt x="282" y="881" on="1"/>
        <pt x="282" y="1025" on="0"/>
        <pt x="479" y="1187" on="0"/>
        <pt x="627" y="1187" on="1"/>
        <pt x="634" y="1187" on="0"/>
        <pt x="640" y="1187" on="1"/>
      </contour>
      <contour>
        <pt x="640" y="1101" on="1"/>
        <pt x="519" y="1100" on="0"/>
        <pt x="450" y="1044" on="1"/>
        <pt x="378" y="986" on="0"/>
        <pt x="378" y="886" on="1"/>
        <pt x="378" y="857" on="0"/>
        <pt x="389" y="810" on="0"/>
        <pt x="402" y="776" on="0"/>
        <pt x="441" y="743" on="0"/>
        <pt x="465" y="725" on="0"/>
        <pt x="532" y="697" on="0"/>
        <pt x="568" y="684" on="0"/>
        <pt x="615" y="668" on="1"/>
        <pt x="627" y="664" on="0"/>
        <pt x="640" y="659" on="1"/>
      </contour>
      <contour>
        <pt x="707" y="69" on="1"/>
        <pt x="816" y="72" on="0"/>
        <pt x="886" y="126" on="1"/>
        <pt x="961" y="183" on="0"/>
        <pt x="961" y="304" on="1"/>
        <pt x="961" y="351" on="0"/>
        <pt x="932" y="421" on="0"/>
        <pt x="868" y="473" on="0"/>
        <pt x="791" y="509" on="0"/>
        <pt x="731" y="530" on="1"/>
        <pt x="719" y="534" on="0"/>
        <pt x="707" y="538" on="1"/>
      </contour>
    </TTGlyph>
    <TTGlyph name="dotaccent" xMin="561" yMin="646" xMax="726" yMax="811">
      <contour>
        <pt x="610" y="811" on="0"/>
        <pt x="678" y="811" on="0"/>
        <pt x="726" y="763" on="0"/>
        <pt x="726" y="728" on="1"/>
        <pt x="726" y="694" on="0"/>
        <pt x="678" y="646" on="0"/>
        <pt x="644" y="646" on="1"/>
        <pt x="609" y="646" on="0"/>
        <pt x="561" y="694" on="0"/>
        <pt x="561" y="762" on="0"/>
      </contour>
    </TTGlyph>
    <TTGlyph name="dotlessi" xMin="253" yMin="0" xMax="1136" yMax="811">
      <contour>
        <pt x="299" y="0" on="1"/>
        <pt x="277" y="0" on="0"/>
        <pt x="253" y="26" on="0"/>
        <pt x="253" y="43" on="1"/>
        <pt x="253" y="59" on="0"/>
        <pt x="275" y="82" on="0"/>
        <pt x="295" y="82" on="1"/>
        <pt x="667" y="82" on="1"/>
        <pt x="667" y="719" on="1"/>
        <pt x="334" y="674" on="1"/>
        <pt x="332" y="674" on="0"/>
        <pt x="328" y="673" on="0"/>
        <pt x="327" y="673" on="1"/>
        <pt x="308" y="673" on="0"/>
        <pt x="286" y="698" on="0"/>
        <pt x="286" y="715" on="1"/>
        <pt x="286" y="751" on="0"/>
        <pt x="318" y="755" on="1"/>
        <pt x="716" y="810" on="1"/>
        <pt x="719" y="811" on="0"/>
        <pt x="727" y="811" on="1"/>
        <pt x="743" y="811" on="0"/>
        <pt x="763" y="794" on="0"/>
        <pt x="763" y="779" on="1"/>
        <pt x="763" y="82" on="1"/>
        <pt x="1096" y="82" on="1"/>
        <pt x="1115" y="82" on="0"/>
        <pt x="1136" y="57" on="0"/>
        <pt x="1136" y="41" on="1"/>
        <pt x="1136" y="24" on="0"/>
        <pt x="1114" y="0" on="0"/>
        <pt x="1095" y="0" on="1"/>
      </contour>
    </TTGlyph>
    <TTGlyph name="e" xMin="212" yMin="-17" xMax="1015" yMax="813">
      <contour>
        <pt x="654" y="813" on="1"/>
        <pt x="814" y="813" on="0"/>
        <pt x="1014" y="638" on="0"/>
        <pt x="1014" y="479" on="1"/>
        <pt x="1014" y="441" on="0"/>
        <pt x="972" y="392" on="0"/>
        <pt x="937" y="392" on="1"/>
        <pt x="308" y="387" on="1"/>
        <pt x="313" y="229" on="0"/>
        <pt x="503" y="65" on="0"/>
        <pt x="657" y="65" on="1"/>
        <pt x="819" y="65" on="0"/>
        <pt x="934" y="174" on="1"/>
        <pt x="955" y="191" on="0"/>
        <pt x="975" y="191" on="1"/>
        <pt x="993" y="191" on="0"/>
        <pt x="1015" y="165" on="0"/>
        <pt x="1015" y="147" on="1"/>
        <pt x="1015" y="124" on="0"/>
        <pt x="997" y="105" on="1"/>
        <pt x="945" y="49" on="0"/>
        <pt x="750" y="-17" on="0"/>
        <pt x="665" y="-17" on="1"/>
        <pt x="462" y="-17" on="0"/>
        <pt x="212" y="210" on="0"/>
        <pt x="212" y="407" on="1"/>
        <pt x="212" y="501" on="0"/>
        <pt x="282" y="656" on="0"/>
        <pt x="403" y="757" on="0"/>
        <pt x="563" y="813" on="0"/>
      </contour>
      <contour>
        <pt x="311" y="461" on="1"/>
        <pt x="929" y="465" on="1"/>
        <pt x="927" y="501" on="0"/>
        <pt x="916" y="561" on="0"/>
        <pt x="881" y="640" on="0"/>
        <pt x="825" y="693" on="0"/>
        <pt x="724" y="731" on="0"/>
        <pt x="656" y="731" on="1"/>
        <pt x="510" y="731" on="0"/>
        <pt x="329" y="589" on="0"/>
      </contour>
    </TTGlyph>
    <TTGlyph name="eacute" xMin="212" yMin="-17" xMax="1015" yMax="1262">
      <component glyphName="acute" x="-65" y="-43" flags="0x1004"/>
      <component glyphName="e" x="0" y="0" flags="0x1204"/>
    </TTGlyph>
    <TTGlyph name="ebreve" xMin="212" yMin="-17" xMax="1015" yMax="1154">
      <component glyphName="breve" x="-76" y="6" flags="0x1004"/>
      <component glyphName="e" x="0" y="0" flags="0x1204"/>
    </TTGlyph>
    <TTGlyph name="ecaron" xMin="212" yMin="-17" xMax="1015" yMax="1317">
      <component glyphName="caron" x="-78" y="-3" flags="0x1004"/>
      <component glyphName="e" x="0" y="0" flags="0x1204"/>
    </TTGlyph>
    <TTGlyph name="ecircumflex" xMin="212" yMin="-17" xMax="1015" yMax="1276">
      <component glyphName="circumflex" x="-78" y="-44" flags="0x1004"/>
      <component glyphName="e" x="0" y="0" flags="0x1204"/>
    </TTGlyph>
    <TTGlyph name="edieresis" xMin="212" yMin="-17" xMax="1015" yMax="1100">
      <component glyphName="dieresis" x="-86" y="-43" flags="0x1004"/>
      <component glyphName="e" x="0" y="0" flags="0x1204"/>
    </TTGlyph>
    <TTGlyph name="edotaccent" xMin="212" yMin="-17" xMax="1015" yMax="1100">
      <component glyphName="uni0307" x="-30" y="287" flags="0x1004"/>
      <component glyphName="e" x="0" y="0" flags="0x1204"/>
    </TTGlyph>
    <TTGlyph name="egrave" xMin="212" yMin="-17" xMax="1015" yMax="1237">
      <component glyphName="grave" x="414" y="-40" flags="0x1004"/>
      <component glyphName="e" x="0" y="0" flags="0x1204"/>
    </TTGlyph>
    <TTGlyph name="eight" xMin="260" yMin="-17" xMax="1022" yMax="1187">
      <contour>
        <pt x="620" y="1187" on="1"/>
        <pt x="780" y="1187" on="0"/>
        <pt x="970" y="1050" on="0"/>
        <pt x="970" y="913" on="1"/>
        <pt x="970" y="870" on="0"/>
        <pt x="940" y="789" on="0"/>
        <pt x="901" y="732" on="0"/>
        <pt x="829" y="667" on="0"/>
        <pt x="783" y="633" on="0"/>
        <pt x="741" y="604" on="1"/>
        <pt x="732" y="598" on="0"/>
        <pt x="728" y="595" on="1"/>
        <pt x="856" y="523" on="0"/>
        <pt x="904" y="484" on="1"/>
        <pt x="1022" y="388" on="0"/>
        <pt x="1022" y="268" on="1"/>
        <pt x="1022" y="120" on="0"/>
        <pt x="813" y="-17" on="0"/>
        <pt x="642" y="-17" on="1"/>
        <pt x="582" y="-17" on="0"/>
        <pt x="475" y="1" on="0"/>
        <pt x="375" y="43" on="0"/>
        <pt x="303" y="108" on="0"/>
        <pt x="260" y="210" on="0"/>
        <pt x="260" y="274" on="1"/>
        <pt x="260" y="307" on="0"/>
        <pt x="282" y="372" on="0"/>
        <pt x="311" y="422" on="0"/>
        <pt x="367" y="478" on="0"/>
        <pt x="405" y="511" on="0"/>
        <pt x="478" y="560" on="0"/>
        <pt x="509" y="578" on="0"/>
        <pt x="544" y="599" on="1"/>
        <pt x="538" y="603" on="0"/>
        <pt x="526" y="610" on="1"/>
        <pt x="483" y="636" on="0"/>
        <pt x="436" y="667" on="0"/>
        <pt x="361" y="727" on="0"/>
        <pt x="321" y="780" on="0"/>
        <pt x="290" y="856" on="0"/>
        <pt x="290" y="897" on="1"/>
        <pt x="290" y="1033" on="0"/>
        <pt x="476" y="1187" on="0"/>
      </contour>
      <contour>
        <pt x="648" y="69" on="1"/>
        <pt x="926" y="69" on="0"/>
        <pt x="926" y="266" on="1"/>
        <pt x="926" y="298" on="0"/>
        <pt x="906" y="357" on="0"/>
        <pt x="865" y="407" on="0"/>
        <pt x="824" y="446" on="0"/>
        <pt x="757" y="489" on="0"/>
        <pt x="714" y="513" on="0"/>
        <pt x="640" y="552" on="0"/>
        <pt x="626" y="560" on="1"/>
        <pt x="584" y="536" on="0"/>
        <pt x="537" y="508" on="0"/>
        <pt x="447" y="445" on="0"/>
        <pt x="397" y="392" on="0"/>
        <pt x="356" y="318" on="0"/>
        <pt x="356" y="282" on="1"/>
        <pt x="356" y="232" on="0"/>
        <pt x="391" y="155" on="0"/>
        <pt x="447" y="109" on="0"/>
        <pt x="526" y="80" on="0"/>
        <pt x="604" y="69" on="0"/>
      </contour>
      <contour>
        <pt x="628" y="1101" on="1"/>
        <pt x="525" y="1101" on="0"/>
        <pt x="382" y="1004" on="0"/>
        <pt x="382" y="906" on="1"/>
        <pt x="382" y="869" on="0"/>
        <pt x="406" y="806" on="0"/>
        <pt x="445" y="758" on="0"/>
        <pt x="508" y="711" on="0"/>
        <pt x="572" y="673" on="0"/>
        <pt x="616" y="649" on="1"/>
        <pt x="633" y="640" on="0"/>
        <pt x="642" y="635" on="1"/>
        <pt x="698" y="667" on="0"/>
        <pt x="772" y="718" on="0"/>
        <pt x="843" y="785" on="0"/>
        <pt x="878" y="861" on="0"/>
        <pt x="878" y="905" on="1"/>
        <pt x="878" y="1101" on="0"/>
      </contour>
    </TTGlyph>
    <TTGlyph name="ellipsis" xMin="154" yMin="-16" xMax="1084" yMax="195">
      <component glyphName="period" x="358" y="0" flags="0x1004"/>
      <component glyphName="period" x="-2" y="0" flags="0x1004"/>
      <component glyphName="period" x="-360" y="0" flags="0x1004"/>
    </TTGlyph>
    <TTGlyph name="emacron" xMin="212" yMin="-17" xMax="1015" yMax="1062">
      <component glyphName="macron" x="-78" y="-57" flags="0x1004"/>
      <component glyphName="e" x="0" y="0" flags="0x1204"/>
    </TTGlyph>
    <TTGlyph name="emdash" xMin="154" yMin="447" xMax="1087" yMax="533">
      <contour>
        <pt x="1042" y="533" on="1"/>
        <pt x="1063" y="533" on="0"/>
        <pt x="1087" y="508" on="0"/>
        <pt x="1087" y="490" on="1"/>
        <pt x="1087" y="473" on="0"/>
        <pt x="1063" y="447" on="0"/>
        <pt x="1042" y="447" on="1"/>
        <pt x="199" y="447" on="1"/>
        <pt x="178" y="447" on="0"/>
        <pt x="154" y="473" on="0"/>
        <pt x="154" y="490" on="1"/>
        <pt x="154" y="508" on="0"/>
        <pt x="178" y="533" on="0"/>
        <pt x="199" y="533" on="1"/>
      </contour>
    </TTGlyph>
    <TTGlyph name="endash" xMin="238" yMin="417" xMax="1003" yMax="503">
      <contour>
        <pt x="958" y="503" on="1"/>
        <pt x="979" y="503" on="0"/>
        <pt x="1003" y="478" on="0"/>
        <pt x="1003" y="460" on="1"/>
        <pt x="1003" y="443" on="0"/>
        <pt x="979" y="417" on="0"/>
        <pt x="958" y="417" on="1"/>
        <pt x="283" y="417" on="1"/>
        <pt x="262" y="417" on="0"/>
        <pt x="238" y="443" on="0"/>
        <pt x="238" y="460" on="1"/>
        <pt x="238" y="478" on="0"/>
        <pt x="262" y="503" on="0"/>
        <pt x="283" y="503" on="1"/>
      </contour>
    </TTGlyph>
    <TTGlyph name="eng" xMin="153" yMin="-308" xMax="1012" yMax="813">
      <contour>
        <pt x="484" y="-308" on="1"/>
        <pt x="460" y="-308" on="0"/>
        <pt x="433" y="-282" on="0"/>
        <pt x="433" y="-246" on="0"/>
        <pt x="464" y="-219" on="0"/>
        <pt x="491" y="-219" on="1"/>
        <pt x="560" y="-219" on="0"/>
        <pt x="703" y="-193" on="0"/>
        <pt x="834" y="-142" on="0"/>
        <pt x="916" y="-54" on="0"/>
        <pt x="916" y="1" on="1"/>
        <pt x="916" y="540" on="1"/>
        <pt x="916" y="631" on="0"/>
        <pt x="825" y="731" on="0"/>
        <pt x="736" y="731" on="1"/>
        <pt x="600" y="731" on="0"/>
        <pt x="416" y="585" on="0"/>
        <pt x="416" y="503" on="1"/>
        <pt x="416" y="82" on="1"/>
        <pt x="521" y="82" on="1"/>
        <pt x="544" y="82" on="0"/>
        <pt x="569" y="58" on="0"/>
        <pt x="569" y="42" on="1"/>
        <pt x="569" y="25" on="0"/>
        <pt x="542" y="0" on="0"/>
        <pt x="519" y="0" on="1"/>
        <pt x="216" y="0" on="1"/>
        <pt x="194" y="0" on="0"/>
        <pt x="170" y="26" on="0"/>
        <pt x="170" y="43" on="1"/>
        <pt x="170" y="59" on="0"/>
        <pt x="192" y="82" on="0"/>
        <pt x="212" y="82" on="1"/>
        <pt x="320" y="82" on="1"/>
        <pt x="320" y="709" on="1"/>
        <pt x="212" y="687" on="1"/>
        <pt x="201" y="684" on="0"/>
        <pt x="192" y="684" on="1"/>
        <pt x="175" y="684" on="0"/>
        <pt x="153" y="706" on="0"/>
        <pt x="153" y="722" on="1"/>
        <pt x="153" y="755" on="0"/>
        <pt x="186" y="763" on="1"/>
        <pt x="350" y="796" on="1"/>
        <pt x="364" y="798" on="0"/>
        <pt x="368" y="798" on="1"/>
        <pt x="405" y="798" on="0"/>
        <pt x="407" y="759" on="1"/>
        <pt x="412" y="639" on="1"/>
        <pt x="450" y="714" on="0"/>
        <pt x="628" y="813" on="0"/>
        <pt x="731" y="813" on="1"/>
        <pt x="872" y="813" on="0"/>
        <pt x="1012" y="667" on="0"/>
        <pt x="1012" y="533" on="1"/>
        <pt x="1012" y="-9" on="1"/>
        <pt x="1012" y="-98" on="0"/>
        <pt x="848" y="-239" on="0"/>
        <pt x="610" y="-308" on="0"/>
      </contour>
    </TTGlyph>
    <TTGlyph name="eogonek" xMin="212" yMin="-430" xMax="1015" yMax="813">
      <component glyphName="ogonek" x="51" y="-23" flags="0x1004"/>
      <component glyphName="e" x="0" y="0" flags="0x1204"/>
    </TTGlyph>
    <TTGlyph name="equal" xMin="296" yMin="256" xMax="945" yMax="689">
      <contour>
        <pt x="900" y="689" on="1"/>
        <pt x="921" y="689" on="0"/>
        <pt x="945" y="662" on="0"/>
        <pt x="945" y="644" on="1"/>
        <pt x="945" y="625" on="0"/>
        <pt x="921" y="598" on="0"/>
        <pt x="900" y="598" on="1"/>
        <pt x="341" y="598" on="1"/>
        <pt x="320" y="598" on="0"/>
        <pt x="296" y="625" on="0"/>
        <pt x="296" y="644" on="1"/>
        <pt x="296" y="662" on="0"/>
        <pt x="320" y="689" on="0"/>
        <pt x="341" y="689" on="1"/>
      </contour>
      <contour>
        <pt x="900" y="347" on="1"/>
        <pt x="921" y="347" on="0"/>
        <pt x="945" y="320" on="0"/>
        <pt x="945" y="302" on="1"/>
        <pt x="945" y="283" on="0"/>
        <pt x="921" y="256" on="0"/>
        <pt x="900" y="256" on="1"/>
        <pt x="341" y="256" on="1"/>
        <pt x="320" y="256" on="0"/>
        <pt x="296" y="283" on="0"/>
        <pt x="296" y="302" on="1"/>
        <pt x="296" y="320" on="0"/>
        <pt x="320" y="347" on="0"/>
        <pt x="341" y="347" on="1"/>
      </contour>
    </TTGlyph>
    <TTGlyph name="eth" xMin="212" yMin="-17" xMax="1010" yMax="1288">
      <contour>
        <pt x="703" y="1116" on="1"/>
        <pt x="872" y="959" on="0"/>
        <pt x="1010" y="632" on="0"/>
        <pt x="1010" y="453" on="1"/>
        <pt x="1010" y="232" on="0"/>
        <pt x="806" y="-17" on="0"/>
        <pt x="602" y="-17" on="1"/>
        <pt x="425" y="-17" on="0"/>
        <pt x="212" y="207" on="0"/>
        <pt x="212" y="394" on="1"/>
        <pt x="212" y="583" on="0"/>
        <pt x="424" y="813" on="0"/>
        <pt x="607" y="813" on="1"/>
        <pt x="815" y="813" on="0"/>
        <pt x="919" y="615" on="1"/>
        <pt x="857" y="855" on="0"/>
        <pt x="629" y="1065" on="1"/>
        <pt x="492" y="971" on="1"/>
        <pt x="482" y="964" on="0"/>
        <pt x="471" y="964" on="1"/>
        <pt x="455" y="964" on="0"/>
        <pt x="430" y="991" on="0"/>
        <pt x="430" y="1008" on="1"/>
        <pt x="430" y="1026" on="0"/>
        <pt x="446" y="1038" on="1"/>
        <pt x="565" y="1121" on="1"/>
        <pt x="537" y="1144" on="0"/>
        <pt x="479" y="1187" on="0"/>
        <pt x="438" y="1214" on="0"/>
        <pt x="434" y="1218" on="1"/>
        <pt x="428" y="1222" on="0"/>
        <pt x="428" y="1231" on="1"/>
        <pt x="428" y="1248" on="0"/>
        <pt x="459" y="1288" on="0"/>
        <pt x="474" y="1288" on="1"/>
        <pt x="478" y="1288" on="0"/>
        <pt x="483" y="1285" on="1"/>
        <pt x="563" y="1234" on="0"/>
        <pt x="638" y="1172" on="1"/>
        <pt x="777" y="1269" on="1"/>
        <pt x="786" y="1275" on="0"/>
        <pt x="795" y="1275" on="1"/>
        <pt x="812" y="1275" on="0"/>
        <pt x="839" y="1244" on="0"/>
        <pt x="839" y="1226" on="1"/>
        <pt x="839" y="1209" on="0"/>
        <pt x="825" y="1199" on="1"/>
      </contour>
      <contour>
        <pt x="602" y="65" on="1"/>
        <pt x="750" y="65" on="0"/>
        <pt x="914" y="240" on="0"/>
        <pt x="914" y="391" on="1"/>
        <pt x="914" y="553" on="0"/>
        <pt x="737" y="731" on="0"/>
        <pt x="608" y="731" on="1"/>
        <pt x="463" y="731" on="0"/>
        <pt x="308" y="554" on="0"/>
        <pt x="308" y="391" on="1"/>
        <pt x="308" y="238" on="0"/>
        <pt x="472" y="65" on="0"/>
      </contour>
    </TTGlyph>
    <TTGlyph name="exclam" xMin="519" yMin="-9" xMax="722" yMax="1187">
      <contour>
        <pt x="686" y="1103" on="1"/>
        <pt x="686" y="989" on="0"/>
        <pt x="646" y="505" on="0"/>
        <pt x="646" y="380" on="1"/>
        <pt x="646" y="344" on="0"/>
        <pt x="598" y="344" on="0"/>
        <pt x="598" y="380" on="1"/>
        <pt x="598" y="506" on="0"/>
        <pt x="556" y="988" on="0"/>
        <pt x="556" y="1103" on="1"/>
        <pt x="556" y="1150" on="0"/>
        <pt x="590" y="1187" on="0"/>
        <pt x="622" y="1187" on="1"/>
        <pt x="686" y="1187" on="0"/>
      </contour>
      <contour>
        <pt x="664" y="-9" on="0"/>
        <pt x="578" y="-9" on="0"/>
        <pt x="519" y="50" on="0"/>
        <pt x="519" y="136" on="0"/>
        <pt x="578" y="193" on="0"/>
        <pt x="664" y="193" on="0"/>
        <pt x="722" y="136" on="0"/>
        <pt x="722" y="50" on="0"/>
      </contour>
    </TTGlyph>
    <TTGlyph name="exclamdown" xMin="519" yMin="-318" xMax="722" yMax="878">
      <component glyphName="exclam" x="1241" y="869" scale="-1.0" flags="0x1004"/>
    </TTGlyph>
    <TTGlyph name="f" xMin="281" yMin="0" xMax="1042" yMax="1188">
      <contour>
        <pt x="1036" y="1020" on="1"/>
        <pt x="1036" y="993" on="0"/>
        <pt x="1007" y="964" on="0"/>
        <pt x="987" y="964" on="1"/>
        <pt x="968" y="964" on="0"/>
        <pt x="940" y="991" on="0"/>
        <pt x="940" y="1016" on="1"/>
        <pt x="940" y="1109" on="1"/>
        <pt x="768" y="1097" on="0"/>
        <pt x="641" y="974" on="0"/>
        <pt x="641" y="832" on="1"/>
        <pt x="641" y="766" on="1"/>
        <pt x="950" y="766" on="1"/>
        <pt x="969" y="766" on="0"/>
        <pt x="990" y="741" on="0"/>
        <pt x="990" y="725" on="1"/>
        <pt x="990" y="708" on="0"/>
        <pt x="968" y="684" on="0"/>
        <pt x="949" y="684" on="1"/>
        <pt x="640" y="684" on="1"/>
        <pt x="641" y="82" on="1"/>
        <pt x="1003" y="82" on="1"/>
        <pt x="1021" y="82" on="0"/>
        <pt x="1042" y="57" on="0"/>
        <pt x="1042" y="41" on="1"/>
        <pt x="1042" y="24" on="0"/>
        <pt x="1021" y="0" on="0"/>
        <pt x="1002" y="0" on="1"/>
        <pt x="327" y="0" on="1"/>
        <pt x="305" y="0" on="0"/>
        <pt x="281" y="25" on="0"/>
        <pt x="281" y="42" on="1"/>
        <pt x="281" y="58" on="0"/>
        <pt x="303" y="82" on="0"/>
        <pt x="323" y="82" on="1"/>
        <pt x="544" y="82" on="1"/>
        <pt x="544" y="684" on="1"/>
        <pt x="352" y="684" on="1"/>
        <pt x="330" y="684" on="0"/>
        <pt x="306" y="709" on="0"/>
        <pt x="306" y="726" on="1"/>
        <pt x="306" y="742" on="0"/>
        <pt x="328" y="766" on="0"/>
        <pt x="348" y="766" on="1"/>
        <pt x="544" y="766" on="1"/>
        <pt x="544" y="838" on="1"/>
        <pt x="544" y="1015" on="0"/>
        <pt x="769" y="1188" on="0"/>
        <pt x="979" y="1188" on="1"/>
        <pt x="1003" y="1188" on="0"/>
        <pt x="1036" y="1160" on="0"/>
        <pt x="1036" y="1137" on="1"/>
      </contour>
    </TTGlyph>
    <TTGlyph name="five" xMin="313" yMin="-17" xMax="1011" yMax="1260">
      <contour>
        <pt x="579" y="-17" on="1"/>
        <pt x="443" y="-17" on="0"/>
        <pt x="340" y="54" on="1"/>
        <pt x="313" y="73" on="0"/>
        <pt x="313" y="98" on="1"/>
        <pt x="313" y="114" on="0"/>
        <pt x="337" y="138" on="0"/>
        <pt x="353" y="138" on="1"/>
        <pt x="366" y="138" on="0"/>
        <pt x="377" y="130" on="1"/>
        <pt x="466" y="65" on="0"/>
        <pt x="592" y="65" on="1"/>
        <pt x="649" y="65" on="0"/>
        <pt x="761" y="106" on="0"/>
        <pt x="856" y="181" on="0"/>
        <pt x="915" y="305" on="0"/>
        <pt x="915" y="381" on="1"/>
        <pt x="915" y="520" on="0"/>
        <pt x="779" y="657" on="0"/>
        <pt x="679" y="657" on="1"/>
        <pt x="602" y="657" on="0"/>
        <pt x="461" y="579" on="0"/>
        <pt x="430" y="517" on="1"/>
        <pt x="423" y="495" on="0"/>
        <pt x="395" y="495" on="1"/>
        <pt x="380" y="495" on="0"/>
        <pt x="358" y="513" on="0"/>
        <pt x="358" y="529" on="1"/>
        <pt x="378" y="1111" on="1"/>
        <pt x="378" y="1132" on="0"/>
        <pt x="399" y="1158" on="0"/>
        <pt x="446" y="1168" on="0"/>
        <pt x="482" y="1171" on="0"/>
        <pt x="514" y="1171" on="1"/>
        <pt x="838" y="1171" on="1"/>
        <pt x="852" y="1225" on="0"/>
        <pt x="871" y="1260" on="0"/>
        <pt x="889" y="1260" on="1"/>
        <pt x="934" y="1260" on="0"/>
        <pt x="934" y="1227" on="1"/>
        <pt x="934" y="1167" on="0"/>
        <pt x="893" y="1089" on="0"/>
        <pt x="857" y="1089" on="1"/>
        <pt x="487" y="1089" on="1"/>
        <pt x="479" y="1089" on="0"/>
        <pt x="479" y="1081" on="1"/>
        <pt x="444" y="642" on="1"/>
        <pt x="556" y="735" on="0"/>
        <pt x="687" y="735" on="1"/>
        <pt x="821" y="735" on="0"/>
        <pt x="1011" y="545" on="0"/>
        <pt x="1011" y="396" on="1"/>
        <pt x="1011" y="273" on="0"/>
        <pt x="894" y="82" on="0"/>
        <pt x="699" y="-17" on="0"/>
      </contour>
    </TTGlyph>
    <TTGlyph name="florin" xMin="262" yMin="-211" xMax="1041" yMax="1188">
      <contour>
        <pt x="623" y="48" on="1"/>
        <pt x="617" y="-21" on="0"/>
        <pt x="567" y="-121" on="0"/>
        <pt x="505" y="-174" on="0"/>
        <pt x="412" y="-204" on="0"/>
        <pt x="342" y="-211" on="0"/>
        <pt x="296" y="-211" on="1"/>
        <pt x="262" y="-211" on="0"/>
        <pt x="262" y="-174" on="1"/>
        <pt x="262" y="-172" on="0"/>
        <pt x="263" y="-164" on="0"/>
        <pt x="263" y="-161" on="1"/>
        <pt x="273" y="-43" on="1"/>
        <pt x="274" y="-29" on="0"/>
        <pt x="302" y="-13" on="0"/>
        <pt x="318" y="-13" on="1"/>
        <pt x="353" y="-13" on="0"/>
        <pt x="353" y="-36" on="1"/>
        <pt x="353" y="-39" on="1"/>
        <pt x="345" y="-137" on="1"/>
        <pt x="511" y="-137" on="0"/>
        <pt x="527" y="46" on="1"/>
        <pt x="581" y="690" on="1"/>
        <pt x="436" y="690" on="1"/>
        <pt x="420" y="690" on="0"/>
        <pt x="403" y="713" on="0"/>
        <pt x="403" y="729" on="1"/>
        <pt x="403" y="734" on="1"/>
        <pt x="405" y="750" on="0"/>
        <pt x="424" y="774" on="0"/>
        <pt x="439" y="774" on="1"/>
        <pt x="588" y="774" on="1"/>
        <pt x="594" y="838" on="1"/>
        <pt x="609" y="1018" on="0"/>
        <pt x="803" y="1188" on="0"/>
        <pt x="988" y="1188" on="1"/>
        <pt x="1010" y="1188" on="0"/>
        <pt x="1041" y="1163" on="0"/>
        <pt x="1041" y="1142" on="1"/>
        <pt x="1041" y="1137" on="1"/>
        <pt x="1031" y="1020" on="1"/>
        <pt x="1030" y="1006" on="0"/>
        <pt x="1000" y="990" on="0"/>
        <pt x="981" y="990" on="1"/>
        <pt x="965" y="990" on="0"/>
        <pt x="941" y="1003" on="0"/>
        <pt x="941" y="1014" on="1"/>
        <pt x="941" y="1016" on="1"/>
        <pt x="949" y="1118" on="1"/>
        <pt x="889" y="1113" on="0"/>
        <pt x="809" y="1087" on="0"/>
        <pt x="737" y="1029" on="0"/>
        <pt x="697" y="922" on="0"/>
        <pt x="690" y="841" on="1"/>
        <pt x="684" y="774" on="1"/>
        <pt x="854" y="774" on="1"/>
        <pt x="883" y="774" on="0"/>
        <pt x="883" y="739" on="1"/>
        <pt x="883" y="734" on="1"/>
        <pt x="881" y="716" on="0"/>
        <pt x="862" y="690" on="0"/>
        <pt x="846" y="690" on="1"/>
        <pt x="677" y="690" on="1"/>
      </contour>
    </TTGlyph>
    <TTGlyph name="four" xMin="207" yMin="0" xMax="1040" yMax="1179">
      <contour>
        <pt x="707" y="1019" on="1"/>
        <pt x="322" y="449" on="1"/>
        <pt x="707" y="449" on="1"/>
      </contour>
      <contour>
        <pt x="420" y="0" on="1"/>
        <pt x="409" y="0" on="0"/>
        <pt x="395" y="20" on="0"/>
        <pt x="395" y="34" on="1"/>
        <pt x="395" y="65" on="0"/>
        <pt x="419" y="65" on="1"/>
        <pt x="707" y="65" on="1"/>
        <pt x="707" y="371" on="1"/>
        <pt x="245" y="371" on="1"/>
        <pt x="231" y="371" on="0"/>
        <pt x="207" y="398" on="0"/>
        <pt x="207" y="415" on="1"/>
        <pt x="207" y="430" on="0"/>
        <pt x="217" y="443" on="1"/>
        <pt x="728" y="1167" on="1"/>
        <pt x="737" y="1179" on="0"/>
        <pt x="764" y="1179" on="1"/>
        <pt x="803" y="1179" on="0"/>
        <pt x="803" y="1125" on="1"/>
        <pt x="803" y="449" on="1"/>
        <pt x="1005" y="449" on="1"/>
        <pt x="1022" y="449" on="0"/>
        <pt x="1040" y="427" on="0"/>
        <pt x="1040" y="410" on="1"/>
        <pt x="1040" y="394" on="0"/>
        <pt x="1021" y="371" on="0"/>
        <pt x="1003" y="371" on="1"/>
        <pt x="803" y="371" on="1"/>
        <pt x="803" y="65" on="1"/>
        <pt x="961" y="65" on="1"/>
        <pt x="985" y="65" on="0"/>
        <pt x="985" y="34" on="1"/>
        <pt x="985" y="20" on="0"/>
        <pt x="971" y="0" on="0"/>
        <pt x="960" y="0" on="1"/>
      </contour>
    </TTGlyph>
    <TTGlyph name="fraction" xMin="243" yMin="-237" xMax="997" yMax="1173">
      <contour>
        <pt x="247" y="-178" on="1"/>
        <pt x="914" y="1152" on="1"/>
        <pt x="924" y="1173" on="0"/>
        <pt x="951" y="1173" on="1"/>
        <pt x="969" y="1173" on="0"/>
        <pt x="997" y="1151" on="0"/>
        <pt x="997" y="1134" on="1"/>
        <pt x="997" y="1125" on="0"/>
        <pt x="991" y="1113" on="1"/>
        <pt x="327" y="-213" on="1"/>
        <pt x="314" y="-237" on="0"/>
        <pt x="290" y="-237" on="1"/>
        <pt x="272" y="-237" on="0"/>
        <pt x="243" y="-212" on="0"/>
        <pt x="243" y="-195" on="1"/>
        <pt x="243" y="-186" on="0"/>
      </contour>
    </TTGlyph>
    <TTGlyph name="g" xMin="276" yMin="-350" xMax="1169" yMax="877">
      <contour>
        <pt x="548" y="109" on="1"/>
        <pt x="641" y="109" on="1"/>
        <pt x="732" y="109" on="0"/>
        <pt x="852" y="92" on="0"/>
        <pt x="949" y="45" on="0"/>
        <pt x="994" y="-45" on="0"/>
        <pt x="994" y="-114" on="1"/>
        <pt x="994" y="-192" on="0"/>
        <pt x="872" y="-302" on="0"/>
        <pt x="692" y="-350" on="0"/>
        <pt x="585" y="-350" on="1"/>
        <pt x="535" y="-350" on="0"/>
        <pt x="450" y="-339" on="0"/>
        <pt x="369" y="-310" on="0"/>
        <pt x="312" y="-265" on="0"/>
        <pt x="278" y="-193" on="0"/>
        <pt x="278" y="-147" on="1"/>
        <pt x="278" y="-75" on="0"/>
        <pt x="344" y="32" on="0"/>
        <pt x="397" y="58" on="1"/>
        <pt x="303" y="103" on="0"/>
        <pt x="303" y="185" on="1"/>
        <pt x="303" y="238" on="0"/>
        <pt x="401" y="325" on="0"/>
        <pt x="448" y="331" on="1"/>
        <pt x="362" y="366" on="0"/>
        <pt x="276" y="463" on="0"/>
        <pt x="276" y="545" on="1"/>
        <pt x="276" y="676" on="0"/>
        <pt x="461" y="813" on="0"/>
        <pt x="599" y="813" on="1"/>
        <pt x="743" y="813" on="0"/>
        <pt x="838" y="734" on="1"/>
        <pt x="990" y="835" on="1"/>
        <pt x="1052" y="877" on="0"/>
        <pt x="1111" y="877" on="1"/>
        <pt x="1169" y="877" on="0"/>
        <pt x="1169" y="775" on="0"/>
        <pt x="1036" y="775" on="1"/>
        <pt x="867" y="701" on="1"/>
        <pt x="924" y="630" on="0"/>
        <pt x="924" y="540" on="1"/>
        <pt x="924" y="409" on="0"/>
        <pt x="757" y="287" on="0"/>
        <pt x="588" y="287" on="1"/>
        <pt x="510" y="287" on="0"/>
        <pt x="399" y="230" on="0"/>
        <pt x="399" y="190" on="1"/>
        <pt x="399" y="151" on="0"/>
        <pt x="458" y="109" on="0"/>
      </contour>
      <contour>
        <pt x="460" y="37" on="1"/>
        <pt x="431" y="26" on="0"/>
        <pt x="374" y="-79" on="0"/>
        <pt x="374" y="-122" on="1"/>
        <pt x="374" y="-205" on="0"/>
        <pt x="475" y="-268" on="0"/>
        <pt x="583" y="-268" on="1"/>
        <pt x="640" y="-268" on="0"/>
        <pt x="745" y="-253" on="0"/>
        <pt x="841" y="-220" on="0"/>
        <pt x="898" y="-159" on="0"/>
        <pt x="898" y="-118" on="1"/>
        <pt x="898" y="-27" on="0"/>
        <pt x="790" y="37" on="0"/>
        <pt x="644" y="37" on="1"/>
      </contour>
      <contour>
        <pt x="828" y="534" on="1"/>
        <pt x="828" y="636" on="0"/>
        <pt x="698" y="731" on="0"/>
        <pt x="597" y="731" on="1"/>
        <pt x="498" y="731" on="0"/>
        <pt x="372" y="637" on="0"/>
        <pt x="372" y="542" on="1"/>
        <pt x="372" y="454" on="0"/>
        <pt x="495" y="361" on="0"/>
        <pt x="591" y="361" on="1"/>
        <pt x="828" y="361" on="0"/>
      </contour>
    </TTGlyph>
    <TTGlyph name="gbreve" xMin="276" yMin="-350" xMax="1169" yMax="1218">
      <component glyphName="breve" x="26" y="70" flags="0x1004"/>
      <component glyphName="g" x="0" y="0" flags="0x1204"/>
    </TTGlyph>
    <TTGlyph name="gcircumflex" xMin="276" yMin="-350" xMax="1169" yMax="1381">
      <component glyphName="circumflex" x="23" y="61" flags="0x1004"/>
      <component glyphName="g" x="0" y="0" flags="0x1204"/>
    </TTGlyph>
    <TTGlyph name="gcommaaccent" xMin="276" yMin="-350" xMax="1169" yMax="1387">
      <component glyphName="uni0326" x="1286" y="1177" scale="-1.0" flags="0x1004"/>
      <component glyphName="g" x="0" y="0" flags="0x1204"/>
    </TTGlyph>
    <TTGlyph name="gdotaccent" xMin="276" yMin="-350" xMax="1169" yMax="1164">
      <component glyphName="uni0307" x="79" y="351" flags="0x1004"/>
      <component glyphName="g" x="0" y="0" flags="0x1204"/>
    </TTGlyph>
</ttFont>
